<svg id="Layer_1" data-name="Layer 1" xmlns="http://www.w3.org/2000/svg" viewBox="0 0 743.72 204.57"><defs><style>.cls-1{fill:#fff;}</style></defs><rect class="cls-1" x="0.5" y="0.5" width="24" height="85"/><polygon class="cls-1" points="38 85.5 62 85.5 62 19.91 83 19.91 83 85.5 107 85.5 107 19.91 128 19.91 128 85.5 152 85.5 152 12.51 138 0 52 0 38 12 38 85.5"/><polygon class="cls-1" points="164 85 174 65 228.66 65 228.66 52.83 178.36 52.83 164 40.99 164 12 178.49 0 253.2 0 243 20 188 20 188 33 239 33 253.2 44.81 253.2 73.42 239.27 85 164 85"/><polygon class="cls-1" points="279.7 85 340.36 85 354 74 354 0.43 330.01 0.43 330.01 66 290 66 290 0.43 266 0.43 266 73.54 279.7 85"/><path class="cls-1" d="M451,12.39,437.64.43h-70.4V85H438l13-11V48l-10-7,10-7Zm-23.84,53H390V52.83L416,53l11.16-18.54Zm0-32.79H390V20h37.16Z"/><path class="cls-1" d="M536.1.43H475.77L462,12V85h24V59h30l10.24-18V85h24V12ZM526.4,39H485.64V20H526.4Z"/><polygon class="cls-1" points="644.1 20 644.1 0.43 562 0.43 562 85 644.1 85 644.1 65.28 585 65.28 585 52 622 52 633 33 585 33 585 20 644.1 20"/><polygon class="cls-1" points="655.61 0.43 655.61 85 679 85 679 46.38 714.62 85 743.72 85 701 37 733.53 0.43 703.61 0.43 679 26 679 0.43 655.61 0.43"/><polygon class="cls-1" points="88 204 13.77 204 0 192 0 131.36 13 120 88 120 79 139 24 139 24 184 79 184 88 204"/><path class="cls-1" d="M179.35,120H112.4L99,131v61.14L112.4,204h65.84L192,192V131.49Zm-11.71,64H123V140h44.64Z"/><polygon class="cls-1" points="205.12 204 228.54 204 228.54 139 250.24 139 250.24 204 273.79 204 273.79 139 295.36 139 295.36 204 318.54 204 318.54 131.24 305.1 120 218.93 120 205.12 130.62 205.12 204"/><path class="cls-1" d="M414.21,120H334.32v84h23.8V178.21h56L428,167V131.36Zm-10.6,37.75H358V140h45.61Z"/><path class="cls-1" d="M513.58,120H453.25l-13.77,11.57v73h24v-26h30l10.24-18v44h24v-73Zm-9.7,38.57H463.12v-19h40.76Z"/><polygon class="cls-1" points="539.88 204 563.23 204 563.23 139.57 604 139.57 604 204 627.34 204 627.34 131.36 614.31 120 553.65 120 539.88 130.75 539.88 204"/><polygon class="cls-1" points="674.72 204 698.39 204 698.39 177 732 149 732 121.75 708.62 121.75 708.62 142 687 160 665 143 665 121.75 641 122 641 148.25 675 177 674.72 204"/></svg>