<svg id="Layer_1" data-name="Layer 1" xmlns="http://www.w3.org/2000/svg" viewBox="0 0 180 180"><defs><style>.cls-1{fill:#fcf0ec;}</style></defs><rect class="cls-1" width="180" height="180" rx="90"/><path d="M84.39,122,83,126a29.42,29.42,0,0,1-7.16,1.08q-3.18,0-8.38-.54a76,76,0,0,0-7.83-.54q-4.12,0-12.64,1l1.15-3.44q6.35-1.62,8-3.51t5.4-16.15Q65.25,89.57,65.25,85a53.58,53.58,0,0,0-3.5-18.54A47.47,47.47,0,0,0,53,51.12Q43.07,54.77,38.78,58a24.81,24.81,0,0,0-6.88,7.86A17.31,17.31,0,0,0,29.3,74a8.81,8.81,0,0,0,3.11,6.41C34.16,82.1,35,83.6,35,84.91a4.14,4.14,0,0,1-1,2.9A3.38,3.38,0,0,1,31.4,89a5.54,5.54,0,0,1-4.66-2.69,15.28,15.28,0,0,1-2.56-8.91,25.88,25.88,0,0,1,4.18-14.09A34,34,0,0,1,40,52.2q4.38-2.64,14.43-5.6,3.7-1.08,6.68-2.23a55.06,55.06,0,0,1,9.15,16Q73.74,69.6,75,83.22q12.52-26.34,23.88-37t18.48-10.71A5.22,5.22,0,0,1,121,36.75a4.13,4.13,0,0,1,1.42,3.17,3.76,3.76,0,0,1-1.66,3.17q-1.65,1.21-6.45,1.55a16.63,16.63,0,0,0-7.29,1.89Q102,49.65,95.14,58A128.53,128.53,0,0,0,81.6,79a118.58,118.58,0,0,0-10.17,26.16q-3.48,13.59-3.75,17.7a37.55,37.55,0,0,0,6.29.54A45.37,45.37,0,0,0,84.39,122Z"/><path d="M155.82,46.4q-4.92,10.92-10.45,30.4l-10.05,35.13q-4.78,16.88-13.33,24.7t-18.79,7.9q-6.74,0-10.84-3c-2.74-2-4.11-4.25-4.11-6.67a4.21,4.21,0,0,1,1.21-3,3.71,3.71,0,0,1,2.77-1.28q2.3,0,4.92,2.76a24.18,24.18,0,0,0,5.6,4.72,11.6,11.6,0,0,0,5.13,1.42,7.81,7.81,0,0,0,4.18-1.08,14.94,14.94,0,0,0,5.06-5.5q2.16-3.75,8.9-24.95,5.67-17.67,11-36.71l5.87-20.52-3.24-.13q-10.72,0-17.73,5.16t-7,10.89a8.63,8.63,0,0,0,1.76,4.65,7.84,7.84,0,0,1,1.61,3.85A4.23,4.23,0,0,1,117,78.2a4.31,4.31,0,0,1-3.14,1.31,4.63,4.63,0,0,1-3.88-2.08,10.41,10.41,0,0,1-1.51-6.13,20.88,20.88,0,0,1,5.35-13.83,30.6,30.6,0,0,1,14.44-9.19q6.06-2,18.39-2C147.76,46.33,150.84,46.35,155.82,46.4Z"/></svg>