<svg id="Layer_1" data-name="Layer 1" xmlns="http://www.w3.org/2000/svg" viewBox="0 0 125.6 36.9"><defs><style>.cls-1{fill:gold;}.cls-1,.cls-2{fill-rule:evenodd;}.cls-2{fill:#fff;}</style></defs><path class="cls-1" d="M0,0H25.75V36.9H0V0ZM3.71,33.19H22V3.72H3.71V33.19Z"/><path class="cls-2" d="M42.86,16.56H41.27c-2.1-3-4.17-5.9-6.24-9.22h0v9.22H33.25V3.71h1.59c2.1,2.94,4.17,5.85,6.22,9.15h0V3.71h1.76V16.56Z"/><path class="cls-2" d="M47.05,11.47c.51-1.69,1-3.25,1.48-5.23h0c.51,2,1,3.54,1.45,5.23Zm.84-7.76L43.45,16.56h1.91l1.11-3.51h3.88l1,3.51h2.46L49.72,3.71Z"/><polygon class="cls-2" points="55.89 16.56 55.89 5.43 52.51 5.43 52.51 3.71 61.47 3.71 61.47 5.43 58.09 5.43 58.09 16.56 55.89 16.56 55.89 16.56"/><polygon class="cls-2" points="62.18 3.71 64.37 3.71 64.37 16.56 62.18 16.56 62.18 3.71 62.18 3.71"/><path class="cls-2" d="M71.16,14.94c-2.3,0-3.11-2.53-3.11-5S69,5.32,71.16,5.32,74.25,7.58,74.25,10s-.8,5-3.09,5Zm0,1.83c3.35,0,5.44-3,5.44-6.82,0-3.6-2.31-6.46-5.44-6.46S65.7,6.35,65.7,10c0,3.83,2.1,6.82,5.46,6.82Z"/><path class="cls-2" d="M87.56,16.56H86c-2.09-3-4.17-5.9-6.24-9.22h0v9.22H78V3.71h1.59c2.09,2.94,4.16,5.85,6.22,9.15h0V3.71h1.77V16.56Z"/><path class="cls-2" d="M91.74,11.47c.52-1.69,1-3.25,1.49-5.23h0c.52,2,1,3.54,1.45,5.23Zm.85-7.76L88.15,16.56h1.91l1.11-3.51H95l1,3.51h2.46L94.42,3.71Z"/><polygon class="cls-2" points="99.15 3.71 101.34 3.71 101.34 14.83 105.69 14.83 105.69 16.56 99.15 16.56 99.15 3.71 99.15 3.71"/><path class="cls-2" d="M41.51,27.3v5.3a10.14,10.14,0,0,1-3.65.79c-3.78,0-6.17-2.94-6.17-6.72,0-3.5,2.39-6.57,6.24-6.57a5.52,5.52,0,0,1,3.12,1l-.72,1.52A4.7,4.7,0,0,0,38,21.94c-2.34,0-3.94,1.86-3.94,4.77s1.83,4.84,3.72,4.84a3.24,3.24,0,0,0,1.55-.31V27.3Z"/><polygon class="cls-2" points="49.38 22.05 45.71 22.05 45.71 25.57 49.3 25.57 49.3 27.3 45.71 27.3 45.71 31.44 50.04 31.44 50.04 33.17 43.5 33.17 43.5 20.32 49.38 20.32 49.38 22.05 49.38 22.05"/><path class="cls-2" d="M56.17,31.55c-2.3,0-3.1-2.53-3.1-5s.91-4.62,3.1-4.62,3.1,2.26,3.1,4.62-.81,5-3.1,5Zm0,1.84c3.36,0,5.45-3,5.45-6.83,0-3.59-2.31-6.46-5.45-6.46S50.72,23,50.72,26.56c0,3.84,2.09,6.83,5.45,6.83Z"/><path class="cls-2" d="M72.18,27.3v5.3a10.05,10.05,0,0,1-3.65.79c-3.78,0-6.16-2.94-6.16-6.72,0-3.5,2.38-6.57,6.24-6.57a5.46,5.46,0,0,1,3.11,1L71,22.62a4.74,4.74,0,0,0-2.35-.68c-2.35,0-4,1.86-4,4.77s1.84,4.84,3.73,4.84A3.2,3.2,0,0,0,70,31.24V27.3Z"/><path class="cls-2" d="M76.41,22.05h1a1.86,1.86,0,0,1,2,2.08,2.25,2.25,0,0,1-2.09,2.54c-.22,0-.73,0-.91.06V22.05ZM82,33.17l-2.6-5.32A4.32,4.32,0,0,0,81.62,24c0-2.5-1.53-3.7-4-3.7H74.2V33.17h2.21V28.33h1l2.07,4.84Z"/><path class="cls-2" d="M85.62,28.09c.51-1.69,1-3.25,1.48-5.23h0c.51,2,1,3.54,1.45,5.23Zm.84-7.76L82,33.17h1.91l1.12-3.51h3.87l1,3.51h2.47l-4.1-12.84Z"/><path class="cls-2" d="M96.51,20.33H93.08V33.17h2.21V28.33h1A4.2,4.2,0,0,0,100.5,24c0-2.5-1.53-3.7-4-3.7Zm-.3,6.34c-.23,0-.77,0-.92.06V22.05h1a1.87,1.87,0,0,1,2,2.08,2.26,2.26,0,0,1-2.09,2.54Z"/><polygon class="cls-2" points="110.7 33.17 108.5 33.17 108.5 26.99 103.92 26.99 103.92 33.17 101.75 33.17 101.75 20.32 103.92 20.32 103.92 25.26 108.5 25.26 108.5 20.36 110.7 20.36 110.7 33.17 110.7 33.17"/><polygon class="cls-2" points="112.81 20.32 114.99 20.32 114.99 33.17 112.81 33.17 112.81 20.32 112.81 20.32"/><path class="cls-2" d="M124.9,22.66a4.62,4.62,0,0,0-2.26-.72c-2.24,0-3.87,1.86-3.87,4.77s1.8,4.84,3.93,4.84a4.13,4.13,0,0,0,2.2-.64l.61,1.6a5.62,5.62,0,0,1-2.9.88c-3.78,0-6.17-2.94-6.17-6.72,0-3.5,2.37-6.57,6.2-6.57a5.4,5.4,0,0,1,3,1l-.7,1.56Z"/></svg>