<svg id="Layer_1" data-name="Layer 1" xmlns="http://www.w3.org/2000/svg" viewBox="0 0 180.78 180.78"><defs><style>.cls-1{fill:#ffd7cc;}</style></defs><rect class="cls-1" x="0.39" y="0.39" width="180" height="180" rx="90"/><path d="M146.52,35.08c-8.68,1.87-16,8.17-21.77,18.54L104.68,89.85a39.46,39.46,0,0,0-4.42,18.71v31.63a12.11,12.11,0,0,0,3.23,8.85c4.25,4.59,7.82,4.93,11.05,5.1H69.81a19.18,19.18,0,0,0,5.1-.68c3.92-1.19,9.53-5.79,9.53-12.59l.17-30.44a29.39,29.39,0,0,0-4.08-15.65L53.65,48.86C47.7,39.33,39.2,35.08,34.27,35.08L79,35.25c-8.85.51-12.08,7.49-7.32,15.65L94.3,90.53c2.72,4.59,5.45,4.42,8.34-.85l18.37-33c6.63-11,4.25-19.73-7.49-21.6Z"/></svg>