<svg id="Layer_1" data-name="Layer 1" xmlns="http://www.w3.org/2000/svg" xmlns:xlink="http://www.w3.org/1999/xlink" viewBox="0 0 182.64 380.83"><defs><style>.cls-1{fill:none;}.cls-2{clip-path:url(#clip-path);}.cls-3{clip-path:url(#clip-path-2);}</style><clipPath id="clip-path"><path class="cls-1" d="M-724.49-3318H236.94a0,0,0,0,1,0,0v476.94a6.82,6.82,0,0,1-6.82,6.82H-717.67a6.82,6.82,0,0,1-6.82-6.82V-3318A0,0,0,0,1-724.49-3318Z"/></clipPath><clipPath id="clip-path-2"><rect class="cls-1" x="-126.74" y="-3246.12" width="462.67" height="331.72" rx="21.88"/></clipPath></defs><g class="cls-2"><image width="1920" height="7701" transform="translate(-724.49 -3317.99) scale(0.5)" xlink:href="../../Portfolio/NATIONAL_GEOGRAPHIC/%EC%B5%9C%EC%A2%85%EA%B2%B0%EA%B3%BC%EB%AC%BC_%EC%BA%A1%EC%B3%90%EB%B3%B8/Ver.pc.png"/></g><g class="cls-3"><image width="1039" height="10540" transform="translate(-126.74 -3246.12) scale(0.45)" xlink:href="../../Portfolio/NATIONAL_GEOGRAPHIC/%EC%B5%9C%EC%A2%85%EA%B2%B0%EA%B3%BC%EB%AC%BC_%EC%BA%A1%EC%B3%90%EB%B3%B8/Ver.tablet.png"/></g><path d="M158.45,7.41A17.54,17.54,0,0,1,176,25V355.87a17.54,17.54,0,0,1-17.54,17.54H24.19A17.54,17.54,0,0,1,6.64,355.87V25A17.55,17.55,0,0,1,24.19,7.41H158.45m0-5.93H24.19A23.5,23.5,0,0,0,.71,25V355.87a23.5,23.5,0,0,0,23.48,23.48H158.45a23.51,23.51,0,0,0,23.48-23.48V25A23.51,23.51,0,0,0,158.45,1.48Z"/></svg>