<svg id="Layer_1" data-name="Layer 1" xmlns="http://www.w3.org/2000/svg" viewBox="0 0 469.02 469.02"><defs><style>.cls-1{font-size:39.12px;font-family:SilkSerif-ExtraLight, Silk Serif;font-weight:200;}</style></defs><text class="cls-1" transform="translate(284.83 39.18) rotate(17.97)">T</text><text class="cls-1" transform="translate(307.77 46.53) rotate(25.06)">H</text><text class="cls-1" transform="translate(330.8 57.34) rotate(31.89)">E</text><text class="cls-1" transform="translate(349.99 69.29) rotate(38.04)">R</text><text class="cls-1" transform="matrix(0.72, 0.7, -0.7, 0.72, 366.41, 82.04)">E</text><text class="cls-1" transform="matrix(0.66, 0.75, -0.75, 0.66, 382.55, 98.04)"> </text><text class="cls-1" transform="matrix(0.62, 0.79, -0.79, 0.62, 389.54, 106.04)">I</text><text class="cls-1" transform="translate(395.92 113.77) rotate(56.22)">S</text><text class="cls-1" transform="matrix(0.49, 0.87, -0.87, 0.49, 407.46, 131.37)"> </text><text class="cls-1" transform="matrix(0.42, 0.91, -0.91, 0.42, 412.82, 140.32)">A</text><text class="cls-1" transform="matrix(0.3, 0.95, -0.95, 0.3, 422.4, 160.94)">N</text><text class="cls-1" transform="translate(430.04 186.28) rotate(77.76)"> </text><text class="cls-1" transform="matrix(0.13, 0.99, -0.99, 0.13, 432.52, 196.39)">E</text><text class="cls-1" transform="matrix(0.02, 1, -1, 0.02, 435.54, 218.7)">N</text><text class="cls-1" transform="matrix(-0.11, 0.99, -0.99, -0.11, 435.91, 244.99)">D</text><text class="cls-1" transform="matrix(-0.2, 0.98, -0.98, -0.2, 432.78, 269.74)"> </text><text class="cls-1" transform="translate(431.01 280.01) rotate(106.55)">T</text><text class="cls-1" transform="translate(424.41 303.13) rotate(114.29)">O</text><text class="cls-1" transform="matrix(-0.5, 0.87, -0.87, -0.5, 411.55, 330.48)"> </text><text class="cls-1" transform="translate(406.83 339.7) rotate(125.84)">O</text><text class="cls-1" transform="matrix(-0.69, 0.73, -0.73, -0.69, 389.11, 363.98)">U</text><text class="cls-1" transform="translate(372.45 381.47) rotate(139.84)">R</text><text class="cls-1" transform="translate(356.3 394.86) rotate(144.29)"> </text><text class="cls-1" transform="translate(347.93 401.13) rotate(148.7)">L</text><text class="cls-1" transform="translate(330.28 411.65) rotate(153.05)">I</text><text class="cls-1" transform="matrix(-0.93, 0.37, -0.37, -0.93, 321.61, 416.55)">V</text><text class="cls-1" transform="translate(296.3 426.47) rotate(165.5)">E</text><text class="cls-1" transform="translate(274.42 432.12) rotate(171.72)">S</text><text class="cls-1" transform="matrix(-1, 0.08, -0.08, -1, 253.5, 434.92)">,</text><text class="cls-1" transform="matrix(-1, 0.03, -0.03, -1, 246.83, 435.48)"> </text><text class="cls-1" transform="translate(236.41 436.08) rotate(-177.39)">B</text><text class="cls-1" transform="translate(214.7 435.2) rotate(-170.9)">U</text><text class="cls-1" transform="matrix(-0.96, -0.28, 0.28, -0.96, 190.88, 431.43)">T</text><text class="cls-1" transform="translate(167.59 424.47) rotate(-159.02)"> </text><text class="cls-1" transform="matrix(-0.9, -0.44, 0.44, -0.9, 157.75, 421.04)">T</text><text class="cls-1" transform="matrix(-0.84, -0.54, 0.54, -0.84, 136.04, 410.58)">H</text><text class="cls-1" transform="matrix(-0.77, -0.64, 0.64, -0.77, 114.73, 396.69)">E</text><text class="cls-1" transform="translate(97.38 382.23) rotate(-134.08)">R</text><text class="cls-1" transform="translate(82.85 367.35) rotate(-127.95)">E</text><text class="cls-1" transform="translate(69.06 349.29) rotate(-123.25)"> </text><text class="cls-1" transform="translate(63.23 340.4) rotate(-120.28)">I</text><text class="cls-1" transform="translate(57.96 331.84) rotate(-115.85)">S</text><text class="cls-1" transform="translate(48.97 312.84) rotate(-111.34)"> </text><text class="cls-1" transform="translate(44.82 303.32) rotate(-106.07)">N</text><text class="cls-1" transform="translate(37.38 278.19) rotate(-98.03)">O</text><text class="cls-1" transform="translate(33.62 248.2) rotate(-92.3)"> </text><text class="cls-1" transform="translate(32.93 237.79) rotate(-87.66)">E</text><text class="cls-1" transform="translate(33.69 215.27) rotate(-80.75)">N</text><text class="cls-1" transform="translate(37.91 189.34) rotate(-73.46)">D</text><text class="cls-1" transform="matrix(0.37, -0.93, 0.93, 0.37, 45.29, 165.51)"> </text><text class="cls-1" transform="translate(48.83 155.7) rotate(-63.42)">T</text><text class="cls-1" transform="matrix(0.56, -0.83, 0.83, 0.56, 59.36, 134.09)">O</text><text class="cls-1" transform="translate(76.76 109.37) rotate(-49.99)"> </text><text class="cls-1" transform="matrix(0.7, -0.71, 0.71, 0.7, 83.33, 101.22)">L</text><text class="cls-1" transform="translate(97.5 86.61) rotate(-39.53)">E</text><text class="cls-1" transform="translate(114.87 72.21) rotate(-33.11)">A</text><text class="cls-1" transform="translate(134.01 59.75) rotate(-26.89)">R</text><text class="cls-1" transform="matrix(0.94, -0.34, 0.34, 0.94, 152.42, 50.18)">N</text><text class="cls-1" transform="matrix(0.97, -0.26, 0.26, 0.97, 177.36, 41.4)">I</text><text class="cls-1" transform="matrix(0.99, -0.17, 0.17, 0.99, 186.88, 38.44)">N</text><text class="cls-1" transform="translate(212.72 33.91) rotate(-2.15)">G</text><text class="cls-1" transform="translate(240.34 33.25) rotate(3.17)"> </text><text class="cls-1" transform="matrix(0.99, 0.12, -0.12, 0.99, 250.89, 33.75)">-</text><text class="cls-1" transform="translate(265.41 35.52) rotate(10.32)"> </text></svg>