<svg id="Layer_1" data-name="Layer 1" xmlns="http://www.w3.org/2000/svg" viewBox="0 0 329.04 329.05"><defs><style>.cls-1{font-size:28.28px;fill:#202527;font-family:SilkSerif-Regular, Silk Serif;}</style></defs><text class="cls-1" transform="translate(194.02 27.03) rotate(13.99)">I</text><text class="cls-1" transform="translate(202.47 29.17) rotate(16.86)">’</text><text class="cls-1" transform="translate(207.88 30.56) rotate(21.44)">L</text><text class="cls-1" transform="translate(223.36 36.6) rotate(28.24)">L</text><text class="cls-1" transform="matrix(0.84, 0.55, -0.55, 0.84, 238.03, 44.69)"> </text><text class="cls-1" transform="translate(244.36 48.82) rotate(36.24)"> </text><text class="cls-1" transform="translate(250.45 53.01) rotate(41.13)">L</text><text class="cls-1" transform="matrix(0.66, 0.75, -0.75, 0.66, 262.84, 63.5)">O</text><text class="cls-1" transform="matrix(0.54, 0.84, -0.84, 0.54, 277.43, 80.22)">G</text><text class="cls-1" transform="translate(288.24 97.73) rotate(63.18)"> </text><text class="cls-1" transform="matrix(0.35, 0.94, -0.94, 0.35, 291.93, 104.1)">O</text><text class="cls-1" transform="translate(299.65 124.94) rotate(77.21)">F</text><text class="cls-1" transform="translate(303.35 141.1) rotate(83.99)">F</text><text class="cls-1" transform="translate(304.92 157.78) rotate(88.87)"> </text><text class="cls-1" transform="translate(305.89 164.99) rotate(96.48)">W</text><text class="cls-1" transform="translate(302.05 195.24) rotate(106.76)">H</text><text class="cls-1" transform="translate(296.28 214.3) rotate(114.48)">E</text><text class="cls-1" transform="translate(289.01 230.55) rotate(122.22)">N</text><text class="cls-1" transform="translate(277.94 247.55) rotate(127.84)"> </text><text class="cls-1" transform="matrix(-0.66, 0.75, -0.75, -0.66, 273.35, 253.52)">I</text><text class="cls-1" transform="matrix(-0.7, 0.72, -0.72, -0.7, 267.6, 260.05)">’</text><text class="cls-1" transform="matrix(-0.77, 0.64, -0.64, -0.77, 264.24, 264.41)">M</text><text class="cls-1" transform="matrix(-0.84, 0.54, -0.54, -0.84, 243.54, 280.78)"> </text><text class="cls-1" transform="translate(237.52 285.01) rotate(152.84)">D</text><text class="cls-1" transform="translate(220.2 293.89) rotate(160.46)">E</text><text class="cls-1" transform="translate(203.39 299.86) rotate(167.63)">A</text><text class="cls-1" transform="matrix(-1, 0.09, -0.09, -1, 186.76, 303.63)">D</text><text class="cls-1" transform="translate(167.24 305.07) rotate(-179.07)"> </text><text class="cls-1" transform="translate(159.7 305.06) rotate(-175.67)">-</text><text class="cls-1" transform="translate(148.2 304.13) rotate(-171.81)"> </text><text class="cls-1" transform="translate(140.74 303.09) rotate(-168.39)">I</text><text class="cls-1" transform="translate(132.23 301.32) rotate(-165.54)">’</text><text class="cls-1" transform="translate(126.74 300.15) rotate(-160.94)">L</text><text class="cls-1" transform="translate(111.03 294.75) rotate(-154.13)">L</text><text class="cls-1" transform="matrix(-0.86, -0.51, 0.51, -0.86, 96.05, 287.29)"> </text><text class="cls-1" transform="matrix(-0.83, -0.56, 0.56, -0.83, 89.54, 283.42)"> </text><text class="cls-1" transform="matrix(-0.78, -0.63, 0.63, -0.78, 83.28, 279.47)">L</text><text class="cls-1" transform="matrix(-0.69, -0.73, 0.73, -0.69, 70.48, 269.52)">O</text><text class="cls-1" transform="matrix(-0.57, -0.82, 0.82, -0.57, 55.21, 253.41)">G</text><text class="cls-1" transform="translate(43.68 236.33) rotate(-119.18)"> </text><text class="cls-1" transform="matrix(-0.39, -0.92, 0.92, -0.39, 39.74, 230.14)">O</text><text class="cls-1" transform="matrix(-0.26, -0.97, 0.97, -0.26, 31.15, 209.63)">F</text><text class="cls-1" transform="translate(26.78 193.63) rotate(-98.37)">F</text><text class="cls-1" transform="translate(24.53 177.07) rotate(-93.48)"> </text><text class="cls-1" transform="matrix(0.07, -1, 1, 0.07, 23.27, 169.87)">W</text><text class="cls-1" transform="matrix(0.25, -0.97, 0.97, 0.25, 25.86, 139.52)">H</text><text class="cls-1" transform="translate(30.84 120.21) rotate(-67.9)">E</text><text class="cls-1" transform="translate(37.42 103.67) rotate(-60.14)">N</text><text class="cls-1" transform="translate(47.78 86.23) rotate(-54.52)"> </text><text class="cls-1" transform="matrix(0.63, -0.78, 0.78, 0.63, 52.11, 80.1)">I</text><text class="cls-1" transform="translate(57.59 73.33) rotate(-48.31)">’</text><text class="cls-1" transform="translate(60.77 68.84) rotate(-41.86)">M</text><text class="cls-1" transform="matrix(0.82, -0.57, 0.57, 0.82, 80.78, 51.63)"> </text><text class="cls-1" transform="translate(86.62 47.15) rotate(-29.54)">D</text><text class="cls-1" transform="translate(103.58 37.55) rotate(-21.92)">E</text><text class="cls-1" transform="matrix(0.97, -0.25, 0.25, 0.97, 120.1, 30.89)">A</text><text class="cls-1" transform="translate(136.57 26.43) rotate(-7.29)">D</text><text class="cls-1" transform="matrix(1, -0.03, 0.03, 1, 156.04, 24.21)"> </text><text class="cls-1" transform="translate(163.55 23.9) rotate(1.98)">-</text></svg>