<svg id="Layer_1" data-name="Layer 1" xmlns="http://www.w3.org/2000/svg" viewBox="0 0 698.51 699.86"><defs><style>.cls-1{fill:#3a3a3a;}</style></defs><path class="cls-1" d="M504.91,102.62q-1.68-.6-5.61-2.37t-9-4.09q-5.08-2.32-10.78-5.06t-10.89-5.27l-9.47-4.64c-2.84-1.39-5-2.48-6.42-3.25a29.68,29.68,0,0,1-3.52-2,7.9,7.9,0,0,1-2.7-3.07c-.6-1.31-.65-2.17-.16-2.59s1.18-.33,2.07.25l5.11,3.37c.67.41,1.68,1,3,1.71s2.93,1.55,4.75,2.44l6,3,6.82,3.34c.86-1.91,1.73-3.81,2.63-5.7s1.56-3.45,2-4.68a7.82,7.82,0,0,0,.65-3.56,4.51,4.51,0,0,0-.7-2.14,2.65,2.65,0,0,1-.56-1.75,2.55,2.55,0,0,1,.45-.92A1.15,1.15,0,0,1,480,65a3.51,3.51,0,0,1,1.5.73,14.2,14.2,0,0,1,1.55,1.63,10.29,10.29,0,0,1,1.64,3,5,5,0,0,1-.23,3.38q-.73,1.93-1.2,3.12-1,2.33-2.31,4.82c-.85,1.66-1.64,3.25-2.39,4.77q4.14,2,8.27,3.94l7.7,3.56q3.57,1.64,6.4,2.86t4.51,1.82a10.16,10.16,0,0,0,2.24.55,5.3,5.3,0,0,1,1.8.56,2.92,2.92,0,0,1,1.15,1,1.52,1.52,0,0,1,0,1.62,2.15,2.15,0,0,1-1.7,1.24A8.86,8.86,0,0,1,504.91,102.62Zm-29.42-5.46a2.71,2.71,0,0,1,1.32-.12,1.69,1.69,0,0,1,1.14.89,1.2,1.2,0,0,1,.28,1,4.5,4.5,0,0,1-.43,1.32l1.28.95q5.25,4.65,6.36,9.17t-1.37,10.73A14.75,14.75,0,0,1,480,127a14.52,14.52,0,0,1-5.71,3,17.15,17.15,0,0,1-6.66.34,22.44,22.44,0,0,1-6.88-2.11,26.8,26.8,0,0,1-5.53-3.64,17.57,17.57,0,0,1-4.18-5,14.08,14.08,0,0,1-1.7-6.34,14.93,14.93,0,0,1,1.89-7.42,15.9,15.9,0,0,1,8.35-7.91q5.24-2,12.88-.46l1.56.16A2.26,2.26,0,0,0,475.49,97.16Zm-.07,6.4a3.6,3.6,0,0,1-.56-.76,5.48,5.48,0,0,0-.46-.72,11.85,11.85,0,0,1-1.19-.14c-.44-.07-1-.18-1.75-.32q-6.46-1.31-10,.46a13,13,0,0,0-5.74,6.25,11,11,0,0,0-1.29,5.2,9.85,9.85,0,0,0,1.18,4.4,12.31,12.31,0,0,0,2.94,3.57,19.47,19.47,0,0,0,4,2.59q5.54,2.72,10,1.63t6.83-6.37a16,16,0,0,0,1.49-5,10.34,10.34,0,0,0-.36-4,9.66,9.66,0,0,0-1.91-3.45A36.52,36.52,0,0,0,475.42,103.56Zm36.42-36.07A58,58,0,0,0,509,73.08a68.61,68.61,0,0,1-6.4,10.4q-.83,1-1.8,2a15.75,15.75,0,0,1-2,1.7A9.9,9.9,0,0,1,497,88.26a1.54,1.54,0,0,1-1.27.14c-.58-.28-.62-1.17-.11-2.67a21.8,21.8,0,0,1,3.07-5.37,26.61,26.61,0,0,0,2-3q1.21-2,2.38-4.19c.78-1.43,1.5-2.81,2.18-4.11s1.16-2.25,1.44-2.84l-26-11.53c-1.18-.58-2.37-1.23-3.57-2a7.15,7.15,0,0,1-2.74-3c-.6-1.31-.63-2.17-.11-2.57s1.19-.32,2,.23l5.28,3.24q6.51,3,13.27,6.11t12.56,5.55l4.08,1a2.12,2.12,0,0,1,1.09,1.9A5.14,5.14,0,0,1,511.84,67.49Z"/><path class="cls-1" d="M540.11,165c-1.49-1.17-3.16-2.53-5-4.1s-3.78-3.2-5.82-4.89-4.07-3.44-6.11-5.23-4-3.51-5.83-5.17l-.14-.13q-1.43,1.88-3.43,4.1t-3.84,4a.83.83,0,0,0-.13.81,6.87,6.87,0,0,0,1.46,2q2.47,2.22,5.42,4.74c2,1.67,4,3.36,6,5s4,3.33,5.95,4.89,3.72,3,5.37,4.29c.81.56,1.46,1,1.93,1.22a7.36,7.36,0,0,1,1.52,1.1,4.1,4.1,0,0,1,.93,1.16c.23.43.11.91-.37,1.44s-1.56.54-3.1-.14a22.26,22.26,0,0,1-4.7-2.91q-4.43-3.58-9.5-7.61t-10.26-8.82c-1.26-1.13-2.42-2.22-3.47-3.25a9.46,9.46,0,0,1-2.05-2.63,2.76,2.76,0,0,1-.13-1.9,4.07,4.07,0,0,1,1.24-2.11,55.88,55.88,0,0,0,7.7-9,6.71,6.71,0,0,1-1-2.79c-.22-1.42,0-2.24.56-2.46s1.21.05,1.85.8l4.2,4.57q2.34,2.37,5.12,4.86t5.61,5q2.84,2.49,5.67,4.76t5.29,4.23c.48-.44,1-1,1.71-1.69l2-2.08,1.9-2c.59-.61,1.09-1.13,1.48-1.57L527.67,136c-1-.88-1.94-1.83-2.9-2.87a7.07,7.07,0,0,1-1.82-3.61c-.22-1.42,0-2.25.52-2.49s1.19,0,1.89.83l4.19,4.43q5.52,4.69,10.45,9.19t9.85,8.39L553.5,152a2.1,2.1,0,0,1,.53,2.12,5.21,5.21,0,0,1-1.34,2c-.45.39-1,.88-1.52,1.47s-1.2,1.21-1.88,1.87-1.36,1.34-2,2.05-1.31,1.33-1.88,1.87a2.66,2.66,0,0,1,.8,1.31,1.67,1.67,0,0,1-.5,1.59,2.16,2.16,0,0,1-1.94.69A8.22,8.22,0,0,1,540.11,165Zm27.82-11.9c-1-.69-2.55-2-4.75-3.8s-4.73-4-7.56-6.4-5.83-5-9-7.81-6.17-5.48-9-8l-7.83-7q-3.54-3.18-5.3-4.89a30.44,30.44,0,0,1-2.83-2.93,7.47,7.47,0,0,1-1.69-3.76c-.22-1.43,0-2.26.52-2.5s1.2,0,1.89.84l4,4.64c.83.93,2.31,2.37,4.42,4.31s4.58,4.17,7.37,6.68,5.77,5.17,8.93,8,6.19,5.45,9.1,8,5.57,4.77,8,6.75,4.2,3.42,5.4,4.33a9.15,9.15,0,0,0,2,1.1,4.72,4.72,0,0,1,1.62,1,2.81,2.81,0,0,1,.8,1.31,1.68,1.68,0,0,1-.51,1.59,2.19,2.19,0,0,1-1.94.69A8.2,8.2,0,0,1,567.93,153.1Zm-3.62-19.58q-4.42-3.59-9.15-7.49t-9.9-8.7c-1.26-1.14-2.29-2.12-3.07-3a7.5,7.5,0,0,1-1.58-2.27,3.41,3.41,0,0,1-.34-1.76,3.88,3.88,0,0,1,1.37-2.32q1.71-1.77,2.76-2.79t1.65-1.68c.39-.44.69-.81.91-1.09s.43-.61.65-.94A9.34,9.34,0,0,0,549,98.7a4.72,4.72,0,0,0-.09-2.32,3.39,3.39,0,0,1-.21-1.31,2.29,2.29,0,0,1,.23-.77,1.29,1.29,0,0,1,.8-.74,1.54,1.54,0,0,1,1.32.14,4,4,0,0,1,1.78,2.12,9.78,9.78,0,0,1,.65,3.09,5.27,5.27,0,0,1-.54,2.74c-.42.81-.85,1.55-1.27,2.22-.82,1.11-1.71,2.19-2.67,3.26s-1.95,2.12-3,3.15a3.66,3.66,0,0,0-.63,1.14q-.3.78.78,1.62,2.47,2.23,5.28,4.68t5.68,4.9c1.91,1.64,3.8,3.22,5.67,4.77s3.61,3,5.26,4.26a19.31,19.31,0,0,0,1.94,1.21,8.15,8.15,0,0,1,1.51,1.1,4.29,4.29,0,0,1,.93,1.17c.23.42.11.9-.37,1.44s-1.5.47-3.07-.18A20.92,20.92,0,0,1,564.31,133.52Zm14-16.71q-4.42-3.59-9.73-8t-10.85-9.41c-1-.91-2-1.88-2.93-2.89A6.79,6.79,0,0,1,553,92.83c-.27-1.47-.1-2.31.49-2.52s1.2,0,1.84.8l4.21,4.56q5,4.93,10.17,9.28t10.12,8.16a8.86,8.86,0,0,0,2,1.11,4.6,4.6,0,0,1,1.61,1,2.61,2.61,0,0,1,.8,1.31,1.66,1.66,0,0,1-.5,1.59,2.21,2.21,0,0,1-1.94.69A8.26,8.26,0,0,1,578.27,116.81Z"/><path class="cls-1" d="M615,171.55a2.21,2.21,0,0,1,1.4.57,1.93,1.93,0,0,1,.55,1.45,2.65,2.65,0,0,1-1.3,1.9,3.53,3.53,0,0,1-2.55.83.18.18,0,0,0-.27-.07,17.81,17.81,0,0,1,1.07,3,24.48,24.48,0,0,1,0,9.68c.56,0,1,.48,1.4,1.33l1.51,3.56a16.16,16.16,0,0,0,1.44,2.22c.7.95,1.51,2,2.42,3.17s1.88,2.37,2.89,3.63,2,2.42,2.84,3.48c2.47-1.6,4.82-3.12,7-4.54s4.31-2.81,6.24-4.15a4.5,4.5,0,0,0,1.77-1.9,6.6,6.6,0,0,0,.6-2.1,11.44,11.44,0,0,0-.14-2.46,8,8,0,0,1,.18-2,1.62,1.62,0,0,1,.6-1.07,1.33,1.33,0,0,1,1.58.12,3.25,3.25,0,0,1,1.17,1.52,18,18,0,0,1,.77,4.31,16.37,16.37,0,0,1-.34,3.84,4.47,4.47,0,0,1-1.87,3.12q-1.65,1.25-2.73,1.92-7.12,4.31-14.31,8.81l-14.24,8.94q-7.05,4.42-13.83,8.45t-13.13,7.39c-.75.39-1.59.77-2.51,1.15a16.81,16.81,0,0,1-2.7.86,14.25,14.25,0,0,1-2.32.35,1.77,1.77,0,0,1-1.35-.32c-.22-.25-.19-.62.12-1.11a7.91,7.91,0,0,1,1.46-1.65c.66-.61,1.44-1.24,2.33-1.91s1.81-1.3,2.76-1.88q4.49-2.43,9.92-5.57t11.23-6.62c-.78-.89-1.63-1.89-2.54-3s-1.8-2.19-2.67-3.3-1.7-2.17-2.45-3.2-1.39-2-1.91-2.8a8.77,8.77,0,0,1-1.24-2.75,16.71,16.71,0,0,1-.26-2.66,17.35,17.35,0,0,1-7-3,20.33,20.33,0,0,1-5.59-6,21.78,21.78,0,0,1-2.65-6.32,18.89,18.89,0,0,1-.44-6.76,15.87,15.87,0,0,1,2.26-6.41,16.23,16.23,0,0,1,5.52-5.32,21.84,21.84,0,0,1,6.63-2.79,19.9,19.9,0,0,1,6.68-.39,22.19,22.19,0,0,1,6.38,1.75,21.62,21.62,0,0,1,5.69,3.69,3.35,3.35,0,0,0,1.82.71Zm-5.81,7.17a6.27,6.27,0,0,1,.31-3.77L608,173.76q-5-4.15-10-4.23a18.33,18.33,0,0,0-10,3,12.37,12.37,0,0,0-3.75,3.54,11.1,11.1,0,0,0-1.81,4.52,13.34,13.34,0,0,0,.18,5,15.77,15.77,0,0,0,2.06,5q3.56,5.75,8.58,6.78T603.47,195a17,17,0,0,0,4.22-3.71,10.6,10.6,0,0,0,1.94-3.85,12.47,12.47,0,0,0,.3-4.16A34.22,34.22,0,0,0,609.16,178.72ZM623,208.53q-2.32-2.82-5-6.08a55,55,0,0,1-4.09-5.59,10.15,10.15,0,0,1-1.16-2.34,7.26,7.26,0,0,1-.3-2.06,15.25,15.25,0,0,1-2.52,3.29,30.52,30.52,0,0,1-3.59,3,18.48,18.48,0,0,1-9.4,3.63l1,2.16a18.15,18.15,0,0,0,1.56,2.43q1.14,1.55,2.58,3.42c1,1.24,2,2.51,3.06,3.81s2.05,2.47,2.94,3.54Z"/><path class="cls-1" d="M675,321.61q-8.22,1.35-16.57,2.85l-16.53,3c-5.47,1-10.8,1.89-16,2.69s-10.17,1.47-14.93,2c-.84.08-1.77.13-2.76.14a17,17,0,0,1-2.82-.21,13.23,13.23,0,0,1-2.28-.54c-.64-.22-1-.49-1.14-.8s.06-.64.53-1a8.63,8.63,0,0,1,2-1q1.26-.47,2.88-.9c1.08-.29,2.16-.53,3.26-.72q7.51-.81,17.34-2.34T648,321.36q-.65-2-1.5-4.91t-1.65-6q-.78-3-1.45-5.76c-.45-1.81-.77-3.23-1-4.26a8.55,8.55,0,0,1-.09-3.07,15.93,15.93,0,0,1,.88-2.64,3.47,3.47,0,0,1,.89-1.45,1,1,0,0,1,.9-.26,1.47,1.47,0,0,1,.76.62,2.48,2.48,0,0,1,.37,1.27l.08,3.87a30.53,30.53,0,0,0,.7,3.71c.42,1.82.92,3.83,1.51,6.05s1.19,4.44,1.81,6.65,1.15,4,1.6,5.49l12.52-2.39q6.06-1.16,11.15-2.25a4.42,4.42,0,0,0,2.34-1.11,6.39,6.39,0,0,0,1.34-1.72,11.62,11.62,0,0,0,.79-2.33,8.61,8.61,0,0,1,.88-1.75,1.66,1.66,0,0,1,1-.76,1.33,1.33,0,0,1,1.42.7,3.19,3.19,0,0,1,.52,1.85,17.74,17.74,0,0,1-.89,4.28,16.86,16.86,0,0,1-1.74,3.44,4.51,4.51,0,0,1-2.89,2.2C676.89,321.21,675.8,321.47,675,321.61ZM628,309q-2.32-5.27-5-11.66t-5.44-12.87c-.48-1.25-.93-2.59-1.35-4.05a7,7,0,0,1,0-4.18,2.23,2.23,0,0,1,1.41-1.59,3.17,3.17,0,0,1,1.63-.33c1.63-.16,3.47-.36,5.51-.62s4.15-.56,6.31-.9,4.32-.74,6.46-1.18,4.14-.93,6-1.45a7.57,7.57,0,0,0,3.3-1.57,4.4,4.4,0,0,0,1.28-1.81c.38-.87.76-1.36,1.13-1.5a3,3,0,0,1,1.06-.18,1.11,1.11,0,0,1,1.14.79,3.6,3.6,0,0,1,.28,1.65,10.33,10.33,0,0,1-.36,1.9,9.74,9.74,0,0,1-1.5,2.8,4,4,0,0,1-1.21,1.06,12.66,12.66,0,0,1-1.69.84,17,17,0,0,1-1.73.6,13.27,13.27,0,0,1-1.44.35q-8.52,1.89-14.1,2.72l-9.74,1.45,1,2.91q2.36,6.15,5,12.51t5.34,12a19.62,19.62,0,0,0,1.51,2.67c.58.86,1.07,1.66,1.46,2.38a6.31,6.31,0,0,0,.45.82,5.09,5.09,0,0,1,.46,1,1.72,1.72,0,0,1,.12.92.81.81,0,0,1-.55.59,2,2,0,0,1-1.48-.23,8.15,8.15,0,0,1-1.87-1.27A14.52,14.52,0,0,1,628,309Zm32.85-11.82q-1.17-5.57-3-12.75c-1.23-4.79-2.29-9.66-3.15-14.62-.23-1.29-.4-2.63-.51-4a7.08,7.08,0,0,1,.8-4c.71-1.25,1.38-1.78,2-1.6s1,.78,1,1.77l.49,6.18a109.88,109.88,0,0,0,2.49,13.1q1.57,6.18,3.14,12.28a19,19,0,0,0,1,3,12.92,12.92,0,0,1,.88,2.74,2.4,2.4,0,0,1-.19,1.47,1.61,1.61,0,0,1-1.29.87,2.26,2.26,0,0,1-2-.63A8.29,8.29,0,0,1,660.85,297.22Z"/><path class="cls-1" d="M595.85,401.71c.09-1.9.22-3.77.37-5.63s.32-3.75.48-5.67.37-3.9.61-5.94.5-4.24.78-6.57q.3-2.53.66-4.71a11.59,11.59,0,0,1,.88-3.2,3.48,3.48,0,0,1,1.22-1.19,3.92,3.92,0,0,1,2.69-.22l4.16.69c1.17.21,2.18.36,3.06.46a21.21,21.21,0,0,0,2.3.18l2.06,0a9.2,9.2,0,0,0,3.28-.6,4.5,4.5,0,0,0,1.71-1.47c.62-.78,1.13-1.18,1.52-1.2a3,3,0,0,1,1.07.12,1.16,1.16,0,0,1,1,1.11,3.6,3.6,0,0,1-.2,1.65,10.14,10.14,0,0,1-1,1.85,9.28,9.28,0,0,1-2.34,2.29,4.72,4.72,0,0,1-3,1c-1.29,0-2.32,0-3.11,0l-2-.08c-.59,0-1.22-.1-1.91-.18s-1.5-.21-2.47-.39-2.22-.4-3.77-.65a1,1,0,0,0-.88.34,5.71,5.71,0,0,0-.81,2.22q-.79,6.72-1.52,14.08t-1.09,13.64a22.77,22.77,0,0,0,.13,2.29,7.42,7.42,0,0,1,0,1.87,4.24,4.24,0,0,1-.42,1.43,1.14,1.14,0,0,1-1.29.54c-.78-.1-1.35-1-1.71-2.63A20.26,20.26,0,0,1,595.85,401.71Zm73.83,12.35c-1.17-.14-2.58-.29-4.24-.46l-5.46-.55-6.34-.65q-3.36-.36-6.77-.76a66.2,66.2,0,0,0-.49,6.65c.06.6.15,1.32.28,2.16a7.25,7.25,0,0,1-.71,4.35,2,2,0,0,1-1.68,1.23,1.84,1.84,0,0,1-1.44-.32,2.08,2.08,0,0,1-.62-1.06,4.66,4.66,0,0,1-.13-1.34c0-.46,0-.89.1-1.28.08-1.76.16-3.55.24-5.35a37.68,37.68,0,0,1,.66-5.49q-6.23-.75-11.77-1.46c-3.69-.47-6.67-.9-8.92-1.3a24,24,0,0,1-2.68-.72c-1-.31-1.84-.65-2.65-1a9.79,9.79,0,0,1-2-1.18,1.92,1.92,0,0,1-.85-1.14q0-.5.78-.75a9.85,9.85,0,0,1,2.16-.33c.9-.06,1.9-.07,3,0s2.22.12,3.32.25q1.93.33,5.63.82c2.46.32,5.22.67,8.27,1l9.63,1.15c3.37.4,6.64.76,9.79,1.07l8.68.84c2.64.24,4.74.39,6.32.45a4.32,4.32,0,0,0,2.56-.39,6.54,6.54,0,0,0,1.78-1.26,12.19,12.19,0,0,0,1.42-2c1-1.33,1.84-2,2.49-1.88a1.33,1.33,0,0,1,1.17,1,3.4,3.4,0,0,1,0,2,18.08,18.08,0,0,1-2.09,3.84,17,17,0,0,1-2.65,2.8,4.51,4.51,0,0,1-3.41,1.27C671.63,414.23,670.52,414.16,669.68,414.06Zm-9.62-38.55a1.71,1.71,0,0,1,.24,2.1,2.17,2.17,0,0,1-2.22.43,5,5,0,0,1-.61,1.8,17.57,17.57,0,0,1-5.44,6.7,14.45,14.45,0,0,1-14,.46,13.43,13.43,0,0,1-4.25-3.62,14.13,14.13,0,0,1-2.46-5.08,15.61,15.61,0,0,1-.38-5.87,16.47,16.47,0,0,1,1.5-5.15,15,15,0,0,1,3.14-4.41,13.51,13.51,0,0,1,4.59-2.91,11.92,11.92,0,0,1,5.75-.65,13.63,13.63,0,0,1,9,4.33,18.87,18.87,0,0,1,4.15,9.48,6.23,6.23,0,0,0,.29,1.32A3.15,3.15,0,0,0,660.06,375.51Zm-5.91,1.56a3.53,3.53,0,0,1,1.36-1.51c-.1-.28-.19-.57-.29-.87s-.18-.67-.27-1.07q-1.1-4.87-3.21-7a10.49,10.49,0,0,0-6.4-2.64,8.72,8.72,0,0,0-7.09,2,10.42,10.42,0,0,0-3.33,6.86c-.4,3.31.2,5.86,1.8,7.67s4,2.89,7.16,3.27a11.79,11.79,0,0,0,3.81-.09,6.82,6.82,0,0,0,2.72-1.26,8.69,8.69,0,0,0,2-2.28C653,379.2,653.55,378.19,654.15,377.07Zm8.42,12.16q.13-2.85.5-6.7t.71-7.57c.22-2.47.44-4.7.64-6.68s.35-3.33.44-4a26.66,26.66,0,0,1,.76-4,7.76,7.76,0,0,1,2-3.41c1-1.06,1.83-1.41,2.34-1.06s.69,1,.51,2l-1.68,5.82c-.06.45-.2,1.57-.45,3.35s-.49,3.85-.74,6.23-.48,4.84-.69,7.42-.37,4.9-.49,7a13.73,13.73,0,0,0,.28,2.65,7.1,7.1,0,0,1,.12,2.34,2.66,2.66,0,0,1-.56,1.36,1.6,1.6,0,0,1-1.54.46,2.19,2.19,0,0,1-1.73-1.15C662.59,392.6,662.46,391.26,662.57,389.23Zm9.49-5.09a38.6,38.6,0,0,1,.25-6.24,52.18,52.18,0,0,1,1.15-6.32,12.23,12.23,0,0,1,1.21-3.12,6.42,6.42,0,0,1,2.3-2.39,2.79,2.79,0,0,1,2.75-.26,1.13,1.13,0,0,1,.44,1.73L677.75,372a23.88,23.88,0,0,0-1.54,5.84,37.68,37.68,0,0,0-.41,4.69c0,.72,0,1.24,0,1.58s0,.76.05,1.28a2.36,2.36,0,0,1-.76,1.84,1.71,1.71,0,0,1-1.66.25,1.44,1.44,0,0,1-1-1.06A9.71,9.71,0,0,1,672.06,384.14Z"/><path class="cls-1" d="M592.53,491a2.41,2.41,0,0,1,.17,1.22,1.45,1.45,0,0,1-.87,1.08,2.42,2.42,0,0,1-2.39-.52,2.43,2.43,0,0,0-.44.6l-.31.55q-4.5,4.57-8.73,5.45t-9.7-1.56a13.05,13.05,0,0,1-5.14-3.87,13.89,13.89,0,0,1-2.61-5.33,14.56,14.56,0,0,1-.13-6.11,20.18,20.18,0,0,1,2.17-6.12,22.67,22.67,0,0,1,3.49-4.74,15.76,15.76,0,0,1,4.75-3.49,13.5,13.5,0,0,1,5.77-1.26,13.08,13.08,0,0,1,6.62,2,15.76,15.76,0,0,1,7.19,7.89q1.77,4.71.08,11.49c-.08.55-.15,1-.2,1.4A2.22,2.22,0,0,0,592.53,491Zm-5.84-1a4,4,0,0,1,.7-.67c.26-.2.5-.38.74-.54a2.29,2.29,0,0,1,.17-.81,3.92,3.92,0,0,0,.2-.89,17.88,17.88,0,0,0,.56-5,9,9,0,0,0-3.25-6.63,19.05,19.05,0,0,0-3.33-2.27,10.84,10.84,0,0,0-4.58-1.44,8.8,8.8,0,0,0-4,.66,9.93,9.93,0,0,0-3.27,2.3,16.21,16.21,0,0,0-2.47,3.39q-2.67,4.9-1.64,8.93t5.69,6.35a14.43,14.43,0,0,0,4.49,1.5,8.4,8.4,0,0,0,3.71-.26,10,10,0,0,0,3.24-1.74A22.54,22.54,0,0,0,586.69,490.06Zm34.2,42.26c-2.07-1.13-4.45-2.42-7.16-3.86s-5.52-3-8.41-4.54-5.75-3.16-8.58-4.74-5.32-3-7.49-4.37a22.82,22.82,0,0,1-2.22-1.66c-.77-.65-1.46-1.29-2.08-1.92a10.13,10.13,0,0,1-1.45-1.85,1.9,1.9,0,0,1-.36-1.38c.1-.31.43-.45,1-.4a9.88,9.88,0,0,1,2.13.5c.85.28,1.79.64,2.81,1.09s2,.93,3,1.46q2.26,1.37,6,3.49t8.08,4.53a60,60,0,0,1,2.42-5.55c1-2,1.93-3.91,2.82-5.67l-4.65-2.53q-2.31-1.28-4.77-2.72a14.23,14.23,0,0,1-2.26-1.57c-.77-.65-1.46-1.29-2.08-1.92a11.47,11.47,0,0,1-1.47-1.81,1.73,1.73,0,0,1-.39-1.33c.1-.32.44-.47,1-.44a8,8,0,0,1,2.16.45c.85.28,1.79.64,2.81,1.09s2,.93,3,1.46q2.53,1.5,5.59,3.17c2,1.11,4.16,2.23,6.37,3.37s4.47,2.27,6.78,3.42,4.57,2.3,6.78,3.43a4.92,4.92,0,0,0,2.61.53,8.75,8.75,0,0,0,2.17-.49,12.57,12.57,0,0,0,2-1.24,8.17,8.17,0,0,1,1.78-.81,1.6,1.6,0,0,1,1.23,0,1.33,1.33,0,0,1,.65,1.36,2.64,2.64,0,0,1-.81,1.79,20,20,0,0,1-3.32,2.82,15.53,15.53,0,0,1-3.46,1.63,4.4,4.4,0,0,1-3.66-.16c-1.28-.59-2.26-1.07-3-1.44q-2.93-1.6-5.85-3.09t-5.77-3q-1.23,2.46-2.7,5.56t-2.53,5.65q4.22,2.31,8.22,4.38c2.66,1.38,5,2.52,6.85,3.41a4.42,4.42,0,0,0,2.52.6,6.66,6.66,0,0,0,2.12-.52,11.9,11.9,0,0,0,2.07-1.33q2.19-1.36,3.06-.9a1.34,1.34,0,0,1,.67,1.43,3.49,3.49,0,0,1-.79,1.86,17,17,0,0,1-3.35,2.75,17.57,17.57,0,0,1-3.48,1.56,4.43,4.43,0,0,1-3.63-.09C622.64,533.2,621.63,532.72,620.89,532.32Zm9.54-47.5a1.72,1.72,0,0,1-.56,2,1.35,1.35,0,0,1-1,.12,2.67,2.67,0,0,1-1.12-.5,8.88,8.88,0,0,0-.58.74,2.52,2.52,0,0,1-.61.61q-7.66,6.66-14.71,2.8-5.94-3.24-7-8.24A14.87,14.87,0,0,1,606.73,472a17.84,17.84,0,0,1,3.09-4.12,12.76,12.76,0,0,1,4.07-2.74,11.32,11.32,0,0,1,4.83-.88,13.86,13.86,0,0,1,11.5,8.18q1.44,4,.17,9.81a5.81,5.81,0,0,0-.22,1.33A3,3,0,0,0,630.43,484.82Zm-5.94-.79a5.62,5.62,0,0,1,.81-.56,2.68,2.68,0,0,1,.89-.3c0-.29,0-.6,0-.92s.08-.68.15-1.09q.75-4.85-.48-7.18a9.56,9.56,0,0,0-4.07-3.9,7.91,7.91,0,0,0-6.27-.69,8.64,8.64,0,0,0-5.18,4.48,9.51,9.51,0,0,0-1.28,6.95q.78,3.17,4.65,5.28a7.59,7.59,0,0,0,5.27,1A12.78,12.78,0,0,0,624.49,484Zm3.85,13.39q1.2-2.6,2.8-5.73l3.14-6.16c1-2,2-3.81,2.79-5.4s1.42-2.71,1.76-3.34a29.08,29.08,0,0,1,2.21-3.43,7.89,7.89,0,0,1,3.14-2.47c1.33-.54,2.19-.53,2.56,0s.27,1.21-.31,2l-3.73,4.78c-.21.4-.72,1.28-1.5,2.64s-1.67,3-2.67,4.9-2,3.93-3.1,6.07-2,4.16-2.92,6.06a15.1,15.1,0,0,0-.75,2.6,7,7,0,0,1-.74,2.17,3,3,0,0,1-1,1.1,1.55,1.55,0,0,1-1.62-.1,2.17,2.17,0,0,1-1.17-1.75A8.86,8.86,0,0,1,628.34,497.42ZM638.7,496a42.57,42.57,0,0,1,2.17-4.79,47.2,47.2,0,0,1,3-4.58,13.86,13.86,0,0,1,2.24-2.47,6.07,6.07,0,0,1,3-1.38,2.78,2.78,0,0,1,2.65.78,1.13,1.13,0,0,1-.24,1.77l-3.89,3.23a20.73,20.73,0,0,0-3.13,4,25.67,25.67,0,0,0-1.66,3.34q-.39,1.13-.51,1.56c-.09.28-.23.67-.42,1.16a2.38,2.38,0,0,1-1.48,1.49,1.8,1.8,0,0,1-1.67-.42,1.44,1.44,0,0,1-.48-1.37A11.35,11.35,0,0,1,638.7,496Z"/><path class="cls-1" d="M525.49,558.07c-.37-.46-.8-1-1.29-1.49s-1.14-1.21-2-2-1.85-1.87-3.05-3.12-2.66-2.81-4.37-4.71a19.22,19.22,0,0,1-1.6-2.14,22.42,22.42,0,0,1-1.28-2.25,8.55,8.55,0,0,1-.7-1.94,1.74,1.74,0,0,1,.11-1.29c.41-.6,1.29-.5,2.63.28a22,22,0,0,1,4.72,4.15,25.18,25.18,0,0,0,2.15,2.5c.92,1,1.87,1.94,2.84,2.91l2.74,2.73,2,2,20.29-21.56c.93-.92,1.93-1.84,3-2.74a7.21,7.21,0,0,1,3.7-1.63c1.43-.14,2.25.1,2.46.73s-.08,1.23-.86,1.83l-4.78,4q-2.43,2.57-5.16,5.37c-1.82,1.87-3.63,3.72-5.4,5.55s-3.5,3.61-5.16,5.37-3.19,3.42-4.57,5L529.64,559a2.2,2.2,0,0,1-2.21.49A5.13,5.13,0,0,1,525.49,558.07Zm2.57,14.07q1.11-1.39,4.05-4.54t6.82-7.18q3.89-4,8.31-8.53c3-3,5.79-5.87,8.52-8.6l7.44-7.45q3.36-3.36,5.16-5a30.45,30.45,0,0,1,3.09-2.67,7.76,7.76,0,0,1,3.77-1.56q2.14-.21,2.46.66c.21.57-.1,1.19-.93,1.83L572,532.89c-.65.55-1.6,1.41-2.84,2.56s-2.66,2.52-4.23,4.09l-5.19,5.2-5.82,5.83c1.07,1.24,2.29,2.58,3.68,4a47.85,47.85,0,0,0,4.3,3.94l5.54-5.54c.87-.79,1.71-1.51,2.49-2.15a9.49,9.49,0,0,1,1.94-1.32,3,3,0,0,1,1.59-.14,5.22,5.22,0,0,1,2.36,1.45q1.25,1.24,3.12,2.91l3.75,3.32q1.86,1.66,3.57,3.09a32.73,32.73,0,0,0,2.87,2.18,10.86,10.86,0,0,0,3.3,1.55,4.15,4.15,0,0,0,2.18,0,2.65,2.65,0,0,1,1.94,0,2.89,2.89,0,0,1,.76.76,1.13,1.13,0,0,1,0,1.42,3.88,3.88,0,0,1-1.21,1.21,10.93,10.93,0,0,1-1.87.84,9.05,9.05,0,0,1-3.19.34,5.55,5.55,0,0,1-3.16-1.14l-2.6-1.83-2.28-1.87q-2.15,2.15-4.68,4.75c-1.68,1.73-3.37,3.49-5,5.27l-4.92,5.2q-2.38,2.52-4.26,4.68c1.34,1.34,2.89,2.74,4.65,4.22a7.37,7.37,0,0,0,3.05,1.73,3.37,3.37,0,0,0,2.08-.07,2.54,2.54,0,0,1,2,0,2.1,2.1,0,0,1,.73.86,1.1,1.1,0,0,1,0,1.46,4.35,4.35,0,0,1-1.25,1.18,9.58,9.58,0,0,1-1.83.79,9.27,9.27,0,0,1-3.15.32,4,4,0,0,1-1.53-.35,8.47,8.47,0,0,1-1.56-.86c-.49-.35-1-.71-1.42-1.08s-.86-.67-1.18-.9a38.48,38.48,0,0,1-3.29-3.08q-1.77-1.83-3.57-3.84t-3.58-4.05l-3.29-3.85a6.41,6.41,0,0,1-1.39-3,2.09,2.09,0,0,1,.62-1.94,1.37,1.37,0,0,1,1.39-.41,1,1,0,0,0,.21-.35.78.78,0,0,1,.21-.35,20.59,20.59,0,0,1,2.45-3.43q1.64-1.9,3.57-4-2.22-1.93-4.37-4.08c-1.43-1.43-2.66-2.75-3.67-3.95l-5.75,6c-1.89,2-3.65,3.84-5.26,5.55s-3,3.24-4.3,4.58-2.21,2.4-2.91,3.19a8.72,8.72,0,0,0-1.21,2,4.64,4.64,0,0,1-1.07,1.56,2.63,2.63,0,0,1-1.35.73,1.56,1.56,0,0,1-1.49-.52,2.24,2.24,0,0,1-.66-2A8.17,8.17,0,0,1,528.06,572.14Zm26.33.67,3.44,4q1.7,2,3.57,4c1.24-1.34,2.65-2.85,4.22-4.51l4.85-5.13,4.95-5.24c1.64-1.73,3.15-3.34,4.53-4.81q-2-1.74-3.77-3.43c-1.18-1.13-2.23-2.07-3.16-2.81a1.75,1.75,0,0,0-1-.27,4.46,4.46,0,0,0-2,1.18l-3.39,3.39c-1.39,1.39-2.78,2.83-4.19,4.34s-2.76,2.94-4.05,4.33a37.4,37.4,0,0,0-3,3.54Z"/><path class="cls-1" d="M440.82,627.79q1.53-.91,5.4-2.82t8.9-4.34q5-2.43,10.77-5.08t11-5l9.6-4.33q4.33-2,6.61-2.88a29.07,29.07,0,0,1,3.82-1.4,7.89,7.89,0,0,1,4.09-.13c1.39.38,2.08.89,2.09,1.53s-.5,1.12-1.51,1.43l-5.86,1.79c-.74.26-1.82.68-3.25,1.25s-3.06,1.28-4.91,2.11l-6.12,2.77-6.92,3.12c.92,1.88,1.83,3.76,2.72,5.66s1.66,3.4,2.32,4.54a7.67,7.67,0,0,0,2.33,2.77,4.43,4.43,0,0,0,2.09.83c.93.15,1.5.38,1.7.68a2.75,2.75,0,0,1,.43.94,1.15,1.15,0,0,1-.45,1.38,3.65,3.65,0,0,1-1.52.69,15.19,15.19,0,0,1-2.24.15,10.32,10.32,0,0,1-3.35-.64,5,5,0,0,1-2.46-2.33c-.68-1.2-1.23-2.17-1.64-2.92q-1.12-2.28-2.24-4.84t-2.15-4.89q-4.2,1.89-8.31,3.86l-7.65,3.67c-2.35,1.13-4.45,2.17-6.28,3.11s-3.26,1.7-4.28,2.3a11.73,11.73,0,0,0-1.86,1.38,5.22,5.22,0,0,1-1.57,1,2.88,2.88,0,0,1-1.5.25,1.52,1.52,0,0,1-1.23-1.06,2.18,2.18,0,0,1,.12-2.1A8.92,8.92,0,0,1,440.82,627.79Zm22.95-19.19a2.68,2.68,0,0,1-.74,1.09,1.74,1.74,0,0,1-1.42.32,1.23,1.23,0,0,1-.95-.43,4.7,4.7,0,0,1-.74-1.17l-1.55.37q-6.93,1.1-11.12-.94t-7.39-7.9a14.27,14.27,0,0,1-.6-13.23,17.05,17.05,0,0,1,4-5.34,22.13,22.13,0,0,1,6-4,26.89,26.89,0,0,1,6.32-1.95,17.64,17.64,0,0,1,6.56,0,14.06,14.06,0,0,1,6,2.73,14.86,14.86,0,0,1,4.51,6.19,16,16,0,0,1,.78,11.48q-1.78,5.32-7.86,10.21l-1.12,1.1A2.39,2.39,0,0,0,463.77,608.6Zm-4.88-4.14a4.55,4.55,0,0,1,.94.06,4.81,4.81,0,0,0,.85.1c.25-.25.54-.53.87-.82s.79-.68,1.36-1.15q5.13-4.14,6-8a13,13,0,0,0-1.16-8.4,10.9,10.9,0,0,0-3.19-4.31,9.78,9.78,0,0,0-4.13-1.9,12.42,12.42,0,0,0-4.63,0,19.71,19.71,0,0,0-4.53,1.4q-5.62,2.55-7.63,6.68t.55,9.32a16.18,16.18,0,0,0,3,4.37,10.52,10.52,0,0,0,3.35,2.3,9.53,9.53,0,0,0,3.87.72A35.66,35.66,0,0,0,458.89,604.46Zm4.57,51.06a55.35,55.35,0,0,0-2.49-5.75A67.17,67.17,0,0,1,457,638.21a24.83,24.83,0,0,1-.4-2.67,13.56,13.56,0,0,1-.05-2.61,10.23,10.23,0,0,1,.34-2.1,1.56,1.56,0,0,1,.7-1.06c.6-.27,1.31.27,2.13,1.61a21.84,21.84,0,0,1,2.19,5.79,28,28,0,0,0,1,3.51q.79,2.22,1.71,4.5c.61,1.51,1.21,3,1.78,4.3s1,2.33,1.27,2.92l25.45-12.68c1.2-.54,2.46-1,3.79-1.49A7.17,7.17,0,0,1,501,638c1.39.38,2.07.89,2,1.55s-.51,1.13-1.46,1.41l-5.87,2q-6.44,3.12-13.16,6.32t-12.29,6.14l-3.38,2.5a2.15,2.15,0,0,1-2.16-.37A5.2,5.2,0,0,1,463.46,655.52Z"/><path class="cls-1" d="M369.75,675.9q-.83-6.71-1.8-13.4t-1.88-13.29a41.17,41.17,0,0,0-7.63,1.35c-.56.21-1.23.48-2,.82a6.75,6.75,0,0,1-2.25.56,6.42,6.42,0,0,1-2.15-.15,2,2,0,0,1-1.61-1.31,1.92,1.92,0,0,1-.06-1.48,2,2,0,0,1,.87-.86,4.88,4.88,0,0,1,1.27-.48c.45-.09.87-.16,1.26-.22q2.78-.68,5.71-1.23a56,56,0,0,1,6.08-.79q-1.33-8.92-2.37-17.53t-1.61-16.35a23.35,23.35,0,0,1,0-2.77,26,26,0,0,1,.31-2.81,10.74,10.74,0,0,1,.58-2.26c.24-.63.52-1,.83-1.1s.64.08,1,.56a8,8,0,0,1,.92,2c.28.85.55,1.82.8,2.9s.44,2.18.6,3.29q.53,6.64,1.5,15.17t2.2,17.41q1.23,8.88,2.5,17.41t2.5,15.28a4.54,4.54,0,0,0,1,2.39,6.79,6.79,0,0,0,1.68,1.4,11.89,11.89,0,0,0,2.3.87,7.89,7.89,0,0,1,1.71,1,1.61,1.61,0,0,1,.73,1,1.32,1.32,0,0,1-.7,1.39,3.25,3.25,0,0,1-1.91.46,17.7,17.7,0,0,1-4.25-1,16.56,16.56,0,0,1-3.38-1.86,4.51,4.51,0,0,1-2.09-3C370.09,677.84,369.87,676.74,369.75,675.9Zm23.52-14.52a2.15,2.15,0,0,1-2.06-1,4.39,4.39,0,0,1-.57-2.3,30.2,30.2,0,0,1,2.16-10.14,62.76,62.76,0,0,1,5.29-10.47q-2.19-2.26-4.73-4.49a53.33,53.33,0,0,0-5.26-4.08,47,47,0,0,0-5.38-3.16,17.57,17.57,0,0,0-5-1.69,3.75,3.75,0,0,1-2.09-.8,2.05,2.05,0,0,1-.54-1,1.25,1.25,0,0,1,.55-1.07,3.56,3.56,0,0,1,1.26-.52,9.59,9.59,0,0,1,1.61-.17,8.8,8.8,0,0,1,1.59.08,18.42,18.42,0,0,1,5.42,1.62,39.54,39.54,0,0,1,5.48,3.11,60,60,0,0,1,5.19,3.93c1.68,1.42,3.21,2.82,4.59,4.22a97,97,0,0,1,9.31-11,66.13,66.13,0,0,1,9-7.82,7,7,0,0,1,1-.69l.8-.35q.66-.19.9.12a1,1,0,0,1,.16.82,3.51,3.51,0,0,1-.43,1.15,5.46,5.46,0,0,1-.79,1.09q-3.06,2.89-7,7.1a85.23,85.23,0,0,0-7.56,9.4,78.9,78.9,0,0,0-6.44,11,39.71,39.71,0,0,0-3.64,12l17-3.83q1.93-.27,4.05-.36a6.82,6.82,0,0,1,4,1q1.83,1.13,1.56,2t-1.86.9l-6.09.25c-1.11.15-2.41.38-3.92.68s-3.06.64-4.66,1L401.4,659c-1.57.35-3,.68-4.17,1Zm10.52,3.1a39.93,39.93,0,0,1,8.7-.8,24,24,0,0,1,3.36.37,5.59,5.59,0,0,1,2.93,1.53,2.77,2.77,0,0,1,1,2.59c-.22.79-.77,1.08-1.66.87l-4.9-1.1a13.82,13.82,0,0,0-3.1-.27c-1.12,0-2.22.08-3.29.16a29.48,29.48,0,0,0-3,.36c-.9.16-1.61.3-2.12.44l-1.51.5c-.31.11-.73.24-1.24.37a2.37,2.37,0,0,1-2.07-.31,1.79,1.79,0,0,1-.66-1.59,1.34,1.34,0,0,1,.83-1.15,14.8,14.8,0,0,1,2.15-.94,20.74,20.74,0,0,1,2.24-.6C402.23,664.73,403,664.59,403.79,664.48Z"/><path class="cls-1" d="M288.18,639c1.89.19,3.53.37,4.93.54s2.82.36,4.28.58l4.7.7q2.52.38,6.19,1c1.29.22,2.61.51,4,.88a7.09,7.09,0,0,1,3.47,2.08c1,1.09,1.31,1.91.93,2.44s-1.09.64-2.1.34l-5.89-1.6q-4-.88-8.82-1.64t-11.05-1.34a10.9,10.9,0,0,0-2.31.11,5.18,5.18,0,0,1-1.88,0,2.91,2.91,0,0,1-1.39-.64,1.55,1.55,0,0,1-.43-1.56,2.18,2.18,0,0,1,1.28-1.67A8.85,8.85,0,0,1,288.18,639Z"/><path class="cls-1" d="M183.23,630.45a53.74,53.74,0,0,0,2.93-5.55,68.28,68.28,0,0,1,6.54-10.31q.84-1,1.83-2a15.84,15.84,0,0,1,2-1.68,10.51,10.51,0,0,1,1.84-1,1.58,1.58,0,0,1,1.28-.12c.58.29.6,1.19.07,2.67a21.43,21.43,0,0,1-3.14,5.33,27.55,27.55,0,0,0-2.08,3c-.83,1.34-1.64,2.73-2.43,4.15s-1.55,2.79-2.24,4.09-1.19,2.23-1.49,2.82l25.84,11.89c1.16.59,2.34,1.26,3.54,2a7.2,7.2,0,0,1,2.7,3c.57,1.32.6,2.18.07,2.57s-1.2.3-2-.26l-5.24-3.31q-6.47-3.06-13.17-6.3t-12.48-5.73l-4.07-1.07a2.14,2.14,0,0,1-1.07-1.91A5.17,5.17,0,0,1,183.23,630.45Zm7.44-35c1.1.41,3,1.23,5.57,2.44s5.59,2.62,9,4.22,6.94,3.33,10.71,5.21,7.38,3.69,10.81,5.43l9.4,4.76c2.83,1.44,4.95,2.55,6.38,3.35a28.58,28.58,0,0,1,3.49,2.1,7.91,7.91,0,0,1,2.66,3.11c.58,1.31.62,2.18.12,2.58s-1.19.32-2.06-.27l-5.07-3.45c-.67-.41-1.67-1-3-1.75s-2.91-1.59-4.72-2.5l-6-3-6.77-3.43q-1.34,2.84-2.71,5.66c-.91,1.88-1.61,3.43-2.08,4.65a7.74,7.74,0,0,0-.7,3.55,4.4,4.4,0,0,0,.67,2.15,2.66,2.66,0,0,1,.53,1.76,2.69,2.69,0,0,1-.46.91,1.15,1.15,0,0,1-1.36.52,3.62,3.62,0,0,1-1.49-.75A14,14,0,0,1,212,631a10.55,10.55,0,0,1-1.61-3,5,5,0,0,1,.28-3.38c.51-1.28.92-2.32,1.25-3.1.71-1.55,1.5-3.14,2.37-4.79s1.69-3.23,2.46-4.74q-4.11-2.09-8.22-4.06l-7.65-3.66c-2.35-1.12-4.48-2.1-6.36-3s-3.37-1.47-4.48-1.89a11,11,0,0,0-2.23-.58,5.17,5.17,0,0,1-1.79-.58,2.85,2.85,0,0,1-1.14-1,1.55,1.55,0,0,1,.06-1.62,2.15,2.15,0,0,1,1.71-1.22A8.89,8.89,0,0,1,190.67,595.43ZM220,601.3a2.83,2.83,0,0,1-1.32.1,1.71,1.71,0,0,1-1.13-.91,1.2,1.2,0,0,1-.26-1,4.25,4.25,0,0,1,.45-1.31l-1.27-1q-5.19-4.73-6.24-9.26t1.53-10.71a14.23,14.23,0,0,1,9.94-8.75,17,17,0,0,1,6.66-.25,22.49,22.49,0,0,1,6.85,2.21,26.86,26.86,0,0,1,5.48,3.71,18.15,18.15,0,0,1,4.11,5.11,14.2,14.2,0,0,1,1.61,6.36,14.87,14.87,0,0,1-2,7.4,15.93,15.93,0,0,1-8.46,7.8q-5.26,1.93-12.88.27l-1.56-.18A2.34,2.34,0,0,0,220,601.3Zm.16-6.4a3.57,3.57,0,0,1,.55.77,5.41,5.41,0,0,0,.45.72c.36,0,.75.09,1.19.16l1.75.34q6.43,1.4,10-.31a13,13,0,0,0,5.82-6.17,11,11,0,0,0,1.37-5.19,9.87,9.87,0,0,0-1.12-4.41,12.25,12.25,0,0,0-2.89-3.61,19.23,19.23,0,0,0-3.93-2.65q-5.51-2.79-10-1.77t-6.92,6.27a16.33,16.33,0,0,0-1.56,5,10.56,10.56,0,0,0,.31,4,9.39,9.39,0,0,0,1.86,3.47A35.84,35.84,0,0,0,220.16,594.9Z"/><path class="cls-1" d="M117.52,580.23q4.38,3.64,9.62,8.15t10.71,9.56a40.09,40.09,0,0,1,2.89,2.94,6.77,6.77,0,0,1,1.68,3.67c.24,1.47.06,2.31-.53,2.52s-1.2-.07-1.83-.83l-4.14-4.62q-5-5-10-9.41t-10-8.31a8.29,8.29,0,0,0-2-1.13,4.89,4.89,0,0,1-1.6-1,2.77,2.77,0,0,1-.78-1.32,1.69,1.69,0,0,1,.53-1.59,2.17,2.17,0,0,1,2-.66A8.19,8.19,0,0,1,117.52,580.23Zm10.84-36.15c1,.7,2.52,2,4.7,3.87s4.67,4,7.47,6.5,5.76,5.1,8.88,7.94,6.09,5.56,8.92,8.17l7.74,7.15c2.33,2.15,4.07,3.81,5.23,5a29.68,29.68,0,0,1,2.79,3,7.42,7.42,0,0,1,1.64,3.78c.19,1.43,0,2.25-.56,2.48s-1.19,0-1.87-.86l-3.94-4.7c-.82-.93-2.27-2.39-4.37-4.37s-4.51-4.23-7.27-6.78-5.7-5.24-8.81-8.08-6.12-5.53-9-8.1-5.49-4.86-7.86-6.87-4.15-3.47-5.34-4.4a9.21,9.21,0,0,0-2-1.13,4.53,4.53,0,0,1-1.61-1,2.73,2.73,0,0,1-.78-1.32,1.67,1.67,0,0,1,.53-1.58,2.21,2.21,0,0,1,2-.67A8.3,8.3,0,0,1,128.36,544.08Zm3.35,19.64q4.38,3.63,9,7.61t9.78,8.84q1.88,1.73,3,3a7.56,7.56,0,0,1,1.55,2.29,3.33,3.33,0,0,1,.31,1.76,3.86,3.86,0,0,1-1.4,2.31c-1.15,1.16-2.09,2.07-2.8,2.75s-1.27,1.23-1.67,1.66-.7.79-.93,1.07-.43.6-.65.93a9.35,9.35,0,0,0-1.45,2.8,4.59,4.59,0,0,0,.06,2.32,4,4,0,0,1,.19,1.31,2.18,2.18,0,0,1-.25.77,1.27,1.27,0,0,1-.8.73,1.57,1.57,0,0,1-1.33-.16,4.1,4.1,0,0,1-1.75-2.15,10,10,0,0,1-.61-3.09,5.33,5.33,0,0,1,.59-2.73c.43-.8.86-1.54,1.3-2.2.83-1.1,1.74-2.18,2.71-3.23s2-2.09,3-3.1a3.64,3.64,0,0,0,.65-1.14c.21-.52,0-1.06-.76-1.63q-2.45-2.27-5.21-4.75c-1.85-1.67-3.72-3.32-5.61-5s-3.76-3.27-5.6-4.84-3.58-3-5.2-4.34a22.43,22.43,0,0,0-1.92-1.24,7.28,7.28,0,0,1-1.5-1.12,4.29,4.29,0,0,1-.92-1.18c-.22-.43-.09-.91.39-1.43s1.51-.46,3.07.22A20.79,20.79,0,0,1,131.71,563.72Zm24.63-31.15q2.22,1.78,4.95,4.17t5.75,5q3,2.58,6,5.3t5.76,5.25l.14.14c1-1.24,2.13-2.6,3.48-4.06s2.66-2.77,3.9-3.93a.84.84,0,0,0,.15-.81,7.12,7.12,0,0,0-1.44-2c-1.63-1.5-3.41-3.11-5.35-4.81s-3.92-3.42-5.93-5.14-4-3.38-5.88-5-3.68-3-5.31-4.37c-.81-.56-1.45-1-1.92-1.24a7.45,7.45,0,0,1-1.5-1.12,4.21,4.21,0,0,1-.91-1.17q-.34-.64.39-1.44c.53-.58,1.56-.51,3.09.19a21.81,21.81,0,0,1,4.66,3q4.38,3.65,9.4,7.74t10.13,9q1.88,1.72,3.43,3.3a9.41,9.41,0,0,1,2,2.66,2.77,2.77,0,0,1,.11,1.9,4.17,4.17,0,0,1-1.27,2.1,55.27,55.27,0,0,0-7.83,8.91,6.78,6.78,0,0,1,1,2.8c.2,1.42,0,2.24-.59,2.45s-1.21-.07-1.84-.83l-4.14-4.62c-1.54-1.6-3.22-3.25-5-4.93s-3.67-3.37-5.54-5.05-3.73-3.3-5.6-4.84-3.61-3-5.23-4.3c-.49.43-1.07,1-1.74,1.66l-2,2.06-1.94,2c-.6.6-1.1,1.12-1.5,1.55l20.2,17.71q1.44,1.34,2.85,2.91a7.12,7.12,0,0,1,1.77,3.64c.2,1.42,0,2.25-.56,2.48s-1.19-.05-1.87-.86l-4.13-4.48q-5.46-4.78-10.32-9.34t-9.74-8.52l-3.62-2.15a2.12,2.12,0,0,1-.5-2.13,5.06,5.06,0,0,1,1.38-2c.44-.39,1-.87,1.54-1.45s1.21-1.19,1.9-1.85,1.38-1.32,2.07-2,1.32-1.31,1.9-1.84a2.76,2.76,0,0,1-.78-1.33,1.68,1.68,0,0,1,.53-1.58,2.2,2.2,0,0,1,1.95-.66A8.19,8.19,0,0,1,156.34,532.57Z"/><path class="cls-1" d="M81.58,525a2.22,2.22,0,0,1-1.38-.6,1.86,1.86,0,0,1-.53-1.45A2.62,2.62,0,0,1,81,521.05a3.52,3.52,0,0,1,2.56-.79.17.17,0,0,0,.27.07,17.82,17.82,0,0,1-1-3,24.78,24.78,0,0,1,.13-9.68c-.56-.05-1-.5-1.38-1.35l-1.46-3.58a14.72,14.72,0,0,0-1.4-2.24c-.69-1-1.48-2-2.38-3.2s-1.84-2.4-2.83-3.67-1.93-2.45-2.8-3.52q-3.73,2.35-7.11,4.44c-2.25,1.39-4.35,2.74-6.3,4.07a4.38,4.38,0,0,0-1.79,1.87,6.66,6.66,0,0,0-.63,2.09,11.37,11.37,0,0,0,.1,2.46,8.42,8.42,0,0,1-.2,1.95,1.68,1.68,0,0,1-.62,1.06,1.34,1.34,0,0,1-1.58-.15,3.24,3.24,0,0,1-1.15-1.53,18.16,18.16,0,0,1-.7-4.32,16.51,16.51,0,0,1,.38-3.84A4.51,4.51,0,0,1,53,495.06c1.11-.82,2-1.45,2.75-1.88q7.2-4.2,14.44-8.61l14.36-8.74q7.11-4.32,13.95-8.26t13.23-7.2c.76-.38,1.6-.75,2.52-1.12a17,17,0,0,1,2.71-.82,13,13,0,0,1,2.33-.31,1.76,1.76,0,0,1,1.34.33c.23.25.18.62-.13,1.11a8.09,8.09,0,0,1-1.48,1.63c-.67.6-1.46,1.22-2.36,1.88s-1.83,1.27-2.78,1.84q-4.52,2.37-10,5.43T92.54,476.8c.78.9,1.61,1.91,2.5,3s1.77,2.22,2.63,3.34,1.67,2.2,2.41,3.24,1.36,2,1.86,2.82a8.83,8.83,0,0,1,1.21,2.77,17.24,17.24,0,0,1,.22,2.66,17.47,17.47,0,0,1,7,3.07,20.26,20.26,0,0,1,5.5,6.12,21.82,21.82,0,0,1,2.56,6.36,18.84,18.84,0,0,1,.35,6.76,15.81,15.81,0,0,1-2.35,6.38,16.3,16.3,0,0,1-5.59,5.24,21.83,21.83,0,0,1-6.67,2.7,19.59,19.59,0,0,1-6.68.29,21.84,21.84,0,0,1-6.36-1.84A21.45,21.45,0,0,1,85.48,526a3.34,3.34,0,0,0-1.81-.74C82.93,525.13,82.24,525.05,81.58,525ZM74.06,487.9q2.3,2.85,4.89,6.15a54.29,54.29,0,0,1,4,5.64A10.93,10.93,0,0,1,84.1,502a7.41,7.41,0,0,1,.27,2.07,14.71,14.71,0,0,1,2.56-3.25,31.12,31.12,0,0,1,3.64-3,18.45,18.45,0,0,1,9.44-3.49l-1-2.17a17.84,17.84,0,0,0-1.53-2.46c-.74-1-1.58-2.19-2.53-3.45s-1.94-2.55-3-3.86-2-2.5-2.89-3.57Zm13.44,30a6.37,6.37,0,0,1-.37,3.77l1.41,1.21q5,4.23,9.94,4.37a18.38,18.38,0,0,0,10-2.88,12.47,12.47,0,0,0,3.79-3.48,11.15,11.15,0,0,0,1.88-4.5,13.36,13.36,0,0,0-.11-5,15.78,15.78,0,0,0-2-5c-2.32-3.86-5.15-6.17-8.49-6.9s-6.74,0-10.2,2.23a17.48,17.48,0,0,0-4.27,3.65,10.67,10.67,0,0,0-2,3.83,12.42,12.42,0,0,0-.36,4.16A32.44,32.44,0,0,0,87.5,517.89Z"/><path class="cls-1" d="M23.69,374.08q8.25-1.23,16.6-2.62l16.58-2.76q8.22-1.36,16-2.47t15-1.76c.84-.07,1.77-.1,2.76-.09a15.93,15.93,0,0,1,2.82.24,14.55,14.55,0,0,1,2.28.57c.63.24,1,.51,1.12.82s-.06.64-.54,1a7.94,7.94,0,0,1-2,1c-.84.3-1.81.59-2.89.86s-2.17.5-3.26.67q-7.53.72-17.39,2.1t-20.09,3.13q.62,2,1.44,4.93t1.56,6q.73,3.06,1.37,5.78c.43,1.82.72,3.25.89,4.28a8.14,8.14,0,0,1,0,3.07,15.66,15.66,0,0,1-.91,2.63,3.55,3.55,0,0,1-.91,1.43,1,1,0,0,1-.91.25,1.45,1.45,0,0,1-.74-.63,2.39,2.39,0,0,1-.36-1.28l0-3.87a31.21,31.21,0,0,0-.65-3.71c-.39-1.83-.87-3.85-1.42-6.08s-1.13-4.45-1.72-6.67-1.1-4.06-1.53-5.51l-12.55,2.21q-6.08,1.08-11.17,2.09a4.42,4.42,0,0,0-2.36,1.08,6.64,6.64,0,0,0-1.37,1.7,12,12,0,0,0-.82,2.32,7.48,7.48,0,0,1-.91,1.73,1.67,1.67,0,0,1-1,.76,1.32,1.32,0,0,1-1.4-.72,3.15,3.15,0,0,1-.5-1.86,17.83,17.83,0,0,1,1-4.27A17.11,17.11,0,0,1,17.5,377a4.53,4.53,0,0,1,2.93-2.16C21.77,374.45,22.86,374.21,23.69,374.08Zm13.78,24.59q1.1,5.58,2.84,12.79t2.95,14.66c.21,1.29.36,2.64.46,4.05a7.16,7.16,0,0,1-.86,4c-.72,1.24-1.4,1.76-2,1.56s-.95-.79-1-1.77l-.4-6.19a113,113,0,0,0-2.3-13.13q-1.5-6.21-3-12.33a17.89,17.89,0,0,0-1-3,12.61,12.61,0,0,1-.83-2.74,2.32,2.32,0,0,1,.21-1.47,1.58,1.58,0,0,1,1.3-.86,2.29,2.29,0,0,1,2,.67C36.5,395.41,37,396.69,37.47,398.67Zm33-11.36q2.25,5.29,4.86,11.73T80.6,412c.46,1.25.9,2.6,1.3,4.06a7.07,7.07,0,0,1-.08,4.18,2.24,2.24,0,0,1-1.43,1.57,3.14,3.14,0,0,1-1.64.31q-2.44.19-5.52.54c-2,.23-4.15.5-6.32.82s-4.33.68-6.48,1.09-4.14.86-6,1.35a7.6,7.6,0,0,0-3.33,1.53,4.39,4.39,0,0,0-1.3,1.8c-.39.86-.78,1.35-1.15,1.47a2.78,2.78,0,0,1-1.07.17,1.11,1.11,0,0,1-1.12-.81,3.68,3.68,0,0,1-.27-1.64,8.69,8.69,0,0,1,1.93-4.68,4.08,4.08,0,0,1,1.23-1,11.57,11.57,0,0,1,1.7-.82c.59-.23,1.17-.42,1.74-.58s1-.26,1.44-.33q8.55-1.77,14.14-2.51l9.76-1.32-1-2.93q-2.3-6.18-4.85-12.57c-1.71-4.25-3.43-8.3-5.17-12.12a19.63,19.63,0,0,0-1.48-2.69c-.57-.87-1-1.67-1.43-2.4a5.55,5.55,0,0,0-.43-.83,5.06,5.06,0,0,1-.45-1,1.79,1.79,0,0,1-.1-.92.8.8,0,0,1,.55-.59,2,2,0,0,1,1.48.26,8.19,8.19,0,0,1,1.85,1.29,14.73,14.73,0,0,1,1.81,2A13.09,13.09,0,0,1,70.48,387.31Z"/><path class="cls-1" d="M30.26,281.72c1.17.16,2.58.33,4.24.51l5.45.63,6.33.75c2.24.26,4.49.55,6.75.85a65.67,65.67,0,0,0,.59-6.65c0-.6-.13-1.31-.25-2.16a6.33,6.33,0,0,1,.06-2.31,6.42,6.42,0,0,1,.71-2,2,2,0,0,1,1.7-1.21,1.94,1.94,0,0,1,1.44.34,2,2,0,0,1,.59,1.07,4.36,4.36,0,0,1,.12,1.35c0,.46-.07.88-.12,1.27-.1,1.77-.21,3.55-.32,5.35a38,38,0,0,1-.73,5.48q6.23.84,11.75,1.62T77.48,288a22.36,22.36,0,0,1,2.66.76,26.22,26.22,0,0,1,2.63,1,9.3,9.3,0,0,1,2,1.21c.53.43.81.81.83,1.14s-.24.58-.79.74a9.49,9.49,0,0,1-2.16.3c-.9.05-1.9.05-3,0s-2.22-.15-3.32-.3q-1.93-.34-5.62-.89c-2.45-.36-5.2-.75-8.25-1.15l-9.61-1.29q-5.06-.66-9.78-1.2l-8.67-1q-3.94-.42-6.3-.54a4.42,4.42,0,0,0-2.57.35,6.62,6.62,0,0,0-1.8,1.24,11.74,11.74,0,0,0-1.45,2c-1,1.32-1.87,1.93-2.52,1.84a1.33,1.33,0,0,1-1.15-1,3.26,3.26,0,0,1,.07-2,17.86,17.86,0,0,1,2.14-3.82,17,17,0,0,1,2.69-2.75,4.51,4.51,0,0,1,3.43-1.23C28.31,281.53,29.42,281.61,30.26,281.72ZM27.47,311.6a38.59,38.59,0,0,1-.34,6.23,51.7,51.7,0,0,1-1.24,6.31,12.07,12.07,0,0,1-1.25,3.1,6.38,6.38,0,0,1-2.34,2.36,2.77,2.77,0,0,1-2.75.22,1.12,1.12,0,0,1-.41-1.73l2.47-4.42a23.72,23.72,0,0,0,1.61-5.81,36.89,36.89,0,0,0,.48-4.69c0-.72,0-1.24,0-1.58s0-.76,0-1.28a2.35,2.35,0,0,1,.78-1.83,1.68,1.68,0,0,1,1.66-.22,1.43,1.43,0,0,1,.95,1.06A10.68,10.68,0,0,1,27.47,311.6Zm9.56-5q-.18,2.84-.6,6.69c-.27,2.57-.54,5.08-.81,7.55s-.51,4.7-.74,6.68-.39,3.32-.49,4a26.59,26.59,0,0,1-.82,3.95,7.85,7.85,0,0,1-2,3.39c-1.06,1-1.84,1.38-2.36,1s-.66-1-.47-2l1.76-5.79c.06-.45.23-1.57.5-3.35s.54-3.84.82-6.21.55-4.84.79-7.41.44-4.9.59-7a13.16,13.16,0,0,0-.24-2.65,6.82,6.82,0,0,1-.08-2.34,2.72,2.72,0,0,1,.57-1.36,1.59,1.59,0,0,1,1.54-.43,2.18,2.18,0,0,1,1.73,1.17A8.56,8.56,0,0,1,37,306.65Zm2.31,13.75a1.71,1.71,0,0,1-.21-2.1,2.15,2.15,0,0,1,2.23-.4,5.14,5.14,0,0,1,.63-1.79,17.63,17.63,0,0,1,5.53-6.63,14.41,14.41,0,0,1,14-.26,13.32,13.32,0,0,1,4.2,3.68A14.05,14.05,0,0,1,68.14,318a15.62,15.62,0,0,1,.3,5.87A16.7,16.7,0,0,1,66.87,329a15,15,0,0,1-3.2,4.37A13.73,13.73,0,0,1,59,336.23a11.86,11.86,0,0,1-5.76.56,13.58,13.58,0,0,1-9-4.45,18.85,18.85,0,0,1-4-9.54,6.34,6.34,0,0,0-.27-1.32A3.23,3.23,0,0,0,39.34,320.4Zm5.94-1.48a3.54,3.54,0,0,1-1.39,1.49c.1.28.19.57.28.88s.17.67.25,1.07q1,4.89,3.12,7a10.5,10.5,0,0,0,6.36,2.73A8.66,8.66,0,0,0,61,330.26a10.43,10.43,0,0,0,3.43-6.81q.66-4.95-1.7-7.69a10.88,10.88,0,0,0-7.11-3.37,11.14,11.14,0,0,0-3.81,0,6.76,6.76,0,0,0-2.74,1.21,8.85,8.85,0,0,0-2,2.25C46.48,316.81,45.89,317.81,45.28,318.92Zm58.64-23.82c-.12,1.89-.28,3.77-.46,5.62s-.36,3.74-.55,5.66-.42,3.9-.7,5.94l-.87,6.56c-.22,1.68-.47,3.25-.72,4.7a12.11,12.11,0,0,1-.92,3.19,3.75,3.75,0,0,1-1.25,1.17,3.91,3.91,0,0,1-2.69.18c-1.61-.28-3-.53-4.15-.75s-2.18-.39-3-.51-1.64-.18-2.3-.2l-2.06-.08a9.31,9.31,0,0,0-3.29.55,4.4,4.4,0,0,0-1.72,1.45c-.63.77-1.15,1.17-1.55,1.18a3.2,3.2,0,0,1-1.06-.14,1.16,1.16,0,0,1-.94-1.12,3.58,3.58,0,0,1,.22-1.65,10.4,10.4,0,0,1,1-1.84,9.84,9.84,0,0,1,2.38-2.25,4.74,4.74,0,0,1,3-1c1.29,0,2.32,0,3.11,0s1.37.07,2,.11,1.22.12,1.9.21,1.5.23,2.47.42,2.21.43,3.76.7a1,1,0,0,0,.88-.32,5.51,5.51,0,0,0,.84-2.22q.9-6.69,1.73-14.05T100.24,293a22.09,22.09,0,0,0-.09-2.29,7.5,7.5,0,0,1,0-1.87,4.26,4.26,0,0,1,.44-1.43,1.12,1.12,0,0,1,1.3-.51q1.17.15,1.68,2.64A21.37,21.37,0,0,1,103.92,295.1Z"/><path class="cls-1" d="M62.39,200.19a42.65,42.65,0,0,1-2.23,4.75,47.7,47.7,0,0,1-3,4.55,14.13,14.13,0,0,1-2.27,2.43,6.12,6.12,0,0,1-3,1.34,2.78,2.78,0,0,1-2.64-.82,1.12,1.12,0,0,1,.27-1.76l3.93-3.18a20.63,20.63,0,0,0,3.18-3.94,25.26,25.26,0,0,0,1.71-3.32c.27-.74.45-1.26.54-1.55s.23-.68.43-1.16a2.35,2.35,0,0,1,1.5-1.46,1.8,1.8,0,0,1,1.67.43,1.43,1.43,0,0,1,.45,1.38A11.52,11.52,0,0,1,62.39,200.19ZM72.77,199c-.82,1.72-1.78,3.61-2.88,5.69l-3.23,6.12q-1.57,3-2.86,5.36c-.85,1.58-1.46,2.68-1.81,3.31a29,29,0,0,1-2.25,3.4,7.73,7.73,0,0,1-3.18,2.42c-1.34.52-2.19.51-2.56,0s-.26-1.21.34-2l3.79-4.72c.23-.4.74-1.27,1.54-2.62s1.72-3,2.75-4.87,2.09-3.9,3.17-6,2.09-4.13,3-6a14.48,14.48,0,0,0,.79-2.59,7.07,7.07,0,0,1,.76-2.16,3,3,0,0,1,1.07-1.08,1.54,1.54,0,0,1,1.61.12A2.14,2.14,0,0,1,74,195,8.76,8.76,0,0,1,72.77,199Zm7.94-34.79q3.08,1.74,7.11,4t8.34,4.65q4.31,2.44,8.51,4.87c2.8,1.61,5.28,3.11,7.43,4.47a24.57,24.57,0,0,1,2.2,1.69c.76.66,1.44,1.31,2,1.95a9.94,9.94,0,0,1,1.42,1.87,1.89,1.89,0,0,1,.35,1.38c-.11.32-.44.45-1,.39a9.43,9.43,0,0,1-2.12-.53,29.35,29.35,0,0,1-2.8-1.13c-1-.46-2-1-3-1.51q-2.27-1.38-5.92-3.56t-8-4.64a60.11,60.11,0,0,1-2.49,5.51c-1,2-2,3.89-2.9,5.62l4.61,2.61c1.54.86,3.11,1.79,4.73,2.78a13.91,13.91,0,0,1,2.25,1.61c.75.65,1.44,1.3,2,1.94a11.64,11.64,0,0,1,1.44,1.83,1.73,1.73,0,0,1,.37,1.34c-.1.31-.44.46-1,.43a8.24,8.24,0,0,1-2.15-.48c-.84-.3-1.78-.67-2.79-1.13s-2-1-3-1.51q-2.52-1.53-5.55-3.25c-2-1.14-4.12-2.29-6.32-3.45s-4.43-2.34-6.73-3.52-4.54-2.36-6.73-3.53a5.06,5.06,0,0,0-2.61-.57,9.35,9.35,0,0,0-2.17.47,12.32,12.32,0,0,0-2,1.21,8.06,8.06,0,0,1-1.79.79,1.68,1.68,0,0,1-1.23,0,1.35,1.35,0,0,1-.63-1.37,2.67,2.67,0,0,1,.83-1.78,19.55,19.55,0,0,1,3.37-2.77,15,15,0,0,1,3.48-1.58,4.39,4.39,0,0,1,3.65.2c1.27.61,2.25,1.11,2.93,1.49,1.94,1.09,3.87,2.15,5.81,3.17s3.85,2.06,5.72,3.12c.85-1.62,1.77-3.47,2.78-5.52s1.88-3.93,2.61-5.62q-4.17-2.35-8.15-4.49t-6.8-3.5a4.36,4.36,0,0,0-2.51-.64,6.81,6.81,0,0,0-2.14.49,11.23,11.23,0,0,0-2.08,1.3c-1.48.89-2.5,1.17-3.07.85a1.33,1.33,0,0,1-.65-1.44,3.54,3.54,0,0,1,.81-1.84,16.61,16.61,0,0,1,3.39-2.7,17.68,17.68,0,0,1,3.5-1.52,4.52,4.52,0,0,1,3.63.14Q79.6,163.53,80.71,164.16Zm-10.2,47.36a1.72,1.72,0,0,1,.58-2,1.3,1.3,0,0,1,1-.1,2.58,2.58,0,0,1,1.11.51,9.08,9.08,0,0,0,.59-.74,2.53,2.53,0,0,1,.62-.6Q82.18,202,89.18,206q5.88,3.33,6.88,8.33a14.81,14.81,0,0,1-2,10.39,17.48,17.48,0,0,1-3.14,4.07,12.71,12.71,0,0,1-4.11,2.69,11.53,11.53,0,0,1-4.85.81,12,12,0,0,1-5.4-1.7,12.26,12.26,0,0,1-6-6.64q-1.38-4,0-9.81a6.62,6.62,0,0,0,.24-1.33A3.16,3.16,0,0,0,70.51,211.52Zm5.92.87a4.83,4.83,0,0,1-.81.55,2.72,2.72,0,0,1-.9.29c0,.29,0,.59-.07.91a10.27,10.27,0,0,1-.16,1.09c-.54,3.22-.42,5.62.38,7.2a9.63,9.63,0,0,0,4,3.95,7.88,7.88,0,0,0,6.25.78,8.68,8.68,0,0,0,5.25-4.41,9.58,9.58,0,0,0,1.38-6.93q-.73-3.18-4.58-5.34a7.6,7.6,0,0,0-5.25-1.06A12.86,12.86,0,0,0,76.43,212.39Zm32.06-6.54a2.42,2.42,0,0,1-.16-1.22,1.47,1.47,0,0,1,.89-1.07,2.43,2.43,0,0,1,2.39.56,3.22,3.22,0,0,0,.44-.59l.32-.56q4.56-4.5,8.8-5.32t9.68,1.69a13.23,13.23,0,0,1,5.09,3.94,14.06,14.06,0,0,1,2.53,5.38,14.55,14.55,0,0,1,.05,6.1,20.29,20.29,0,0,1-2.26,6.09,23.18,23.18,0,0,1-3.55,4.69A15.92,15.92,0,0,1,127.9,229a13.49,13.49,0,0,1-5.78,1.17,13.08,13.08,0,0,1-6.59-2.08,15.73,15.73,0,0,1-7.08-8q-1.71-4.74.08-11.49c.08-.55.16-1,.22-1.39A2.22,2.22,0,0,0,108.49,205.85Zm5.83,1a4.48,4.48,0,0,1-.72.66c-.25.2-.5.37-.75.54a2.28,2.28,0,0,1-.17.8,3.73,3.73,0,0,0-.22.89,17.7,17.7,0,0,0-.62,5,9.39,9.39,0,0,0,.9,3.78,9.5,9.5,0,0,0,2.25,2.9,19.45,19.45,0,0,0,3.3,2.31,11,11,0,0,0,4.56,1.51,8.85,8.85,0,0,0,4-.61,10,10,0,0,0,3.29-2.25,16.22,16.22,0,0,0,2.52-3.36q2.75-4.86,1.77-8.91t-5.6-6.43a14.65,14.65,0,0,0-4.46-1.56,8.47,8.47,0,0,0-3.72.21,10.25,10.25,0,0,0-3.27,1.7A22.22,22.22,0,0,0,114.32,206.89Z"/><path class="cls-1" d="M174.08,125.64c-.75.92-2.12,2.41-4.11,4.49s-4.3,4.43-6.92,7.08-5.44,5.45-8.43,8.41-5.88,5.79-8.64,8.48l-7.55,7.35q-3.41,3.31-5.22,5a29.23,29.23,0,0,1-3.12,2.63,7.87,7.87,0,0,1-3.8,1.51c-1.43.12-2.25-.11-2.45-.69s.12-1.19,1-1.82l4.83-3.75c.65-.55,1.61-1.39,2.87-2.53s2.69-2.48,4.29-4l5.26-5.13,5.9-5.74c-1-1.26-2.25-2.62-3.62-4.07a51.25,51.25,0,0,0-4.24-4l-5.62,5.47c-.89.78-1.73,1.48-2.52,2.12a9.41,9.41,0,0,1-2,1.29,3,3,0,0,1-1.6.12,5.29,5.29,0,0,1-2.33-1.49q-1.23-1.26-3.08-2.95l-3.7-3.37c-1.23-1.13-2.41-2.17-3.53-3.14a32.63,32.63,0,0,0-2.84-2.22,11.38,11.38,0,0,0-3.28-1.6,4.08,4.08,0,0,0-2.18-.06,2.6,2.6,0,0,1-1.94,0,2.87,2.87,0,0,1-.75-.77,1.13,1.13,0,0,1,0-1.42,4,4,0,0,1,1.23-1.2,10.25,10.25,0,0,1,1.88-.8,9,9,0,0,1,3.2-.31,5.53,5.53,0,0,1,3.13,1.19c1.08.77,1.94,1.4,2.58,1.87l2.26,1.9q2.18-2.12,4.74-4.69c1.71-1.7,3.42-3.44,5.13-5.2l5-5.13q2.42-2.49,4.32-4.62-2-2-4.59-4.29a7.58,7.58,0,0,0-3-1.77,3.48,3.48,0,0,0-2.08,0,2.58,2.58,0,0,1-2-.06,2.06,2.06,0,0,1-.71-.87,1.09,1.09,0,0,1,0-1.46,4.17,4.17,0,0,1,1.26-1.16,9.18,9.18,0,0,1,1.84-.77,9.56,9.56,0,0,1,3.16-.27,4.22,4.22,0,0,1,1.52.36,8.2,8.2,0,0,1,1.55.89c.48.35.95.72,1.41,1.09s.84.69,1.16.92a38.25,38.25,0,0,1,3.25,3.13c1.16,1.24,2.34,2.54,3.52,3.89s2.35,2.72,3.51,4.1,2.24,2.68,3.24,3.89a6.28,6.28,0,0,1,1.35,3,2.07,2.07,0,0,1-.65,1.93,1.36,1.36,0,0,1-1.39.4.89.89,0,0,0-.21.34.89.89,0,0,1-.21.34,20.86,20.86,0,0,1-2.51,3.4q-1.65,1.89-3.62,3.94c1.46,1.31,2.9,2.7,4.31,4.15s2.62,2.78,3.62,4c2-2,3.91-4,5.83-5.95s3.7-3.78,5.34-5.47,3.09-3.2,4.36-4.52,2.25-2.37,2.95-3.15a8.79,8.79,0,0,0,1.24-2,4.66,4.66,0,0,1,1.09-1.54,2.67,2.67,0,0,1,1.36-.71,1.57,1.57,0,0,1,1.49.54,2.31,2.31,0,0,1,.63,2A8.27,8.27,0,0,1,174.08,125.64Zm-26.32-1-3.38-4c-1.11-1.33-2.29-2.67-3.51-4L136.58,121l-4.92,5.06c-1.69,1.73-3.36,3.46-5,5.17s-3.2,3.29-4.61,4.75c1.33,1.18,2.57,2.34,3.74,3.48s2.2,2.1,3.11,2.85a1.68,1.68,0,0,0,1,.29,4.45,4.45,0,0,0,2-1.15l3.44-3.35c1.41-1.37,2.82-2.79,4.25-4.28l4.11-4.27a36.59,36.59,0,0,0,3-3.5Zm28.7,15.14c.36.47.78,1,1.26,1.51s1.13,1.23,1.95,2.07,1.82,1.89,3,3.16,2.62,2.85,4.31,4.77a20.69,20.69,0,0,1,1.56,2.16,20.27,20.27,0,0,1,1.25,2.27,8.22,8.22,0,0,1,.67,1.95,1.7,1.7,0,0,1-.12,1.28c-.42.6-1.3.49-2.63-.31a21.85,21.85,0,0,1-4.66-4.22,25,25,0,0,0-2.11-2.52c-.91-1-1.85-2-2.8-3l-2.7-2.77-2-2.07-20.59,21.28c-.93.91-2,1.81-3.05,2.69a7.11,7.11,0,0,1-3.73,1.58c-1.43.12-2.25-.13-2.45-.76s.1-1.23.89-1.82l4.84-3.89q2.46-2.52,5.23-5.3l5.48-5.47q2.7-2.7,5.23-5.3c1.69-1.73,3.23-3.38,4.64-4.93l2.4-3.43a2.2,2.2,0,0,1,2.23-.46A5.14,5.14,0,0,1,176.46,139.74Z"/><path class="cls-1" d="M262.06,71.23c-1,.58-2.84,1.5-5.43,2.73s-5.59,2.65-9,4.22-7,3.22-10.84,4.93-7.55,3.33-11.08,4.87l-9.66,4.21c-2.91,1.26-5.12,2.19-6.65,2.78a29.85,29.85,0,0,1-3.84,1.35,8,8,0,0,1-4.09.07q-2.07-.6-2.07-1.56T201,93.42l5.88-1.71q1.13-.37,3.27-1.2t4.94-2l6.15-2.68,7-3c-.9-1.89-1.77-3.79-2.64-5.7s-1.62-3.42-2.26-4.57a7.75,7.75,0,0,0-2.28-2.8,4.39,4.39,0,0,0-2.09-.86,2.67,2.67,0,0,1-1.69-.7,2.74,2.74,0,0,1-.41-.95,1.13,1.13,0,0,1,.47-1.37,3.49,3.49,0,0,1,1.52-.67,13.53,13.53,0,0,1,2.25-.12,10.43,10.43,0,0,1,3.34.68,5,5,0,0,1,2.42,2.37c.67,1.21,1.2,2.19,1.6,2.94.74,1.53,1.46,3.16,2.18,4.88s1.4,3.36,2.08,4.91Q236.9,79,241,77.06l7.7-3.56q3.56-1.65,6.33-3c1.85-.91,3.28-1.66,4.31-2.25a10.49,10.49,0,0,0,1.87-1.35,5.12,5.12,0,0,1,1.59-1,3,3,0,0,1,1.5-.23,1.56,1.56,0,0,1,1.22,1.08,2.14,2.14,0,0,1-.16,2.09A8.73,8.73,0,0,1,262.06,71.23ZM239.82,43.18A52.87,52.87,0,0,0,242.23,49,68.55,68.55,0,0,1,246,60.58q.24,1.29.36,2.67a14.35,14.35,0,0,1,0,2.62A10.55,10.55,0,0,1,246,68a1.58,1.58,0,0,1-.72,1.06q-.9.39-2.1-1.65a21.38,21.38,0,0,1-2.11-5.81,28.41,28.41,0,0,0-1-3.53q-.77-2.22-1.65-4.52c-.59-1.52-1.17-3-1.72-4.32s-1-2.34-1.23-2.94L209.85,58.56q-1.8.78-3.81,1.44a7.13,7.13,0,0,1-4,.16c-1.39-.39-2.06-.92-2-1.58s.52-1.12,1.47-1.39l5.9-1.92q6.48-3,13.25-6.14t12.37-6l3.42-2.45a2.13,2.13,0,0,1,2.15.4A5.08,5.08,0,0,1,239.82,43.18Zm-1,46.91a2.69,2.69,0,0,1,.76-1.08,1.7,1.7,0,0,1,1.42-.3,1.19,1.19,0,0,1,.94.45,4.41,4.41,0,0,1,.73,1.18l1.55-.36q6.94-1,11.11,1.1t7.28,8a14.73,14.73,0,0,1,1.84,7,14.5,14.5,0,0,1-1.43,6.28,17.2,17.2,0,0,1-4.06,5.3,22.6,22.6,0,0,1-6.06,3.86,27.23,27.23,0,0,1-6.36,1.86,17.55,17.55,0,0,1-6.55-.09,14,14,0,0,1-5.93-2.82,14.78,14.78,0,0,1-4.43-6.25,15.94,15.94,0,0,1-.62-11.48q1.88-5.31,8-10.11c.4-.39.77-.75,1.13-1.08A2.4,2.4,0,0,0,238.85,90.09Zm4.82,4.2a3.46,3.46,0,0,1-.94-.07,6,6,0,0,0-.85-.11c-.25.25-.54.52-.88.81s-.8.67-1.38,1.13q-5.18,4.08-6.12,7.91a12.94,12.94,0,0,0,1,8.41,11,11,0,0,0,3.12,4.36,9.75,9.75,0,0,0,4.11,2,12.4,12.4,0,0,0,4.63.08,19.9,19.9,0,0,0,4.55-1.34q5.66-2.46,7.72-6.57t-.42-9.33a16.25,16.25,0,0,0-2.88-4.41,10.59,10.59,0,0,0-3.32-2.35,9.72,9.72,0,0,0-3.87-.77A36.93,36.93,0,0,0,243.67,94.29Z"/><path class="cls-1" d="M310.1,38.29a2.2,2.2,0,0,1,2.06,1,4.43,4.43,0,0,1,.53,2.31,30.31,30.31,0,0,1-2.31,10.11A63.06,63.06,0,0,1,305,62.14q2.16,2.3,4.66,4.55a53.41,53.41,0,0,0,5.2,4.15,45.33,45.33,0,0,0,5.34,3.24,17.68,17.68,0,0,0,5,1.76,3.8,3.8,0,0,1,2.08.82,2.05,2.05,0,0,1,.52,1,1.22,1.22,0,0,1-.56,1,3.48,3.48,0,0,1-1.28.51,9.59,9.59,0,0,1-1.61.15,10.91,10.91,0,0,1-1.59-.1,18.56,18.56,0,0,1-5.39-1.71,36.61,36.61,0,0,1-5.43-3.18,58.67,58.67,0,0,1-5.14-4q-2.49-2.16-4.53-4.28A97.4,97.4,0,0,1,292.73,77a66.82,66.82,0,0,1-9.07,7.69,7.16,7.16,0,0,1-1.06.67c-.28.13-.54.25-.79.35-.45.12-.75.07-.91-.14a1,1,0,0,1-.15-.82,3.63,3.63,0,0,1,.45-1.14,5.24,5.24,0,0,1,.81-1.09q3.09-2.85,7.08-7a86.9,86.9,0,0,0,7.69-9.29,78.58,78.58,0,0,0,6.59-10.94,39.57,39.57,0,0,0,3.81-11.92l-17,3.58c-1.3.16-2.65.27-4.06.31a6.75,6.75,0,0,1-3.94-1.1c-1.22-.77-1.73-1.44-1.54-2s.82-.87,1.87-.87l6.1-.16c1.1-.14,2.41-.35,3.92-.64s3.07-.59,4.68-.92l4.77-1c1.57-.33,3-.63,4.18-.92Zm-10.47-3.24a40,40,0,0,1-8.7.68,23.73,23.73,0,0,1-3.36-.42,5.63,5.63,0,0,1-2.91-1.57,2.77,2.77,0,0,1-.92-2.6c.23-.79.79-1.07,1.67-.85l4.89,1.17a13.75,13.75,0,0,0,3.1.31c1.12,0,2.22,0,3.29-.11s2.07-.18,3-.32,1.62-.28,2.13-.41l1.52-.49c.31-.1.73-.22,1.24-.35a2.39,2.39,0,0,1,2.06.34,1.82,1.82,0,0,1,.65,1.6,1.36,1.36,0,0,1-.85,1.14,15.8,15.8,0,0,1-2.16.91,21.71,21.71,0,0,1-2.25.57C301.2,34.82,300.41,35,299.63,35.05Zm34.2-10.95q.72,6.72,1.61,13.43t1.69,13.32a41,41,0,0,0,7.65-1.25c.57-.2,1.24-.46,2-.79a7.33,7.33,0,0,1,4.4-.35,2,2,0,0,1,1.59,1.34,1.92,1.92,0,0,1,0,1.47,2,2,0,0,1-.88.85,4.56,4.56,0,0,1-1.28.46c-.45.09-.87.15-1.26.2q-2.79.64-5.73,1.16a56.37,56.37,0,0,1-6.09.7q1.22,8.94,2.13,17.56t1.38,16.37a23.79,23.79,0,0,1-.05,2.77c-.08,1-.19,1.93-.35,2.81a11.35,11.35,0,0,1-.61,2.25c-.25.62-.53,1-.85,1.09s-.64-.09-1-.57a8.27,8.27,0,0,1-.89-2c-.27-.85-.52-1.82-.76-2.91s-.41-2.19-.55-3.29q-.43-6.66-1.29-15.2t-2-17.43q-1.09-8.9-2.25-17.45T328.3,23.3a4.51,4.51,0,0,0-1-2.39,6.51,6.51,0,0,0-1.66-1.43,11.77,11.77,0,0,0-2.28-.9,8,8,0,0,1-1.7-1,1.64,1.64,0,0,1-.72-1,1.32,1.32,0,0,1,.72-1.37,3.3,3.3,0,0,1,1.92-.44,17.69,17.69,0,0,1,4.23,1.11,16.78,16.78,0,0,1,3.35,1.9,4.5,4.5,0,0,1,2.05,3C333.52,22.16,333.72,23.26,333.83,24.1Z"/><path class="cls-1" d="M414.87,62.18c-1.88-.22-3.52-.42-4.92-.61s-2.81-.4-4.26-.64l-4.7-.76q-2.5-.42-6.17-1.09c-1.29-.24-2.61-.55-4-.93A7.12,7.12,0,0,1,387.41,56c-1-1.11-1.29-1.93-.89-2.46s1.09-.63,2.1-.31l5.87,1.68q4,.95,8.79,1.77t11,1.49a11.41,11.41,0,0,0,2.31-.07,5.22,5.22,0,0,1,1.88,0,3,3,0,0,1,1.38.66,1.55,1.55,0,0,1,.41,1.57A2.17,2.17,0,0,1,419,62,8.81,8.81,0,0,1,414.87,62.18Z"/></svg>