<svg id="Layer_1" data-name="Layer 1" xmlns="http://www.w3.org/2000/svg" viewBox="0 0 1346.14 1339.46"><defs><style>.cls-1{fill:#fff;}</style></defs><path class="cls-1" d="M879.44,202.37a14.63,14.63,0,0,0,.84,11.62c4.26,6.62,8.18,7.58,12.27,8.87l-47.13-14.79c2.65.83,16,4.5,21.24-7.07L890,126.7l-94.5-29.65L772.92,169a14.63,14.63,0,0,0,.84,11.62c4.26,6.62,8.19,7.58,12.27,8.87l-47.12-14.79c2.64.83,16,4.5,21.23-7.07l44.21-140.9q2-6.49-1.16-11.46c-4-6.79-7.87-7.75-11.72-9l47.37,14.86a57.16,57.16,0,0,0-6.4-1.48c-4.31-.56-13.35,2.15-16.07,10.81L796.15,94.89l94.5,29.65L910.87,60.1q2-6.49-1.16-11.46c-4-6.79-7.87-7.75-11.72-9l47.37,14.86a57.16,57.16,0,0,0-6.4-1.48c-4.32-.56-13.35,2.15-16.07,10.81Z"/><path class="cls-1" d="M999.37,271.57a54.91,54.91,0,0,0-1.52,16.28c1.3,9.37,3.88,11.41,6.46,13.44l-38.5-25.84c.42.28,16,10.11,21.2-8.53l14.87-57.4-49.31-32.8-41.13,30.06c-13.8,9.25-16.27,19.73-2.12,30.75l-36.41-24.44c9.84,5.69,22.78,2.24,39-9.66l128.42-94.09-.64,2.31Zm4.34-132.15-49,36,47.84,31.81,16.56-62.64q2.76-10.89-.38-13C1017.23,130.59,1012.12,133.22,1003.71,139.42Zm.6,161.87.63.42Z"/><path class="cls-1" d="M1159.11,300.59c-9.94,5.53-19.68,7.49-29.4,5.71-20.13-4-37-18.26-51.37-43,27,37.7,55.52,45.33,81.4,22.47,13.49-11.75,19.14-23.58,17.27-35.1q-2.52-17.53-22-38.14c-4.54-5.07-8.76-9.41-12.5-12.82l-118,105.79a14.67,14.67,0,0,0-5.21,10.43c.29,7.86,3.17,10.7,6,13.89l-33.14-37a26,26,0,0,0,8.23,6.16c4.68,2.58,10.43,1.82,15.68-2.89l108.09-96.88q5.07-4.54,4.86-10.44c.07-7.85-2.81-10.69-5.5-13.69,15.49,16.91,26.44,28.75,32.84,35.88,12.27,13.7,20.73,25.41,24.85,34.91a36.19,36.19,0,0,1,.92,29C1177,286.58,1169.41,295.09,1159.11,300.59Z"/><path class="cls-1" d="M1229.6,421.85c-10.94,3.12-20.88,2.82-29.93-1.13-18.7-8.43-31.89-26.2-40.25-53.52,17.74,42.87,43.75,56.77,74.15,40.4,15.81-8.37,24-18.6,24.8-30.25q1.55-17.66-12.75-42.15c-3.27-6-6.39-11.15-9.26-15.33l-139,76.17a14.62,14.62,0,0,0-7.45,9c-1.51,7.73.65,11.14,2.71,14.9l-23.86-43.54a25.82,25.82,0,0,0,6.61,7.87c4,3.57,9.75,4.15,15.93.76l127.3-69.75q6-3.27,7.11-9.07c1.85-7.62-.31-11-2.24-14.57,11.24,20,19.21,34,23.81,42.41,8.84,16.13,14.42,29.45,16.27,39.65a36.24,36.24,0,0,1-5.7,28.41C1250.21,412.28,1240.87,418.83,1229.6,421.85Z"/><path class="cls-1" d="M1149.28,508.48a14.64,14.64,0,0,0-8.87,7.56c-2.82,7.35-1.27,11.08.11,15.14l-16-47a26,26,0,0,0,5.16,8.89c3.3,4.2,8.89,5.76,15.57,3.48l137.36-46.9q6.45-2.21,8.55-7.71c3.14-7.2,1.6-10.93.3-14.75l16,47a59.39,59.39,0,0,0-2.6-6c-2.1-3.81-9.63-9.49-18.22-6.56Z"/><path class="cls-1" d="M1310.84,648.17c11-1.28,18.59-6,20.93-12.07a25.58,25.58,0,0,0,2.78-13.25l5.3,45.81c-.68-3.73-1.75-6.4-5.67-11.78-3.62-4.91-12.06-7.74-23.08-6.46l-148.95,17.23,0-.25,4.37-3.8,135.83-119.73c3.44-3.19,3.17-5.44-.78-6.76-2.12-.77-5.43-.89-9.69-.4l-116.66,13.5c-14.77,1.71-22.43,12.23-23.34,19.69l-.36,5.63L1146.11,529c.14,1.25.29,2.5,2.87,7.27,3.79,6.42,11.44,13.39,26.46,11.66l114.66-13.27c30-3.47,31.82-20.93,31.39-24.69l.16-.78,3.68,31.8L1205.51,647.67c-5.08,4.39-7.2,7.93-6.41,10.38.37,3.25,10.86,1.79,18.12,1Z"/><path class="cls-1" d="M1173.77,820.07l2.68,2.26-34.72-16.54,21.33-122.39a25.88,25.88,0,0,0,.25,10.27c.87,5.27,5,9.32,12,10.53l143,24.92q6.7,1.17,11.2-2.65c6.21-4.8,6.66-8.82,7.35-12.79L1317.2,826.39l-32.3,3.32c9.26-3.24,16.71-7.83,22.15-14,3.5-4,6-6.88,7.19-9,2.43-3.67,7-16.69,11.19-40.77l3.85-22.1-79.94-13.92-3.54,20.35c-3,21.48,6.37,29.51,10.87,31.57l1.69.55-36.74-6.4s17.27.71,21.94-26.11l3.55-20.35-69.76-12.16c-15.89-2.77-18.85,5.41-20.06,12.36l-4.2,24.09a90,90,0,0,0-1.34,19.46A60.17,60.17,0,0,0,1154,786.7c1,3,2.64,6.85,4.64,11.55C1163.25,808.52,1170.15,817.39,1173.77,820.07Z"/><path class="cls-1" d="M1217.8,974.7c6.67.57,15.85-1.32,27.09-5.86C1268,960.3,1282,934,1279,916.86c-2.2-12.1-11.44-22.17-23.65-26.39-18.57-6.05-35.9,2.08-52.07,24.6-25.53,36.25-46.57,44.61-72.59,31.82-31.28-15.21-33.9-46.92-21.56-72.59,10.63-23.12,25.21-39.16,43.87-47.78l36.5,15.93c-31-5.07-57.81,8.11-73.75,30.73-8.18,11.78-12,23.63-11,35.44.85,12,7.79,21,20.39,26.84,10.2,5,20.69,5.07,31.72,1s23.07-15.19,36.78-33.57q16.51-22.36,31.27-26.4c9.73-2.46,19.8-1.44,30.1,3.29,12,5.25,19.88,14.69,23.58,27.76s2.25,27.1-4.49,41.75c-6.84,14.89-19,28.14-25.75,33.1l-5.18,3.44Z"/><path class="cls-1" d="M1125.94,1099c6.33,2.18,15.69,2.6,27.7.93,24.45-2.66,44.45-24.74,45.78-42.09.82-12.28-5.69-24.3-16.5-31.37-16.54-10.38-35.32-6.72-56.5,11.18-33.59,28.93-56,31.91-78.15,13.17-26.63-22.37-21.45-53.77-3.22-75.65,15.94-19.84,34-31.85,54.19-35.66l31.51,24.35c-28.78-12.46-58-6.22-79,11.84-10.8,9.42-17.36,20-19.31,31.67-2.12,11.89,2.43,22.33,13.23,31,8.68,7.3,18.83,10,30.52,8.68s26.08-9.11,43.86-23.6q21.46-17.65,36.76-18c10,0,19.55,3.43,28.39,10.53,10.37,8,15.7,19.08,16.11,32.66s-4.43,26.83-14.53,39.41c-10.27,12.76-25.32,22.65-33,25.82l-5.87,2.07Z"/><path class="cls-1" d="M948.08,1087.16a14.61,14.61,0,0,0-9.64-6.55c-7.84-.76-11,1.72-14.57,4.13l41-28a25.89,25.89,0,0,0-7.19,7.34c-3.18,4.3-3.19,10.1.78,15.93l81.72,120q3.84,5.63,9.71,6.2c7.77,1.11,11-1.37,14.29-3.64l-41,28a57.33,57.33,0,0,0,5.13-4.11c3.11-3,6.59-11.8,1.48-19.3Z"/><path class="cls-1" d="M856.46,1280.09c4.16,10.28,10.69,16.33,17.2,17a25.67,25.67,0,0,0,13.52-.85l-42.75,17.3c3.41-1.65,5.7-3.39,9.84-8.6,3.77-4.79,4.25-13.68.09-24l-56.28-139,.24-.1,4.83,3.21,151.57,99q6,3.69,6.31-2.55c.17-2.25-.59-5.48-2.2-9.45l-44.07-108.85c-5.58-13.78-17.76-18.36-25.2-17.25l-5.52,1.15,43.45-17.6c-1.17.48-2.34,1-6.25,4.71-5.17,5.36-9.86,14.6-4.19,28.61l43.32,107c11.35,28,28.65,25.1,32.15,23.68l.8,0-29.67,12-134.76-87.09c-5.59-3.72-9.57-4.82-11.71-3.41-3,1.23,1.16,10.94,3.91,17.72Z"/><path class="cls-1" d="M592.44,1187.85l-1.83,3,11.17-36.8,124.2,2.81a25.88,25.88,0,0,0-10.12,1.79c-5.08,1.65-8.46,6.36-8.62,13.42L704,1317.16q-.15,6.81,4.3,10.69c5.67,5.42,9.71,5.26,13.74,5.35l-114.38-2.59-8.11-31.44c4.59,8.67,10.24,15.35,17.2,19.8,4.47,2.87,7.7,5,9.95,5.77,4,1.85,17.54,4.43,42,5l22.42.51,1.84-81.12-20.66-.47c-21.68.26-28.22,10.7-29.59,15.46l-.29,1.76.84-37.29s1.88,17.18,29.09,17.8l20.66.47,1.61-70.8c.36-16.12-8.17-17.83-15.23-18l-24.43-.55a89.63,89.63,0,0,0-19.45,1.58,60.2,60.2,0,0,0-13,4.24c-2.81,1.45-6.38,3.64-10.73,6.31C602.3,1175.72,594.55,1183.86,592.44,1187.85Z"/><path class="cls-1" d="M375.82,1270.48c13.08,2.2,24.3-2.06,38.51-19.39l101.89-122.95,11.91,175.37c1.54,11.39,6.82,18.71,15.44,22.35L494,1309.51c-.24-.08,21.37,6.79,19.87-16l-8.18-128c-.41-5.18-1.86-8-4.49-8.91-1.67-.56-3.74.09-5.73,2.09-2.31,2.15-7.31,7.67-14.85,16.85l-62.82,76.13c-14.29,18.37-12.35,27.77,2.73,33.55Zm167.75,55.38,1.2.39Z"/><path class="cls-1" d="M314.48,1056.38l-3.19,1.45,29.82-24.28,101.45,71.71a25.78,25.78,0,0,0-9.39-4.17c-5.14-1.47-10.58.55-14.65,6.31l-83.78,118.53q-3.93,5.55-2.41,11.26c1.68,7.67,5.12,9.79,8.41,12.12l-93.43-66,10.84-30.61c-1,9.76-.09,18.46,3.2,26,2.11,4.88,3.62,8.42,5,10.34,2.28,3.77,12.08,13.48,32,27.59l18.32,12.94,46.84-66.26-16.88-11.93c-18.13-11.89-29.39-6.88-33.18-3.7l-1.22,1.3,21.53-30.46s-8,15.3,14.18,31l16.87,11.93,40.88-57.82c9.31-13.17,3.19-19.35-2.58-23.43l-20-14.11a90.16,90.16,0,0,0-17-9.55,60.44,60.44,0,0,0-13.11-3.72c-3.14-.36-7.33-.55-12.42-.76C329.43,1051.83,318.45,1054.25,314.48,1056.38Z"/><path class="cls-1" d="M244.24,949.92c2.94-9.4,2.46-20.53.56-25.52l-1.28-3.87L259.11,939c-.38,6.58-2.61,16.05-7.06,28.37L236.29,1014c-7.54,23.5,2.16,33.44,16.78,50.78l53.56-45.16a14.61,14.61,0,0,0,5.52-10.26c0-7.88-2.84-10.8-5.6-14.07l32,38a25.91,25.91,0,0,0-8-6.41c-4.6-2.71-10.37-2.13-15.77,2.42l-111,93.58q-5.21,4.38-5.17,10.29c-.31,7.84,2.49,10.76,5.09,13.84-4.07-4.82-9.91-11.75-18.07-21s-14.19-16.05-17.57-20.45c-21.42-25.78-28.81-42-21.55-60a43.33,43.33,0,0,1,14.63-18.61c11.85-9,27.35-12.52,39.93-8.94a54,54,0,0,1,23.34,13.61c-3-6.7-2.35-16.48,1.93-29Zm-8.5,97.82c-20.33-23.73-45.43-27.29-66-11-31.69,25.74-13.85,53.54,15.28,85.35l66.27-55.89Z"/><path class="cls-1" d="M35.16,882l31.37-20.41c-6.1,4.22-11,11-14.46,20.33-4.4,12-3.28,24,6.06,44.15L64,938.67l143.76-66.78a14.65,14.65,0,0,0,8-8.46c2-7.6.09-11.15-1.71-15l20.92,45a26,26,0,0,0-6.08-8.29c-3.72-3.83-9.45-4.78-15.84-1.81L69.28,950.09,76,964.49c9.34,20.11,17.78,28.7,29.83,33.11,8.36,3.06,17.71,3.44,21.79,2.65l3.06-.59-35.82,10.81Z"/><path class="cls-1" d="M146.13,686.13c20.39,9,35.45,28.76,39.36,56L188,759.79l7.57,52.63a25.93,25.93,0,0,0-3.43-9.69c-2.47-4.74-7.67-7.3-14.66-6.3L35.35,816.88C27.61,818,22.84,822,21.81,827.23c-1.31,5-1.24,7.31-.81,10.3l-8.18-56.87c-4.69-30.9-2.19-54.17,7.28-69.79s29.34-26.11,59.34-31.7C103,674.76,125.74,677.09,146.13,686.13ZM182.68,742c-2.66-14.89-8.9-26.47-18.53-35-19.55-17.3-46.74-20.52-81.81-14.71-26.08,4.51-44.82,14.08-54.46,24.89a46.44,46.44,0,0,0-11,19.15c-4.72,14.93-4.5,27.12-2.06,44.08q2.2,15.35,4.52,26.08l153.15-22c13.22-1.9,15-8.78,12.12-29Z"/><path class="cls-1" d="M170,541.16a54.93,54.93,0,0,0,15.3-5.78c7.85-5.28,8.55-8.49,9.25-11.7l-6.34,45.93c.07-.5,2.08-18.79-17-15.31l-58.1,11.83-7.84,58.7,45.06,23.76c14.36,8.34,24.87,6,28.56-11.57l-6,43.43c.8-11.34-8-21.45-25.78-30.77L6.29,575.56l2.35-.44ZM49.37,595.24l53.84,28.28,7.6-56.95-63.55,12.6c-7.34,1.54-11.17,3.55-11.52,6.05C35.5,587,40.11,590.4,49.37,595.24Zm145.2-71.56.1-.75Z"/><path class="cls-1" d="M17.29,509.15l-.09.24ZM54.53,407.39l15.06-41.18Q67.52,384,83.15,401.77l42,48.65c7,7.94,14.68,13.42,23.44,16.63l48.51,17.75q7.81,2.85,13.44-1.53a30.21,30.21,0,0,0,7.7-10.06L201,520.31c1.3-3.55,1.5-7.77.93-12.81-.48-5.28-3.25-8.71-8.14-10.76l-49.61-18.42a35.74,35.74,0,0,0-18.85-1.27L40.13,491.48c-12.35,2.19-20.42,11-22.84,17.67l17.47-47c-3.12,11.47,3.65,17.17,16,15l73.54-12.54c5-1.13,5.63-4.38,2.09-8.62l-39-45.14C73.8,394.32,62.67,393.2,54.53,407.39Z"/><path class="cls-1" d="M297.76,343.55c22-25.62,27.28-47.65,15.83-66.44l20.52,27.57-77.63,90.45a25.8,25.8,0,0,0,5-9c1.94-5,.44-10.58-4.91-15.17L146.45,276.47q-5.16-4.43-11-3.45c-7.79,1-10.23,4.18-12.85,7.24l32.32-37.68a60,60,0,0,0-3.88,5.3c-2.22,3.75-3.29,13.12,3.6,19l106.9,91.74c9.94,8.53,16.83,7.47,25.2-2.29Z"/><path class="cls-1" d="M354.07,271a14.61,14.61,0,0,0,10.18,5.67c7.87.06,10.83-2.69,14.15-5.4L340,302.77a26.07,26.07,0,0,0,6.52-7.95c2.78-4.56,2.28-10.34-2.19-15.8l-92-112.3q-4.31-5.26-10.21-5.31c-7.84-.42-10.8,2.33-13.92,4.88l38.41-31.45a55,55,0,0,0-4.75,4.54c-2.84,3.3-5.53,12.34.22,19.36Z"/><path class="cls-1" d="M390.17,58.82l23,22.95c-8.36-5.14-16.62-8-24.87-8.3-5.31-.2-9.16-.36-11.5.09-4.38.43-17.36,5.11-38.69,17.06l-19.56,11,8.75,15.6,6.9,12.31,24,42.87L378,161.28c16.34-10,16.82-23.59,15-28.35l-.55-2,20.33,36.27s-12.15-16-33.69-3.93L359.3,174.34,396,239.85a14.59,14.59,0,0,0,9,7.36c7.74,1.44,11.13-.75,14.87-2.85l-43.31,24.27a25.71,25.71,0,0,0,7.81-6.68c3.53-4,4.05-9.78.6-15.94l-2.22-4-6.4-11.43L316.15,123.13l-2.09-3.73q-3.33-5.94-9.13-7c-7.64-1.78-11,.41-14.56,2.38Z"/><path class="cls-1" d="M598.4,143.11l.94-3.37-.59,38.45L478.59,209.74a26.12,26.12,0,0,0,9.24-4.51c4.42-3,6.38-8.45,4.58-15.28L455.56,49.56q-1.72-6.59-7.07-9.09c-6.95-3.64-10.79-2.38-14.69-1.35l110.66-29,16.46,28c-6.8-7.07-14.07-11.93-22-14.29-5.09-1.52-8.77-2.64-11.16-2.8-4.35-.68-18.09.58-41.73,6.79l-21.69,5.69L485,111.93l20-5.25c20.77-6.23,24.17-18.07,24.18-23l-.21-1.77L538.39,118s-6.54-16-32.87-9.09l-20,5.25,18,68.49c4.1,15.6,12.77,14.89,19.59,13.1l23.65-6.21A89.47,89.47,0,0,0,565,182.62,59.34,59.34,0,0,0,576.28,175c2.3-2.16,5.14-5.25,8.58-9C592.28,157.49,597.48,147.53,598.4,143.11Z"/></svg>