<svg id="Layer_1" data-name="Layer 1" xmlns="http://www.w3.org/2000/svg" viewBox="0 0 68.62 68.62"><defs><style>.cls-1{fill:#fff;stroke:#000;stroke-miterlimit:10;stroke-width:1.5px;}</style></defs><path class="cls-1" d="M47.13,8.87H21.48A12.62,12.62,0,0,0,8.87,21.48V47.13A12.61,12.61,0,0,0,21.48,59.74H47.13A12.6,12.6,0,0,0,59.74,47.13V21.48A12.61,12.61,0,0,0,47.13,8.87ZM34.31,46.08A11.78,11.78,0,1,1,46.08,34.31,11.78,11.78,0,0,1,34.31,46.08ZM46.89,23.91a2.43,2.43,0,1,1,2.43-2.43A2.43,2.43,0,0,1,46.89,23.91Z"/></svg>