<?xml version="1.0" encoding="utf-8"?>
<!-- Generator: Adobe Illustrator 25.2.1, SVG Export Plug-In . SVG Version: 6.00 Build 0)  -->
<svg version="1.1" id="Layer_1" xmlns="http://www.w3.org/2000/svg" xmlns:xlink="http://www.w3.org/1999/xlink" x="0px" y="0px"
	 viewBox="0 0 329 329" style="enable-background:new 0 0 329 329;" xml:space="preserve">
<style type="text/css">
	.st0{enable-background:new    ;}
	.st1{fill:#202527;}
</style>
<g class="st0">
	<path class="st1" d="M200.4,26.1c-0.6,2.2,1.6,2.9,1.9,2.9l-7.5-1.9c0.3,0.1,0.7,0.1,1.4,0c0.7-0.1,1.4-0.7,1.6-1.8l3.6-14.5
		c0.3-1.1,0-1.9-0.6-2.3c-0.6-0.4-0.9-0.5-1.2-0.6l7.5,1.9c-0.3-0.1-0.7-0.1-1.4,0c-0.7,0.1-1.4,0.7-1.6,1.8L200.4,26.1z"/>
</g>
<g class="st0">
	<path class="st1" d="M212.1,10.8c1.1,0.9-0.5,4.7-2.8,5.3c1.1-0.5,2.2-2,2.3-3.3c-0.2,0.1-0.5,0.1-0.7,0c-0.7-0.1-1.1-0.8-1-1.5
		s0.8-1.1,1.5-1C211.6,10.4,211.9,10.6,212.1,10.8L212.1,10.8z"/>
</g>
<g class="st0">
	<path class="st1" d="M216.3,33.6c1.6,0.6,3.3,0.7,5,0.3c1.7-0.4,3-1.1,3.9-2.1l-2.9,4.3l-14.1-5.5c0.3,0.1,0.7,0.2,1.4,0.2
		c0.7,0,1.5-0.6,1.9-1.6l5.4-13.8c0.4-1,0.2-1.9-0.3-2.4c-0.5-0.5-0.8-0.6-1.1-0.8l6.9,2.7c-0.3-0.1-0.6-0.2-1.4-0.2
		c-0.7,0-1.4,0.5-1.8,1.5L214,30c-0.7,1.8-0.2,2.6,1.2,3.2L216.3,33.6z"/>
</g>
<g class="st0">
	<path class="st1" d="M231.4,40.6c1.5,0.8,3.2,1.1,4.9,0.9c1.8-0.2,3.1-0.7,4.1-1.6l-3.4,4l-13.4-7.2c0.3,0.2,0.6,0.3,1.3,0.4
		c0.7,0,1.5-0.4,2.1-1.4l7-13.1c0.5-1,0.5-1.8,0-2.4c-0.5-0.5-0.7-0.7-1-0.9l6.6,3.5c-0.3-0.2-0.6-0.3-1.3-0.4
		c-0.7-0.1-1.4,0.4-2,1.3l-6.9,12.9c-0.9,1.7-0.5,2.6,0.8,3.3L231.4,40.6z"/>
</g>
<g class="st0">
	<path class="st1" d="M257.4,58.7c1.3,1.1,2.8,1.8,4.6,2c1.8,0.2,3.2,0,4.3-0.6l-4.2,3.1l-11.4-10c0.3,0.2,0.5,0.4,1.2,0.7
		c0.7,0.2,1.6,0,2.3-0.9l9.8-11.2c0.7-0.8,0.9-1.7,0.5-2.3c-0.3-0.6-0.5-0.9-0.8-1.1l5.6,4.9c-0.3-0.2-0.5-0.4-1.2-0.6
		c-0.7-0.2-1.5,0-2.2,0.8l-9.6,11c-1.2,1.4-1.1,2.4,0,3.4L257.4,58.7z"/>
</g>
<g class="st0">
	<path class="st1" d="M288,66.8c-0.6,2.4-1.9,4.5-3.9,6.1c-2.2,1.8-4.6,2.7-7.3,2.6c-2.6-0.1-4.9-1.3-6.9-3.5
		c-2.2-2.5-2.9-5.4-2.3-7.9c0.6-2.5,1.9-4.6,3.7-6.1c2.3-2,4.8-2.8,7.4-2.5c2.7,0.3,5,1.6,6.9,3.8C287.8,61.6,288.6,64.4,288,66.8z
		 M285.9,64.4c0.5-2.2,0.1-4.1-1.2-5.6c-1.3-1.6-3-2.3-5.1-2.1c-2.1,0.2-4.1,1.3-6.2,3.3c-1.9,1.9-3.1,4-3.7,6.3s-0.3,4.3,0.9,5.8
		c1.4,1.8,3,2.6,5.1,2.2c2.1-0.3,4.2-1.6,6.3-3.7C284.1,68.7,285.4,66.7,285.9,64.4z"/>
</g>
<g class="st0">
	<path class="st1" d="M295.3,92.9c0,0-1.2-1.5-2.9-0.4l-5.2,3.3c0.4-0.4,0.7-1,0.9-1.7c0.2-0.7,0.2-1.2,0-1.5c0,0-0.8-0.1-1-0.2
		c-0.2,0-0.9-0.3-1.3-0.4c-0.9-0.4-1.9-1.2-2.8-2.6c-1.6-2.5-2-5-1.3-7.4c0.7-2.4,2.3-4.4,4.8-6c6.2-4,12.2-0.5,14.8,4.4
		c0.9,1.7,1.4,3.5,1.4,5.4l-3.8,2.4c0.2-0.3,0.5-0.7,0.7-1.3c0.2-0.5,0.5-1.3,0.7-2.3c0.3-1,0.3-1.9,0.2-2.8
		c-0.3-2.5-1.3-4.2-3.2-5.3c-2.4-1.4-5.8-0.8-9.3,1.8c-2.3,1.7-3.7,3.5-4.3,5.6c-0.6,2.1-0.4,4,0.5,5.6c0.7,1.1,1.5,1.9,2.5,2.3
		c1.2,0.5,2.8,0.2,4.5-0.9l0.1-0.1c1.1-0.7,1.2-2.1,0.8-2.8l-0.3-0.6L295.3,92.9z"/>
</g>
<g class="st0">
	<path class="st1" d="M314.3,116.2c-1.4,2.1-3.4,3.5-5.8,4.3c-2.7,0.9-5.3,0.9-7.8-0.2c-2.4-1.1-4.2-3-5.2-5.8
		c-1.2-3.1-0.8-6.1,0.6-8.3c1.4-2.1,3.4-3.7,5.7-4.4c2.9-1,5.5-0.9,7.9,0.3c2.4,1.2,4.1,3.2,5.2,6
		C316,111.3,315.7,114.2,314.3,116.2z M313.2,113.2c1.3-1.9,1.6-3.8,0.9-5.7c-0.7-2-2-3.2-4-3.8c-2-0.6-4.3-0.3-6.9,0.9
		c-2.4,1.1-4.4,2.6-5.7,4.6c-1.3,2-1.8,3.9-1.2,5.8c0.6,2.2,1.9,3.5,4,3.9c2.1,0.4,4.5,0,7.3-1.2C310,116.6,311.9,115.2,313.2,113.2
		z"/>
</g>
<g class="st0">
	<path class="st1" d="M322.3,135.4l-4.3,2c0.2-0.1,0.6-0.5,1.1-1.2c0.5-0.7,0.9-1.4,1.1-2c0.2-0.6,0.3-1,0.4-1.4
		c0.2-0.8,0.1-2.4-0.4-4.7l-0.4-1.9l-1.9,0.4l-1.5,0.4l-5.4,1.2l0.4,1.9c0.7,2.6,2.5,3,3.3,3.1l0.3,0l-5.8,1.3
		c0.1-0.1,0.3-0.1,0.9-0.6c0.7-0.6,1.5-1.8,1.1-3.8l-0.4-1.9l-7.7,1.8c-1,0.2-1.5,0.8-1.6,1.5c-0.1,0.7-0.1,1.1,0,1.4l-1.7-7.3
		c0.1,0.3,0.2,0.6,0.6,1.2c0.4,0.6,1.2,0.9,2.1,0.7l0.5-0.1l1.4-0.3l12.6-2.9l0.5-0.1c1-0.2,1.5-0.8,1.6-1.5c0.1-0.7,0.1-1,0-1.3
		L322.3,135.4z"/>
</g>
<g class="st0">
	<path class="st1" d="M324.6,154.2l-4.5,1.5c0.2-0.1,0.7-0.5,1.3-1.1c0.6-0.6,1.1-1.2,1.4-1.8c0.3-0.5,0.5-1,0.6-1.4
		c0.3-0.7,0.4-2.4,0.2-4.7l-0.2-2l-2,0.2l-1.6,0.2l-5.5,0.6l0.2,1.9c0.4,2.6,2.1,3.3,2.9,3.5l0.3,0.1l-5.9,0.6
		c0.1,0,0.3-0.1,0.9-0.5c0.8-0.5,1.7-1.6,1.5-3.6l-0.2-1.9l-7.9,0.8c-1,0.1-1.6,0.6-1.8,1.3c-0.2,0.7-0.2,1-0.2,1.4l-0.8-7.4
		c0,0.3,0.1,0.6,0.4,1.3c0.3,0.6,1,1,2,0.9l0.5-0.1l1.5-0.2l12.9-1.4l0.5-0.1c1-0.1,1.6-0.6,1.8-1.3c0.2-0.7,0.2-1,0.2-1.3
		L324.6,154.2z"/>
</g>
<g class="st0">
	<path class="st1" d="M322,198.5c-0.1-1.6-1.1-2.9-3.1-4l-16.2-8.5l13.3-4.1l-12.1-6.5c12.5-3.9,18.9-5.9,19.2-6
		c1.5-0.5,2.3-1.4,2.5-2.9l-0.3,2.6l-0.7,6c0,0,0.1-3-2.6-2.3c-1.8,0.5-5.6,1.6-11.4,3.4c-0.9,0.4-1.4,0.7-1.4,1
		c-0.1,0.4,0.1,0.7,1.6,1.6l5.6,3l5.5-1.7c1.5-0.5,2.3-1.4,2.5-2.9l-0.3,2.6l-0.7,6c0-0.1,0.1-2.9-2.6-2.3l-11.4,3.4
		c-0.5,0.2-1.4,0.5-1.4,1c0,0.4,0.3,0.7,1.7,1.5l9,4.8c2,1.1,3.6,0.4,4-1.8L322,198.5z"/>
</g>
<g class="st0">
	<path class="st1" d="M299.3,212.8c-1.1-0.3-1.9-0.1-2.3,0.5c-0.4,0.6-0.6,0.9-0.7,1.2l2.1-7.1c-0.1,0.2-0.1,0.5-0.2,0.7
		c0,0.5,0.4,1.7,1.6,2.1l7.6,2.3l2.8-9.2l-7.4-2.2c-1.1-0.3-1.9-0.1-2.3,0.5c-0.4,0.5-0.6,0.8-0.7,1.2l2.1-7.1
		c-0.1,0.2-0.1,0.5-0.2,0.7c0,0.5,0.4,1.7,1.6,2.2l14.5,4.4c1.1,0.3,1.9,0.1,2.3-0.5c0.4-0.5,0.6-0.8,0.7-1.2l-2.2,7.1
		c0.1-0.3,0.1-0.6,0.1-1.3c-0.1-0.7-0.6-1.3-1.7-1.7l-6.6-2l-2.8,9.2l6.6,2c1.1,0.3,1.9,0.1,2.3-0.4c0.4-0.5,0.6-0.8,0.7-1.2
		l-2.2,7.1c0.1-0.3,0.1-0.6,0.1-1.4c-0.1-0.7-0.6-1.3-1.7-1.7L299.3,212.8z"/>
</g>
<g class="st0">
	<path class="st1" d="M293.4,231.8l0.3,0.4l-4.1-3.2l6.5-14.2c-0.1,0.3-0.2,0.7-0.3,1.4c0,0.7,0.4,1.4,1.4,1.9l13.8,6.3
		c0.9,0.4,1.8,0.3,2.3-0.2c0.5-0.5,0.7-0.8,0.8-1.1l-6.1,13.3l-4.5-1c0.4,0,0.9-0.2,1.7-0.4c0.8-0.2,1.5-0.5,2.1-1
		c0.8-0.5,1.4-1.1,1.9-1.7c0.5-0.6,1.1-1.6,1.7-3.2l0.7-1.6l-8.3-3.8l-0.7,1.4c-1.1,2.5,0.1,4,0.6,4.5l0.2,0.2l-5.3-2.4
		c0.1,0,0.3,0.1,1.1,0c0.9,0,2.3-0.6,3.1-2.4l0.7-1.4l-6.8-3.1c-2.1-0.9-2.8,0.2-3.1,0.9l-0.7,1.6c-0.7,1.5-0.8,3.2-0.4,5.1
		C292.4,229.9,293,231.3,293.4,231.8z"/>
</g>
<g class="st0">
	<path class="st1" d="M293.8,253.6c1.3,0.8,2.5,0.9,3.2,0.4c0.8-0.4,1.1-0.8,1.4-1.1l-3.4,5.4c0.2-0.4,0.4-0.8,0.4-1.7
		s-0.5-1.9-1.8-2.7l-14.1-8.9l0,0l0.4,0l20.1-1.7c0.7-0.1,0.8-0.3,0.5-0.8c-0.2-0.2-0.4-0.4-0.7-0.6l-9.8-6.2
		c-2.3-1.4-3.9-0.2-4.5,0.4l-0.2,0.3l3.5-5.5c-0.1,0.1-0.2,0.3-0.3,1.1c-0.2,1,0,2.4,1.8,3.5l9.8,6.2c3.2,2,5.1,0.6,5.3,0.2l0.1-0.1
		l-2.6,4.1l-16.9,1.4c-0.7,0-1,0.2-1.1,0.4c-0.1,0.2,0.3,0.6,1.2,1.1L293.8,253.6z"/>
</g>
<g class="st0">
	<path class="st1" d="M271.2,259.6c-1.7-1.5-3.3,0.1-3.5,0.3l5.1-5.8c-0.2,0.3-0.4,0.5-0.7,1.2c-0.3,0.7,0,1.6,0.8,2.3l11.2,9.9
		c0.8,0.7,1.7,0.9,2.3,0.5c0.6-0.3,0.9-0.6,1.1-0.8l-5.1,5.8c0.2-0.3,0.4-0.6,0.7-1.2c0.3-0.7,0-1.5-0.8-2.3L271.2,259.6z"/>
</g>
<g class="st0">
	<path class="st1" d="M279.6,277.1c-1.3,0.6-4-2.6-3.5-5c-0.1,1.2,0.8,2.8,1.9,3.5c0-0.2,0.1-0.5,0.3-0.7c0.4-0.6,1.3-0.6,1.8-0.2
		c0.6,0.4,0.7,1.2,0.2,1.8C280.1,276.9,279.8,277,279.6,277.1L279.6,277.1z"/>
</g>
<g class="st0">
	<path class="st1" d="M247.5,281.6c-0.7-0.8-1.5-1.1-2.3-0.9c-0.7,0.2-1.1,0.4-1.3,0.6l6-5c-0.2,0.2-0.5,0.5-0.8,1.2
		c-0.3,0.7-0.2,1.5,0.5,2.4l8,9.6c0.7,0.8,1.2,1.2,1.3,1.1c0.1-0.1,0.1-0.5-0.1-1.3l-0.1-0.3l-4.9-16.3l16.7,7
		c1.5,0.6,1.6,0,0.6-1.1l-7.3-8.8c-0.9-1.1-2.1-1.6-2.8-1.6c-0.4,0-0.8,0.1-1.1,0.2c-0.8,0.3-0.9,0.4-1.1,0.6l5.2-4.3
		c-0.2,0.1-0.3,0.3-0.7,0.9c-0.5,0.9-0.7,2.4,0.8,4.1l7.4,8.9c2.3,2.7,4.5,1.8,4.8,1.6l0.1-0.1l-4.1,3.4l-14.3-6
		c-2-0.8-2.5-0.6-1.9,1.5l4.3,14.5l-3.7,3c0.1-0.1,1.7-1.6,0.1-3.5L247.5,281.6z"/>
</g>
<g class="st0">
	<path class="st1" d="M228.9,289.5l1.5-0.8l6.9-3.5c-0.3,0.2-0.6,0.4-1.1,0.9c-0.5,0.5-0.6,1.4-0.2,2.3l6.9,13.4
		c0.5,1,1.3,1.4,2,1.3c0.7-0.1,1.1-0.2,1.4-0.4l-7.1,3.7c-2.9,1.5-5.1,2.2-7.5,1.8c-2.3-0.3-4.3-2.1-6-5.3
		C222.9,298,223.7,292.1,228.9,289.5z M228.3,301.7c1.6,3.1,3.5,4.8,5.4,5.3c1.9,0.4,3.5,0.2,5.4-0.8c1.1-0.6,1.9-1,2.2-1.2
		l-7.7-14.9c-0.8-1.6-1.8-1.7-3.5-0.8c-0.7,0.4-1.1,0.6-1.2,0.7C225.5,291.9,225.4,296.2,228.3,301.7z"/>
</g>
<g class="st0">
	<path class="st1" d="M205.6,304l-0.1,0.5l-0.5-5.2l14.7-5.2c-0.3,0.1-0.6,0.3-1.2,0.8c-0.5,0.5-0.7,1.3-0.4,2.3l5.1,14.3
		c0.3,1,1,1.5,1.7,1.5c0.7,0,1,0,1.4-0.2l-13.8,4.9l-2.4-3.9c0.3,0.2,0.8,0.5,1.5,0.9s1.4,0.7,2.2,0.9c0.9,0.2,1.8,0.3,2.5,0.2
		c0.8-0.1,1.9-0.4,3.5-0.9l1.7-0.6l-3-8.6l-1.5,0.5c-2.5,1-2.8,2.9-2.8,3.6l0,0.3l-2-5.5c0.1,0.1,0.2,0.3,0.7,0.8
		c0.7,0.6,2,1.2,3.9,0.6l1.5-0.5l-2.5-7c-0.8-2.1-2-1.9-2.8-1.6l-1.7,0.6c-1.6,0.6-2.9,1.6-4,3.2C206.3,302,205.7,303.4,205.6,304z"
		/>
</g>
<g class="st0">
	<path class="st1" d="M185.2,303.8l0.1,0L185.2,303.8z M199.3,321.6l0.1,0.2l2.9-18.3c0.3-2.2,1.2-3.6,2.5-4l-5.5,1.2
		c2-0.3,3,0.9,2.6,2.8l-0.8,5.1l-6.4,1.4l-3.1-5c-0.6-0.8-0.4-1.5-0.2-1.9c0.1-0.2,0.3-0.4,0.5-0.6c0.5-0.3,0.6-0.4,0.8-0.4
		l-7.4,1.6c0.5-0.1,0.9-0.1,1.9,0.4c0.5,0.3,1,0.8,1.4,1.4L199.3,321.6z M199.6,316.9c-0.2,0.1-0.7-0.4-1.3-1.3l-3.3-5.3l6.1-1.4
		l-0.8,5.6C200.1,316.1,199.8,316.9,199.6,316.9z"/>
</g>
<g class="st0">
	<path class="st1" d="M177,304.5l1.7-0.2l7.8-0.7c-0.3,0-0.7,0.1-1.4,0.4c-0.7,0.3-1.1,1.1-1,2.1l1.4,15.1c0.1,1.1,0.7,1.8,1.4,2
		c0.7,0.2,1.1,0.2,1.4,0.2l-8,0.7c-3.3,0.3-5.6,0.1-7.6-1.1c-2-1.2-3.2-3.6-3.6-7.2C168.3,310.2,171.3,305.1,177,304.5z
		 M171.9,315.7c0.3,3.5,1.5,5.8,3.1,6.9c1.6,1.1,3.2,1.5,5.3,1.3c1.3-0.1,2.1-0.2,2.5-0.3l-1.5-16.8c-0.2-1.8-1-2.3-2.9-2.1
		c-0.8,0.1-1.3,0.1-1.4,0.2C173,305.5,171.2,309.5,171.9,315.7z"/>
</g>
<g class="st0">
	<path class="st1" d="M157.5,312.7l-8.6-0.7l0-0.3l8.6,0.7L157.5,312.7z"/>
</g>
<g class="st0">
	<path class="st1" d="M134.4,304.2c0.5-2.3-1.7-2.8-2-2.9l7.5,1.5c-0.3-0.1-0.7-0.1-1.4,0c-0.7,0.1-1.3,0.8-1.6,1.8l-3,14.7
		c-0.2,1.1,0.1,1.9,0.7,2.3c0.6,0.4,0.9,0.5,1.3,0.6l-7.5-1.5c0.3,0.1,0.7,0.1,1.4,0c0.7-0.1,1.3-0.7,1.6-1.8L134.4,304.2z"/>
</g>
<g class="st0">
	<path class="st1" d="M123.4,320.1c-1.1-0.8,0.3-4.7,2.6-5.5c-1.1,0.5-2.1,2.1-2.2,3.4c0.2-0.1,0.5-0.1,0.7-0.1
		c0.7,0.1,1.2,0.8,1.1,1.5c-0.1,0.7-0.7,1.2-1.4,1.1C123.9,320.4,123.6,320.3,123.4,320.1L123.4,320.1z"/>
</g>
<g class="st0">
	<path class="st1" d="M118.2,297.5c-1.6-0.6-3.3-0.6-5-0.1c-1.7,0.5-3,1.2-3.8,2.2l2.7-4.5l14.3,4.9c-0.3-0.1-0.7-0.2-1.4-0.1
		c-0.7,0.1-1.4,0.6-1.8,1.7l-4.9,14.1c-0.4,1-0.2,1.9,0.4,2.3c0.5,0.5,0.8,0.6,1.1,0.7l-7.1-2.4c0.3,0.1,0.6,0.2,1.4,0.1
		c0.7,0,1.4-0.6,1.7-1.6l4.8-13.8c0.6-1.8,0.1-2.6-1.3-3.1L118.2,297.5z"/>
</g>
<g class="st0">
	<path class="st1" d="M102.9,291.1c-1.6-0.8-3.2-1-4.9-0.7c-1.8,0.2-3.1,0.8-4,1.8l3.2-4.1l13.6,6.6c-0.3-0.1-0.6-0.2-1.4-0.3
		c-0.7,0-1.5,0.5-2,1.5l-6.5,13.4c-0.5,1-0.4,1.9,0.1,2.4c0.5,0.5,0.7,0.7,1,0.8l-6.7-3.3c0.3,0.1,0.6,0.2,1.3,0.3
		c0.7,0.1,1.4-0.4,1.9-1.4l6.4-13.2c0.8-1.7,0.4-2.6-0.9-3.2L102.9,291.1z"/>
</g>
<g class="st0">
	<path class="st1" d="M76.1,274c-1.3-1.1-2.9-1.7-4.6-1.8c-1.8-0.2-3.2,0.1-4.3,0.8l4-3.3l11.8,9.5c-0.3-0.2-0.6-0.4-1.3-0.6
		c-0.7-0.2-1.6,0.1-2.3,1l-9.4,11.6c-0.7,0.9-0.8,1.7-0.5,2.3c0.3,0.6,0.6,0.8,0.8,1.1l-5.8-4.7c0.3,0.2,0.5,0.4,1.2,0.6
		c0.7,0.2,1.5-0.1,2.2-0.9l9.2-11.4c1.2-1.5,1-2.5-0.2-3.4L76.1,274z"/>
</g>
<g class="st0">
	<path class="st1" d="M45.1,267.1c0.5-2.5,1.8-4.6,3.7-6.3c2.2-1.9,4.6-2.9,7.2-2.9c2.7,0,5,1.1,7,3.3c2.3,2.4,3.1,5.4,2.6,7.9
		c-0.5,2.5-1.7,4.7-3.5,6.3c-2.2,2.1-4.7,3-7.4,2.8c-2.7-0.2-5.1-1.4-7.1-3.6C45.4,272.3,44.6,269.5,45.1,267.1z M47.3,269.4
		c-0.5,2.3,0,4.1,1.4,5.6c1.4,1.6,3.1,2.2,5.2,1.9s4.1-1.4,6.1-3.5c1.8-1.9,3-4.1,3.5-6.5c0.5-2.4,0.1-4.3-1.1-5.8
		c-1.4-1.8-3.1-2.5-5.2-2.1c-2.1,0.4-4.2,1.8-6.2,4C48.9,265,47.7,267.1,47.3,269.4z"/>
</g>
<g class="st0">
	<path class="st1" d="M36.9,241.4c0,0,1.2,1.4,3,0.2l5.1-3.5c-0.4,0.5-0.7,1-0.8,1.7c-0.2,0.7-0.2,1.2,0,1.5c0,0,0.8,0.1,1,0.2
		c0.2,0,1,0.2,1.3,0.4c0.9,0.4,2,1.1,2.9,2.5c1.7,2.4,2.2,4.9,1.6,7.3c-0.6,2.5-2.2,4.5-4.5,6.2c-6.1,4.2-12.2,0.9-14.9-3.8
		c-1-1.7-1.5-3.5-1.6-5.3l3.7-2.5c-0.2,0.3-0.4,0.8-0.7,1.3c-0.2,0.5-0.5,1.3-0.7,2.3c-0.2,1-0.3,1.9-0.1,2.8
		c0.4,2.5,1.5,4.2,3.4,5.2c2.4,1.3,5.8,0.6,9.3-2.2c2.2-1.7,3.6-3.7,4.1-5.8c0.5-2.1,0.3-4-0.7-5.6c-0.7-1.1-1.6-1.9-2.6-2.2
		c-1.3-0.5-2.8-0.1-4.5,1.1l-0.1,0.1c-1,0.7-1.1,2.1-0.7,2.9l0.3,0.6L36.9,241.4z"/>
</g>
<g class="st0">
	<path class="st1" d="M16.9,219.1c1.3-2.1,3.3-3.7,5.6-4.6c2.7-1,5.3-1.1,7.7-0.2c2.5,1,4.3,2.8,5.4,5.5c1.3,3,1,6.1-0.3,8.3
		c-1.3,2.2-3.3,3.8-5.5,4.7c-2.8,1.2-5.4,1.2-7.8,0c-2.4-1.1-4.2-3.1-5.4-5.8C15.4,224,15.6,221.2,16.9,219.1z M18.1,222
		c-1.2,2-1.4,3.9-0.7,5.7c0.8,1.9,2.2,3.1,4.2,3.6c2,0.5,4.3,0.1,6.9-1.2c2.4-1.2,4.2-2.8,5.5-4.8s1.6-4,1-5.8
		c-0.7-2.2-2.1-3.4-4.1-3.7c-2.1-0.3-4.5,0.2-7.2,1.5C21.2,218.5,19.4,220,18.1,222z"/>
</g>
<g class="st0">
	<path class="st1" d="M8,200l4.2-2.2c-0.2,0.1-0.6,0.6-1.1,1.3c-0.5,0.7-0.9,1.4-1.1,2c-0.2,0.6-0.3,1.1-0.3,1.4
		c-0.1,0.8,0,2.5,0.5,4.7l0.5,1.9l1.9-0.5l1.5-0.4l5.3-1.4l-0.5-1.9c-0.8-2.6-2.6-2.9-3.4-3l-0.3,0l5.8-1.6
		c-0.1,0.1-0.3,0.1-0.8,0.7c-0.7,0.6-1.5,1.9-0.9,3.8l0.5,1.9l7.7-2.1c1-0.3,1.5-0.9,1.6-1.6c0.1-0.7,0-1.1,0-1.4l1.9,7.2
		c-0.1-0.3-0.2-0.6-0.6-1.2c-0.4-0.6-1.2-0.8-2.2-0.6l-0.5,0.1l-1.4,0.4L13.7,211l-0.5,0.1c-1,0.3-1.5,0.9-1.6,1.6
		c-0.1,0.7-0.1,1,0,1.3L8,200z"/>
</g>
<g class="st0">
	<path class="st1" d="M5,181.4l4.4-1.7c-0.2,0.1-0.7,0.5-1.2,1.2c-0.6,0.7-1,1.3-1.3,1.9c-0.2,0.5-0.4,1-0.5,1.4
		c-0.2,0.7-0.3,2.4,0,4.7l0.3,2l2-0.3l1.6-0.2l5.5-0.8l-0.3-1.9c-0.5-2.6-2.3-3.2-3-3.4l-0.3,0l5.9-0.9c-0.1,0-0.3,0.1-0.9,0.6
		c-0.8,0.5-1.7,1.7-1.4,3.7l0.3,1.9l7.8-1.2c1-0.1,1.6-0.7,1.7-1.4c0.2-0.7,0.2-1.1,0.1-1.4l1.1,7.4c0-0.3-0.1-0.6-0.5-1.2
		c-0.3-0.6-1.1-1-2.1-0.8l-0.5,0.1l-1.5,0.2L9.4,193l-0.5,0.1c-1,0.1-1.6,0.7-1.7,1.4c-0.2,0.7-0.2,1-0.1,1.3L5,181.4z"/>
</g>
<g class="st0">
	<path class="st1" d="M5.7,136.9c0.2,1.6,1.2,2.9,3.3,3.9l16.6,7.8l-13.1,4.7l12.4,6c-12.4,4.4-18.7,6.7-19,6.8
		c-1.5,0.6-2.2,1.5-2.3,3l0.2-2.6l0.4-6c0,0,0,3,2.7,2.1c1.8-0.6,5.6-1.9,11.3-3.9c0.9-0.4,1.4-0.7,1.4-1c0-0.5-0.2-0.7-1.7-1.5
		l-5.7-2.8l-5.4,2c-1.5,0.6-2.2,1.5-2.3,3l0.2-2.6l0.4-6c0,0.1,0,2.9,2.7,2.1l11.3-3.9c0.5-0.2,1.4-0.6,1.4-1c0-0.4-0.3-0.7-1.8-1.4
		l-9.2-4.4c-2.1-1-3.6-0.3-3.9,2L5.7,136.9z"/>
</g>
<g class="st0">
	<path class="st1" d="M27.9,121.8c1.1,0.3,1.9,0,2.3-0.5c0.4-0.6,0.5-0.9,0.6-1.2l-1.9,7.2c0.1-0.2,0.1-0.5,0.1-0.8
		c0-0.5-0.4-1.7-1.7-2.1l-7.7-2l-2.4,9.3l7.5,1.9c1.1,0.3,1.9,0,2.3-0.5c0.4-0.6,0.5-0.9,0.6-1.2l-1.9,7.2c0.1-0.2,0.1-0.5,0.1-0.8
		c0-0.5-0.4-1.7-1.7-2.1l-14.7-3.8c-1.1-0.3-1.9,0-2.3,0.5c-0.4,0.6-0.5,0.9-0.6,1.2l1.9-7.2c-0.1,0.3-0.1,0.6,0,1.3
		c0.1,0.7,0.7,1.3,1.8,1.6l6.7,1.7l2.4-9.3l-6.7-1.7c-1.1-0.3-1.9,0-2.3,0.5c-0.4,0.6-0.5,0.9-0.6,1.2l1.9-7.2
		c-0.1,0.3-0.1,0.6,0,1.4c0.1,0.7,0.7,1.3,1.8,1.6L27.9,121.8z"/>
</g>
<g class="st0">
	<path class="st1" d="M33,102.6l-0.3-0.4l4.2,3l-5.9,14.5c0.1-0.3,0.2-0.7,0.2-1.4c0-0.7-0.5-1.4-1.4-1.8l-14.1-5.7
		c-0.9-0.4-1.8-0.2-2.2,0.3c-0.5,0.5-0.7,0.8-0.8,1.1l5.5-13.5l4.6,0.8c-0.4,0-0.9,0.2-1.7,0.5c-0.8,0.3-1.5,0.6-2.1,1
		c-0.8,0.5-1.4,1.1-1.8,1.7c-0.5,0.6-1,1.7-1.6,3.2l-0.7,1.6l8.4,3.4l0.6-1.5c1-2.5-0.3-4-0.8-4.5l-0.2-0.2l5.4,2.2
		c-0.1,0-0.3-0.1-1,0c-0.9,0.1-2.2,0.6-3,2.6l-0.6,1.5l6.9,2.8c2.1,0.9,2.7-0.3,3-1l0.7-1.7c0.6-1.5,0.7-3.3,0.2-5.1
		C34,104.5,33.4,103.1,33,102.6z"/>
</g>
<g class="st0">
	<path class="st1" d="M31.7,80.9c-1.3-0.7-2.5-0.8-3.3-0.3c-0.8,0.5-1,0.8-1.3,1.2l3.2-5.6c-0.2,0.4-0.3,0.8-0.4,1.7
		c0,0.9,0.6,1.9,1.9,2.7l14.4,8.3l0,0l-0.4,0l-20,2.5c-0.7,0.1-0.8,0.4-0.4,0.8c0.2,0.2,0.4,0.4,0.7,0.5l10,5.8c2.4,1.4,4,0,4.5-0.6
		l0.2-0.3l-3.3,5.7c0.1-0.1,0.2-0.3,0.3-1.1c0.1-1-0.1-2.4-1.9-3.4L26,93c-3.3-1.9-5.1-0.3-5.3,0l-0.1,0.1L23,89l16.8-2.1
		c0.6-0.1,1-0.2,1.1-0.5c0.1-0.2-0.3-0.6-1.2-1.1L31.7,80.9z"/>
</g>
<g class="st0">
	<path class="st1" d="M54,73.9c1.8,1.5,3.3-0.2,3.5-0.5l-4.8,6c0.2-0.3,0.4-0.6,0.6-1.3c0.2-0.7-0.1-1.6-0.9-2.2l-11.7-9.4
		c-0.9-0.7-1.7-0.8-2.4-0.4c-0.6,0.4-0.9,0.6-1.1,0.9l4.8-6c-0.2,0.3-0.4,0.6-0.6,1.3c-0.2,0.7,0,1.5,0.9,2.2L54,73.9z"/>
</g>
<g class="st0">
	<path class="st1" d="M44.9,56.9c1.2-0.6,4.1,2.4,3.7,4.8c0-1.2-0.9-2.8-2-3.4c0,0.2-0.1,0.5-0.3,0.7c-0.4,0.6-1.2,0.7-1.8,0.3
		c-0.6-0.4-0.7-1.2-0.3-1.8C44.4,57.1,44.7,57,44.9,56.9L44.9,56.9z"/>
</g>
<g class="st0">
	<path class="st1" d="M76.8,51.1c0.7,0.8,1.6,1,2.3,0.8c0.7-0.2,1-0.4,1.3-0.7l-5.8,5.2c0.2-0.2,0.5-0.5,0.8-1.2
		c0.3-0.7,0.1-1.5-0.6-2.4l-8.3-9.3c-0.7-0.8-1.2-1.2-1.4-1c-0.1,0.1,0,0.5,0.2,1.3l0.1,0.3l5.4,16l-16.9-6.4
		c-1.5-0.5-1.6,0-0.6,1.2l7.6,8.5c1,1.1,2.1,1.5,2.9,1.5c0.4,0,0.8-0.1,1.1-0.3c0.8-0.3,0.9-0.5,1.1-0.6l-5.1,4.5
		c0.1-0.1,0.3-0.3,0.7-1c0.4-0.9,0.6-2.4-1-4.1L52.9,55c-2.4-2.6-4.5-1.7-4.9-1.4L48,53.7l4-3.5l14.5,5.5c2.1,0.7,2.5,0.5,1.9-1.5
		l-4.8-14.3l3.5-3.2c-0.1,0.1-1.7,1.7,0,3.5L76.8,51.1z"/>
</g>
<g class="st0">
	<path class="st1" d="M95.1,42.4l-1.5,0.8L86.8,47c0.3-0.2,0.6-0.4,1.1-0.9c0.5-0.6,0.6-1.5,0.1-2.3l-7.4-13.1
		c-0.5-1-1.4-1.4-2.1-1.2c-0.7,0.1-1.1,0.2-1.4,0.4l7-3.9c2.8-1.6,5.1-2.4,7.4-2.1c2.3,0.2,4.4,1.9,6.2,5
		C100.7,33.6,100.1,39.5,95.1,42.4z M95.1,30.1c-1.7-3-3.7-4.7-5.6-5c-1.9-0.4-3.5,0-5.4,1c-1.1,0.6-1.8,1.1-2.2,1.3L90.2,42
		c0.9,1.6,1.8,1.7,3.5,0.7c0.7-0.4,1.1-0.6,1.2-0.7C98.4,39.8,98.3,35.5,95.1,30.1z"/>
</g>
<g class="st0">
	<path class="st1" d="M117.7,26.9l0.1-0.5l0.8,5.1l-14.5,5.8c0.3-0.1,0.6-0.3,1.1-0.8c0.5-0.5,0.7-1.3,0.3-2.3l-5.7-14.1
		c-0.4-0.9-1.1-1.4-1.8-1.4c-0.7,0-1,0.1-1.3,0.2l13.6-5.5l2.6,3.8c-0.3-0.2-0.8-0.5-1.5-0.9s-1.4-0.6-2.2-0.8
		c-0.9-0.2-1.8-0.2-2.5-0.1c-0.8,0.1-1.9,0.5-3.4,1.1l-1.6,0.7l3.4,8.4l1.5-0.6c2.5-1.1,2.7-3,2.6-3.7l0-0.3l2.2,5.4
		c-0.1-0.1-0.2-0.3-0.8-0.7c-0.7-0.6-2-1.2-3.9-0.4l-1.5,0.6l2.8,6.9c0.8,2.1,2.1,1.8,2.8,1.5l1.7-0.7c1.5-0.6,2.8-1.7,3.8-3.4
		C117.1,28.9,117.7,27.5,117.7,26.9z"/>
</g>
<g class="st0">
	<path class="st1" d="M134.7,24.6c0.4,0.6,0.9,1,1.4,1.3c1,0.5,1.5,0.5,1.9,0.4l-7.4,1.9c0.1,0,0.3-0.1,0.8-0.4
		c0.3-0.2,0.4-0.4,0.5-0.6c0.2-0.4,0.4-1.2-0.3-1.9l-3.3-4.8L122,22l-0.6,5.2c-0.3,1.9,0.7,3,2.7,2.7l-5.4,1.4
		c1.3-0.4,2.1-1.9,2.4-4.1l2.2-18.5l0.1,0.2L134.7,24.6z M122.7,16l-0.6,5.7l6.1-1.6l-3.5-5.2c-0.6-0.9-1.1-1.4-1.4-1.3
		C123,13.7,122.8,14.5,122.7,16z M138,26.3l0.1,0L138,26.3z"/>
</g>
<g class="st0">
	<path class="st1" d="M146.2,25.2l-1.7,0.2l-7.7,1c0.3,0,0.7-0.1,1.4-0.5c0.7-0.3,1.1-1.1,1-2.1l-1.9-15c-0.1-1.1-0.7-1.8-1.5-1.9
		c-0.7-0.2-1.1-0.2-1.4-0.1l7.9-1c3.2-0.4,5.6-0.3,7.6,0.8c2,1.1,3.3,3.4,3.9,7C154.7,19.2,151.9,24.4,146.2,25.2z M150.9,13.9
		c-0.5-3.4-1.7-5.7-3.3-6.8c-1.6-1-3.2-1.3-5.4-1.1c-1.3,0.2-2.1,0.3-2.5,0.4l2.1,16.7c0.2,1.8,1.1,2.2,3,2c0.8-0.1,1.3-0.2,1.4-0.2
		C150.2,24.1,151.8,20,150.9,13.9z"/>
</g>
<g class="st0">
	<path class="st1" d="M165.4,16.2l8.6,0.3l0,0.3l-8.6-0.3L165.4,16.2z"/>
</g>
</svg>
