<?xml version="1.0" encoding="utf-8"?>
<!-- Generator: Adobe Illustrator 25.2.1, SVG Export Plug-In . SVG Version: 6.00 Build 0)  -->
<svg version="1.1" id="Layer_1" xmlns="http://www.w3.org/2000/svg" xmlns:xlink="http://www.w3.org/1999/xlink" x="0px" y="0px"
	 viewBox="0 0 114.3 98.8" style="enable-background:new 0 0 114.3 98.8;" xml:space="preserve">
<style type="text/css">
	.st0{enable-background:new    ;}
	.st1{fill:none;stroke:#050505;stroke-miterlimit:10;}
</style>
<g class="st0">
	<path d="M20.2,62.9H21c0.2,0,0.3,0.1,0.3,0.2c0,0.1-0.1,0.2-0.3,0.2c-0.2,0-0.6,0-1,0c-0.4,0-1,0-1.9-0.1c-0.6,0-1,0-1.2,0
		s-0.4,0-0.5,0s-0.2,0-0.4,0c-0.2,0-0.6,0-1.2,0c-0.9,0-1.5,0.1-1.9,0.1c-0.4,0-0.8,0-1,0c-0.2,0-0.3-0.1-0.3-0.2
		c0-0.1,0.1-0.2,0.3-0.2h0.8c1,0,1.6-0.2,1.9-0.7c0.3-0.5,0.4-1.4,0.5-2.8c0-0.5,0.1-1.2,0.1-2c0-0.8,0-1.8,0-3.1v-6.1L9.4,38
		c-1.7-3.1-3-5.1-3.8-5.8C4.9,31.4,3.9,31,2.7,31H2.4c-0.1,0-0.2,0-0.2,0c-0.1,0-0.1-0.1-0.1-0.1c0-0.1,0-0.1,0.1-0.2
		c0,0,0.1-0.1,0.2-0.1c0.3,0,0.6,0,1.1,0c0.4,0,1.1,0,2,0.1c0.6,0,1,0,1.2,0c0.2,0,0.4,0,0.5,0s0.3,0,0.5,0c0.2,0,0.7,0,1.4,0
		c1.1,0,1.8-0.1,2.3-0.1c0.5,0,0.8,0,1.1,0c0.2,0,0.3,0.1,0.3,0.2c0,0.1-0.1,0.2-0.3,0.2h-0.9c-1.4,0-2.1,0.4-2.1,1.3
		c0,0.8,0.9,2.8,2.7,6l5.2,9.3l5.7-10.3c1-1.7,1.4-3.2,1.3-4.4c-0.2-1.2-1-1.8-2.5-1.8c-0.2,0-0.3,0-0.5,0c-0.2,0-0.4,0.1-0.7,0.1
		c-0.1,0-0.2,0-0.3,0s-0.1,0-0.1,0c-0.1,0-0.2,0-0.2-0.1c-0.1,0-0.1-0.1-0.1-0.2c0-0.1,0-0.2,0.1-0.2c0.1,0,0.2-0.1,0.4-0.1
		c0.2,0,0.4,0,0.8,0c0.4,0,1,0,1.9,0c0.9,0,1.5,0,1.9,0c0.4,0,0.6,0,0.7,0c0.1,0,0.2,0,0.4,0c0.2,0,0.6,0,1.2,0c0.9,0,1.6,0,2,0
		c0.4,0,0.7,0,1,0c0.2,0,0.3,0.1,0.2,0.2c0,0.1-0.1,0.2-0.3,0.2h-0.1c-1,0-2.1,0.5-3.1,1.6c-1.1,1-2.2,2.6-3.5,4.8l-5.9,10.7v6.3
		c0,1.3,0,2.3,0,3.1c0,0.8,0,1.4,0.1,2c0.1,1.4,0.2,2.3,0.5,2.8C18.6,62.7,19.2,62.9,20.2,62.9z"/>
</g>
<g class="st0">
	<path d="M49,51.2c0,3.4-1.2,6.3-3.5,8.8c-2.3,2.5-5.2,3.8-8.5,3.8c-3.3,0-6.1-1.1-8.2-3.3c-2.1-2.2-3.2-5-3.2-8.5
		c0-3.5,1.2-6.5,3.5-9c2.3-2.5,5.2-3.7,8.6-3.7c3.3,0,6,1.1,8.1,3.3C47.9,44.8,49,47.7,49,51.2z M28.3,51.2c0,3.3,0.9,6.2,2.7,8.5
		c1.8,2.4,4,3.6,6.7,3.6c2.6,0,4.6-1,6.2-3.1c1.6-2.1,2.4-4.8,2.4-8.2c0-3.4-0.9-6.3-2.6-8.7c-1.7-2.4-3.9-3.5-6.6-3.5
		c-2.7,0-4.8,1-6.4,3.1C29.1,45,28.3,47.7,28.3,51.2z"/>
</g>
<g class="st0">
	<path d="M76.1,51.2c0,3.4-1.2,6.3-3.5,8.8c-2.3,2.5-5.2,3.8-8.5,3.8s-6.1-1.1-8.2-3.3c-2.1-2.2-3.2-5-3.2-8.5c0-3.5,1.2-6.5,3.5-9
		c2.3-2.5,5.2-3.7,8.6-3.7c3.3,0,6,1.1,8.1,3.3C75,44.8,76.1,47.7,76.1,51.2z M55.5,51.2c0,3.3,0.9,6.2,2.7,8.5
		c1.8,2.4,4,3.6,6.7,3.6c2.6,0,4.6-1,6.2-3.1c1.6-2.1,2.4-4.8,2.4-8.2c0-3.4-0.9-6.3-2.6-8.7c-1.7-2.4-3.9-3.5-6.6-3.5
		c-2.7,0-4.8,1-6.4,3.1C56.3,45,55.5,47.7,55.5,51.2z"/>
	<path d="M81.3,63.3c-0.6,0-1.1,0-1.4,0c-0.3,0-0.6,0-0.9,0c-0.2,0-0.3-0.1-0.3-0.2c0-0.1,0.1-0.2,0.3-0.2c0.9,0,1.5-0.3,1.7-0.8
		c0.2-0.5,0.3-2,0.3-4.4V46.4c0-0.8-0.2-1.7-0.6-2.5c-0.4-0.9-0.8-1.5-1.4-2.1c-0.1-0.1-0.1-0.1-0.1-0.2s0-0.1,0.1-0.1
		c0.6-0.3,1.1-0.6,1.5-0.8c0.4-0.2,0.7-0.5,0.9-0.7c0.1-0.1,0.1-0.1,0.1-0.1c0,0,0.1,0.1,0.1,0.1c0.5,0.5,0.9,1.3,1.3,2.2
		c0.3,0.9,0.5,1.9,0.5,2.8c1.4-2,2.9-3.5,4.4-4.5c1.5-1,3.1-1.4,4.8-1.4c2.5,0,4.4,0.8,5.7,2.5c1.3,1.6,1.9,4.1,1.9,7.4v9.6
		c0,0.7,0,1.3,0,1.7s0.1,0.8,0.1,1.2c0.1,0.5,0.3,0.9,0.5,1c0.2,0.2,0.7,0.3,1.5,0.3c0.2,0,0.3,0.1,0.3,0.2c0,0.1-0.1,0.2-0.3,0.2
		c-0.1,0-0.2,0-0.3,0c-0.2,0-0.5,0-1,0c-0.8,0-1.3,0-1.6,0c-0.3,0-0.6,0-0.7,0c-0.1,0-0.2,0-0.4,0c-0.2,0-0.4,0-0.8,0
		c-0.6,0-1,0-1.4,0c-0.3,0-0.6,0-0.9,0c-0.2,0-0.3-0.1-0.3-0.2c0-0.1,0.1-0.2,0.3-0.2c1,0,1.7-0.3,1.9-0.9c0.3-0.6,0.4-1.8,0.4-3.6
		v-9.5c0-2.8-0.5-4.9-1.6-6.3c-1-1.4-2.6-2.1-4.6-2.1c-1.5,0-2.9,0.4-4.2,1.3c-1.3,0.9-2.6,2.2-3.9,4v17.2H86c0.2,0,0.3,0.1,0.3,0.2
		c0,0.1-0.1,0.2-0.3,0.2c-0.1,0-0.2,0-0.3,0c-0.2,0-0.5,0-0.9,0c-0.7,0-1.3,0-1.6,0c-0.3,0-0.5,0-0.7,0c-0.1,0-0.2,0-0.4,0
		S81.6,63.3,81.3,63.3z"/>
</g>
<path class="st1" d="M64.6,96.5c26,0,47.1-21.1,47.1-47.1c0-26-21.1-47.1-47.1-47.1V96.5z"/>
</svg>
