<?xml version="1.0" encoding="UTF-8"?><svg id="Illustrator_40" data-name="Illustrator 40" xmlns="http://www.w3.org/2000/svg" width="40" height="39" viewBox="0 0 40 39">
  <path id="Path_99510" data-name="Path 99510" d="M7.125,0H33a7.005,7.005,0,0,1,7,7.1V31.9A7.11,7.11,0,0,1,32.875,39H7.125A7.11,7.11,0,0,1,0,31.9V7.1A7.032,7.032,0,0,1,7.125,0Z" fill="#300"/>
  <path id="Path_99511" data-name="Path 99511" d="M17.725,21.375h-6.25l-1.25,3.875c0,.125-.125.25-.375.25h-3a.269.269,0,0,1-.25-.25l5.375-15.5c.125-.125.125-.25.125-.5a3.461,3.461,0,0,0,.125-1.125L12.35,8H16.6c.125,0,.25,0,.25.125L22.975,25.25c0,.125,0,.25-.125.25h-3.5a.269.269,0,0,1-.25-.25ZM12.475,18h4.25c-.125-.375-.25-.75-.375-1.25a6.093,6.093,0,0,0-.5-1.375c-.125-.5-.375-1-.5-1.5a7.047,7.047,0,0,0-.5-1.5,6.736,6.736,0,0,1-.375-1.25h0a10.559,10.559,0,0,1-.625,2.125c-.25.75-.5,1.625-.75,2.5A15.113,15.113,0,0,1,12.475,18Z" transform="translate(1.65 1.942)" fill="#ff9a00"/>
  <path id="Path_99512" data-name="Path 99512" d="M23,11.15a2.306,2.306,0,0,1-1.5-.625,2.182,2.182,0,0,1-.5-1.5,2.306,2.306,0,0,1,.625-1.5,2.112,2.112,0,0,1,3,0,1.718,1.718,0,0,1,.5,1.5,1.682,1.682,0,0,1-.625,1.5A2.07,2.07,0,0,1,23,11.15ZM21.25,25.525V12.775a.269.269,0,0,1,.25-.25h3.25a.269.269,0,0,1,.25.25V25.65a.269.269,0,0,1-.25.25H21.5C21.25,25.9,21.25,25.775,21.25,25.525Z" transform="translate(5.25 1.671)" fill="#ff9a00"/>
</svg>
