<svg id="Layer_1" data-name="Layer 1" xmlns="http://www.w3.org/2000/svg" viewBox="0 0 504.82 167.11"><defs><style>.cls-1{fill:#fff;}</style></defs><path class="cls-1" d="M114.52,7c-4.84.91-6.38,2.34-6.61,7.77-.18,4.37-.39,8.77-.39,19.43V81.9h-3.88L70.79,21.12v28c0,10.53.19,15.45.39,18.92.26,5.56,2,8,7.73,8.54v4H59.69v-4c4.59-.6,6.51-2.4,6.92-8.1.29-4.14.45-8.83.45-19.4V20c0-3.73-.16-6.12-1.62-9.06s-3.22-3.47-6.69-4v-4h14l30.91,55.5V34.16c0-10.66-.1-15-.34-19.16-.23-5.23-1.67-7.45-8.07-8v-4h19.28Z"/><path class="cls-1" d="M144.42,80.67v-4c5-1,5.2-2.31,4.1-7.25-.86-4-2.22-9.56-3.55-15.3h-15.8c-1,4.29-2.11,8.88-3,13-1.67,7.62-.07,8.57,6.18,9.54v4H113.51v-4c4.92-1,6.17-2,8.85-12.25l16.2-62.19,3.31-1c5,20.69,10.31,42.45,15.32,62.68,2.76,10.87,3.46,11.75,8.69,12.71v4Zm-7.19-59.49c-2.35,9.2-4.7,18.22-6.78,27.2h13.17Z"/><path class="cls-1" d="M203.64,22.93a52.18,52.18,0,0,0-3.06-11.09c-1.35-2.77-2-3.68-6.52-3.68h-6V65.1c0,9.79.73,10.72,7.84,11.52v4h-24.8v-4c6.86-.8,7.53-1.68,7.53-11.52V8.16h-5.58c-4.34,0-5.59.95-7,4.07a62.59,62.59,0,0,0-3,10.78h-2.75c.52-8.23,1-16.93,1.22-23h2.15c1.17,2.79,2.08,2.91,4.37,2.91h31.11c2.14,0,3.06-.64,4.34-2.91h2.12c.05,5.23.37,15.09.76,22.57Z"/><path class="cls-1" d="M210.85,80.67v-4c6.1-.93,6.77-1.56,6.77-11.65V18.72c0-10.13-.73-10.92-6.77-11.76v-4h23V7c-6.08.92-6.8,1.63-6.8,11.76V65c0,10,.67,10.65,6.8,11.65v4Z"/><path class="cls-1" d="M266.53,1.23c14.06,0,25.9,16,25.9,39.64,0,25.56-11.7,41.59-26.31,41.59-15.4,0-26.58-17.47-26.58-40.34C239.54,21.32,249.2,1.23,266.53,1.23Zm-1.3,5C257,6.2,250.4,17.91,250.4,39.51c0,20.93,6.19,37.94,16.91,37.94,8.13,0,14.37-10.92,14.37-33.24C281.68,20,274.69,6.2,265.23,6.2Z"/><path class="cls-1" d="M352.42,7c-4.84.91-6.38,2.34-6.61,7.77-.18,4.37-.39,8.77-.39,19.43V81.9h-3.88L308.7,21.12v28c0,10.53.18,15.45.39,18.92.26,5.56,2,8,7.73,8.54v4H297.6v-4c4.58-.6,6.51-2.4,6.92-8.1.28-4.14.44-8.83.44-19.4V20c0-3.73-.16-6.12-1.61-9.06s-3.23-3.47-6.69-4v-4h14l30.91,55.5V34.16c0-10.66-.11-15-.34-19.16-.24-5.23-1.68-7.45-8.07-8v-4h19.27Z"/><path class="cls-1" d="M382.33,80.67v-4c5-1,5.19-2.31,4.1-7.25-.86-4-2.22-9.56-3.56-15.3H367.08c-1,4.29-2.12,8.88-3,13-1.67,7.62-.07,8.57,6.18,9.54v4H351.42v-4c4.91-1,6.16-2,8.84-12.25L376.47,2.18l3.31-1c5,20.69,10.3,42.45,15.32,62.68,2.75,10.87,3.45,11.75,8.69,12.71v4Zm-7.2-59.49c-2.34,9.2-4.69,18.22-6.78,27.2h13.18Z"/><path class="cls-1" d="M446,60c-.57,4.64-2.81,17.24-3.54,20.64H404.63v-4c6.95-.85,7.58-1.6,7.58-11.69V18.68c0-10.09-.79-10.92-6.78-11.72v-4h23.15V7c-6.14.88-6.95,1.59-6.95,11.72V65.89c0,6.83.32,9.36,4.67,9.48.13.08,4.43.12,4.8.12,4.28,0,5.45-1.18,7.3-4.33,1.64-2.64,3.54-7.66,4.86-12.4Z"/><path class="cls-1" d="M51.8,132.58c-4.59,1.11-5,1.68-5,9.43v9.51A102.29,102.29,0,0,0,47.22,163c-4.28,1.28-12.08,4.07-18.48,4.07-18.12,0-28.74-17-28.74-40.83C0,100,14,85.88,30.25,85.88c6.9,0,13.41,2.4,15.93,2.84.16,5,.7,13.43,1.27,20.35l-2.79.79c-1.88-10.17-4.55-15-9.41-17.53a16.88,16.88,0,0,0-6.86-1.48c-10.31,0-17.64,12.57-17.64,33.6,0,20.34,5.39,37.77,19,37.77a8.68,8.68,0,0,0,5.57-1.8c1.33-1.2,2.09-3,2.09-7.11V143c0-8.5-.92-9.38-7.81-10.45v-4.09H51.8Z"/><path class="cls-1" d="M98.26,145.44c-.42,3.19-2.58,16.44-3.31,19.88H55.34v-4c7.16-1,7.66-1.76,7.66-11.73V103.38c0-10.34-.91-11-6.41-11.77v-4H81.44c7.89,0,10.73-.12,11.77-.24.08,2.45.44,12,.75,19l-2.79.6a41.36,41.36,0,0,0-3-10.41c-1.35-2.94-2.63-3.7-6.86-3.7H75.41c-2.78,0-3,.28-3,4.14v25.5h8c4.89,0,5.53-1.79,6.62-10.16h2.83v26H87c-1.17-8.77-1.79-10.12-6.7-10.12H72.38v21.7c0,8.3.7,10.18,5.21,10.3h6.14c4.51,0,5.54-.92,7.26-4.11a62,62,0,0,0,4.57-11.62Z"/><path class="cls-1" d="M129.47,85.88c14.06,0,25.9,16,25.9,39.64,0,25.56-11.7,41.59-26.31,41.59-15.4,0-26.58-17.46-26.58-40.34C102.48,106,112.14,85.88,129.47,85.88Zm-1.3,5c-8.24,0-14.83,11.72-14.83,33.31,0,20.93,6.19,37.94,16.91,37.94,8.13,0,14.37-10.92,14.37-33.23C144.62,104.68,137.63,90.85,128.17,90.85Z"/><path class="cls-1" d="M214.15,132.58c-4.58,1.11-5.05,1.68-5.05,9.43v9.51a102.29,102.29,0,0,0,.47,11.52c-4.28,1.28-12.07,4.07-18.48,4.07-18.12,0-28.74-17-28.74-40.83,0-26.33,14-40.4,30.25-40.4,6.9,0,13.41,2.4,15.93,2.84.16,5,.7,13.43,1.27,20.35l-2.79.79c-1.88-10.17-4.55-15-9.41-17.53a16.83,16.83,0,0,0-6.85-1.48c-10.32,0-17.64,12.57-17.64,33.6,0,20.34,5.38,37.77,19,37.77a8.68,8.68,0,0,0,5.57-1.8c1.33-1.2,2.1-3,2.1-7.11V143c0-8.5-.93-9.38-7.82-10.45v-4.09h22.19Z"/><path class="cls-1" d="M266.69,166.12a21.36,21.36,0,0,1-2.54-.16c-8.43-.68-11.38-3.57-14.1-9.43-3-6.42-5.49-13.8-8.09-20.6-1.31-3.44-2.38-4.16-5.39-4.16l-2-.07v17.92c0,9.86.81,10.61,6.8,11.65v4H218.58v-4c6.12-1,6.77-1.79,6.77-11.65V103.13c0-9.7-.81-10.68-6.77-11.52v-4h21.68c6.51,0,10.43,1.15,13.55,4.38s5.26,8.49,5.26,15.87c0,10.52-4.5,16.43-9.87,19.79,1.25,3.64,4.41,11.49,6.75,17a108.89,108.89,0,0,0,6,12.4c1.91,3.23,3.09,4.31,5.19,5.34Zm-29.41-39c3.6,0,6.18-.88,8-3.23,2.74-3.39,3.89-8,3.89-14.25,0-12.72-5-17.31-10-17.31-2.16,0-3.28.48-3.78,1.2s-.78,2.11-.78,4.75v28.84Z"/><path class="cls-1" d="M298.11,165.32v-4c5-1,5.19-2.31,4.1-7.25-.86-4-2.22-9.55-3.56-15.3H282.86c-1,4.29-2.11,8.88-3,13-1.67,7.62-.07,8.57,6.18,9.54v4H267.2v-4c4.91-1,6.16-2,8.84-12.25l16.21-62.19,3.31-1c5,20.69,10.3,42.45,15.32,62.68,2.75,10.87,3.45,11.75,8.69,12.71v4Zm-7.19-59.49c-2.35,9.2-4.7,18.22-6.79,27.21h13.18Z"/><path class="cls-1" d="M342.67,87.56c5.95,0,10.55,1.63,13.75,5,3.6,3.78,5.76,9.48,5.76,17.61,0,17.38-9.66,24.6-17.68,24.68a11.42,11.42,0,0,1-2.26-.24l-4.82-1.92v17.1c0,10.05.54,10.45,7.47,11.49v4H321.22v-4c6.15-1.08,6.77-1.56,6.77-11.57V103.37c0-10.25-.81-11-6.77-11.76v-4ZM337.42,128a8.15,8.15,0,0,0,4.68,1.32c4.16,0,10.23-3.53,10.23-19.07,0-13.31-5.06-18-10.65-18-1.86,0-3,.6-3.51,1.28s-.75,2-.75,4.34Z"/><path class="cls-1" d="M422.63,91.61c-6.23,1-6.8,1.63-6.8,11.6v46.57c0,10,.65,10.57,6.8,11.49v4h-23v-4c6.28-1.2,6.8-1.52,6.8-11.49v-23h-23v23c0,9.93.67,10.45,6.72,11.49v4H367.19v-4c6-1,6.77-1.52,6.77-11.49V103.21c0-10-.7-10.8-6.77-11.6v-4h22.92v4c-6,.84-6.72,1.67-6.72,11.6V121h23V103.21c0-9.93-.81-10.69-6.8-11.6v-4h23Z"/><path class="cls-1" d="M428.3,165.32v-4c6.1-.92,6.78-1.56,6.78-11.65V103.37c0-10.13-.73-10.92-6.78-11.76v-4h23v4c-6.07.92-6.8,1.63-6.8,11.76v46.25c0,10.06.68,10.65,6.8,11.65v4Z"/><path class="cls-1" d="M504.82,145.24c-1.1,5.9-3.13,14.83-4.35,18.84-2.11.72-8.4,3-14.33,3C466,167.11,457,147,457,127.31c0-24.64,12.25-41.43,30.54-41.43,6.77,0,12.58,2.39,14.75,2.83.37,5.54.91,13.81,1.49,19.32l-2.88.84c-1.61-8.87-3.79-13.46-7.87-16A14.11,14.11,0,0,0,485.75,91c-11.86,0-17.94,14.52-17.94,33.63,0,22.31,7.5,37.15,18.87,37.15,7.05,0,11.26-5.39,15.39-18.13Z"/></svg>