<svg id="Layer_1" data-name="Layer 1" xmlns="http://www.w3.org/2000/svg" xmlns:xlink="http://www.w3.org/1999/xlink" viewBox="0 0 225.61 71.55"><defs><style>.cls-1{fill:none;}.cls-2{clip-path:url(#clip-path);}.cls-3{fill:gold;}.cls-3,.cls-4{fill-rule:evenodd;}.cls-4,.cls-5{fill:#fff;}</style><clipPath id="clip-path"><rect class="cls-1" x="-482.51" y="-272.6" width="390" height="390"/></clipPath></defs><g class="cls-2"><image width="5671" height="3781" transform="translate(-575.28 -272.72) scale(0.1 0.1)" xlink:href="../images/pexels-alex-azabache-3757144.jpg"/></g><path class="cls-3" d="M1.46,0H15.6V20.26H1.46V0Zm2,18.22H13.55V2H3.5V18.22Z"/><path class="cls-4" d="M25,9.09h-.87C23,7.47,21.83,5.85,20.69,4h0V9.09h-1V2h.88c1.15,1.61,2.29,3.21,3.41,5h0V2h1V9.09Z"/><path class="cls-4" d="M27.29,6.3c.28-.93.56-1.78.81-2.87h0c.29,1.09.54,1.94.8,2.87ZM27.75,2,25.31,9.09h1.05L27,7.17H29.1l.56,1.92H31L28.76,2Z"/><polygon class="cls-4" points="32.15 9.09 32.15 2.98 30.29 2.98 30.29 2.04 35.21 2.04 35.21 2.98 33.35 2.98 33.35 9.09 32.15 9.09 32.15 9.09"/><polygon class="cls-4" points="35.6 2.04 36.8 2.04 36.8 9.09 35.6 9.09 35.6 2.04 35.6 2.04"/><path class="cls-4" d="M40.53,8.2c-1.26,0-1.71-1.39-1.71-2.74s.51-2.54,1.71-2.54,1.7,1.24,1.7,2.54-.44,2.74-1.7,2.74Zm0,1c1.84,0,3-1.64,3-3.75s-1.27-3.54-3-3.54-3,1.57-3,3.54,1.15,3.75,3,3.75Z"/><path class="cls-4" d="M49.53,9.09h-.87C47.51,7.47,46.37,5.85,45.23,4h0V9.09h-1V2h.87c1.15,1.61,2.29,3.21,3.41,5h0V2h1V9.09Z"/><path class="cls-4" d="M51.83,6.3c.28-.93.56-1.78.82-2.87h0c.28,1.09.53,1.94.79,2.87ZM52.29,2,49.86,9.09h1l.62-1.92h2.12l.56,1.92h1.35L53.3,2Z"/><polygon class="cls-4" points="55.9 2.04 57.1 2.04 57.1 8.14 59.49 8.14 59.49 9.09 55.9 9.09 55.9 2.04 55.9 2.04"/><path class="cls-4" d="M24.25,15V17.9a5.62,5.62,0,0,1-2,.43,3.39,3.39,0,0,1-3.38-3.68A3.42,3.42,0,0,1,22.28,11a3.06,3.06,0,0,1,1.72.54l-.4.84a2.61,2.61,0,0,0-1.29-.37c-1.29,0-2.16,1-2.16,2.62s1,2.66,2,2.66a1.8,1.8,0,0,0,.85-.17V15Z"/><polygon class="cls-4" points="28.57 12.11 26.55 12.11 26.55 14.04 28.53 14.04 28.53 14.99 26.55 14.99 26.55 17.27 28.93 17.27 28.93 18.21 25.34 18.21 25.34 11.16 28.57 11.16 28.57 12.11 28.57 12.11"/><path class="cls-4" d="M32.3,17.33c-1.26,0-1.71-1.39-1.71-2.74s.51-2.54,1.71-2.54S34,13.29,34,14.59s-.44,2.74-1.7,2.74Zm0,1c1.84,0,3-1.64,3-3.74S34,11,32.3,11s-3,1.57-3,3.55,1.14,3.74,3,3.74Z"/><path class="cls-4" d="M41.09,15V17.9a5.56,5.56,0,0,1-2,.43,3.4,3.4,0,0,1-3.39-3.68A3.42,3.42,0,0,1,39.13,11a3,3,0,0,1,1.71.54l-.39.84a2.67,2.67,0,0,0-1.29-.37c-1.29,0-2.17,1-2.17,2.62s1,2.66,2,2.66a1.76,1.76,0,0,0,.84-.17V15Z"/><path class="cls-4" d="M43.41,12.11h.53a1,1,0,0,1,1.12,1.14,1.24,1.24,0,0,1-1.15,1.4l-.5,0V12.11Zm3.06,6.1-1.42-2.92a2.36,2.36,0,0,0,1.22-2.09c0-1.38-.84-2-2.19-2H42.2v7.05h1.21V15.55H44l1.14,2.66Z"/><path class="cls-4" d="M48.47,15.42c.28-.93.56-1.78.81-2.87h0c.29,1.09.54,1.94.8,2.87Zm.46-4.26-2.44,7.05h1l.61-1.92h2.13l.55,1.92h1.36l-2.25-7Z"/><path class="cls-4" d="M54.45,11.16H52.57v7.05h1.21V15.55h.54a2.31,2.31,0,0,0,2.32-2.35c0-1.38-.84-2-2.19-2Zm-.17,3.49-.5,0V12.11h.54a1,1,0,0,1,1.11,1.14,1.24,1.24,0,0,1-1.15,1.4Z"/><polygon class="cls-4" points="62.24 18.21 61.03 18.21 61.03 14.82 58.52 14.82 58.52 18.21 57.32 18.21 57.32 11.16 58.52 11.16 58.52 13.87 61.03 13.87 61.03 11.18 62.24 11.18 62.24 18.21 62.24 18.21"/><polygon class="cls-4" points="63.4 11.16 64.6 11.16 64.6 18.21 63.4 18.21 63.4 11.16 63.4 11.16"/><path class="cls-4" d="M70,12.44a2.6,2.6,0,0,0-1.24-.39c-1.24,0-2.13,1-2.13,2.62s1,2.66,2.16,2.66A2.33,2.33,0,0,0,70,17l.33.88a3.11,3.11,0,0,1-1.59.48,3.4,3.4,0,0,1-3.39-3.68A3.41,3.41,0,0,1,68.8,11a3,3,0,0,1,1.62.54l-.38.86Z"/><path class="cls-5" d="M9.7,66.62V36H4.34c-2,0-2.95.36-3.32,1.15L.9,37.1.6,34.51,0,29.39H27.11l-.66,5.12-.3,2.65H26C25.6,36.37,24.64,36,22.71,36H17.35V66.62c0,3.19.42,4.15,1.33,4.75l-.07.18H8.49l-.06-.18C9.34,70.77,9.7,69.81,9.7,66.62Z"/><path class="cls-5" d="M30,66.62V34.33c0-3.2-.36-4.16-1.26-4.76l.06-.18H41.93c10,0,14.82,4.09,14.82,12.1,0,5.43-2.47,9-7.29,10.67v.12c3.67,1.26,5.24,3.85,5.6,7.47l1,7.89c.3,2.53.66,3.31,1.38,3.79l-.06.12H48.5l-1-10.66c-.36-3.91-2.23-5.42-5.24-5.42H37.65V66.62c0,3.19.36,4.15,1.27,4.75l-.06.18H28.8l-.06-.18C29.64,70.77,30,69.81,30,66.62ZM42,49.33c4.82,0,7-2.35,7-7s-2.23-6.69-7.17-6.69H37.65V49.33Z"/><path class="cls-5" d="M59.34,67.7l8.37-34.46c.54-2.47.36-3.25-.36-3.67l.06-.18H80.12l.06.18c-.66.42-.9,1.2-.3,3.67L88.31,67.7c.61,2.47,1,3.25,1.63,3.67l-.06.18h-9.4l-.06-.18c.73-.42.91-1.2.36-3.67L79.7,62.82h-12l-1,4.88c-.54,2.47-.36,3.25.36,3.67l-.06.18H57.71l-.06-.18C58.38,71,58.74,70.17,59.34,67.7Zm19-11.33L73.62,34.45l-4.7,21.92Z"/><path class="cls-5" d="M85.91,29.57l.06-.18h9.57l.06.18c-.72.42-.9,1.2-.36,3.67l6.81,29.52,6.45-29.52c.54-2.47.3-3.25-.36-3.67l.06-.18h9.51l.06.18c-.72.42-1.08,1.2-1.68,3.61l-9.52,38.37H97.11L87.59,33.18C87,30.77,86.63,30,85.91,29.57Z"/><path class="cls-5" d="M120.06,66.62V34.33c0-3.2-.36-4.16-1.26-4.76l.06-.18h24l-.61,4.33L141.87,37h-.18c-.42-1-1.63-1.39-4-1.39h-9.94V47.16h7c3.2,0,4.16-.36,4.76-1.27l.18.06v8.38l-.18.06c-.6-.91-1.56-1.27-4.76-1.27h-7V65.29h10c2.4,0,3.61-.42,4.09-1.39L142,64l.36,3.26.55,4.33h-24l-.06-.18C119.7,70.77,120.06,69.81,120.06,66.62Z"/><path class="cls-5" d="M147.11,66.62V34.33c0-3.2-.36-4.16-1.26-4.76l.06-.18H156l.06.18c-.9.6-1.27,1.56-1.27,4.76v30.6h8.38c2.41,0,3.61-.42,4.09-1.45l.18.06.37,3.26.6,4.75H145.91l-.06-.18C146.75,70.77,147.11,69.81,147.11,66.62Z"/><path class="cls-5" d="M171.15,66.62V34.33c0-3.2-.36-4.16-1.27-4.76l.06-.18h24l-.6,4.33L193,37h-.18c-.43-1-1.63-1.39-4-1.39H178.8V47.16h7c3.19,0,4.16-.36,4.76-1.27l.18.06v8.38l-.18.06c-.6-.91-1.57-1.27-4.76-1.27h-7V65.29h10c2.41,0,3.62-.42,4.1-1.39l.18.06.36,3.26.54,4.33h-24l-.06-.18C170.79,70.77,171.15,69.81,171.15,66.62Z"/><path class="cls-5" d="M198.2,66.62V34.33c0-3.2-.36-4.16-1.27-4.76l.06-.18h13.14c10,0,14.82,4.09,14.82,12.1,0,5.43-2.47,9-7.29,10.67v.12c3.67,1.26,5.24,3.85,5.6,7.47l1,7.89c.3,2.53.67,3.31,1.39,3.79l-.06.12h-8.86l-1-10.66c-.36-3.91-2.23-5.42-5.24-5.42h-4.58V66.62c0,3.19.36,4.15,1.26,4.75l-.06.18H197l-.06-.18C197.84,70.77,198.2,69.81,198.2,66.62Zm12-17.29c4.82,0,7-2.35,7-7S215,35.59,210,35.59h-4.16V49.33Z"/></svg>